<?xml version="1.0" encoding="utf-8"?>
<!-- Generator: Adobe Illustrator 16.0.0, SVG Export Plug-In . SVG Version: 6.00 Build 0)  -->
<!DOCTYPE svg PUBLIC "-//W3C//DTD SVG 1.1//EN" "http://www.w3.org/Graphics/SVG/1.1/DTD/svg11.dtd">
<svg version="1.1" id="Layer_1" xmlns="http://www.w3.org/2000/svg" xmlns:xlink="http://www.w3.org/1999/xlink" x="0px" y="0px"
	 width="440.584px" height="392.591px" viewBox="0 0 440.584 392.591" enable-background="new 0 0 440.584 392.591"
	 xml:space="preserve">
<circle fill="#72B5CF" cx="215.843" cy="189.988" r="120.669"/>
<g>
	<circle fill="#337C98" cx="167.657" cy="195.109" r="43.163"/>
	<g>
		<path fill="#FFFFFF" d="M141.174,185.314v3.244l-0.248,1.758c-0.06,0.33-0.158,0.584-0.293,0.76s-0.36,0.264-0.676,0.264
			c-0.278,0-0.492-0.088-0.642-0.264c-0.15-0.176-0.255-0.43-0.315-0.76l-0.248-1.758v-3.244H141.174z M145.319,185.314v3.244
			l-0.248,1.758c-0.061,0.33-0.158,0.584-0.293,0.76s-0.36,0.264-0.676,0.264c-0.278,0-0.492-0.088-0.642-0.264
			c-0.15-0.176-0.255-0.43-0.315-0.76l-0.248-1.758v-3.244H145.319z"/>
		<path fill="#FFFFFF" d="M150.647,191.285c0.451-0.422,0.946-0.764,1.487-1.025c0.541-0.264,1.175-0.395,1.904-0.395
			c0.631,0,1.19,0.107,1.679,0.32c0.488,0.215,0.896,0.516,1.222,0.902s0.574,0.848,0.743,1.385s0.253,1.129,0.253,1.775v7.355
			h-2.782v-7.355c0-0.707-0.162-1.254-0.484-1.641s-0.815-0.58-1.476-0.58c-0.481,0-0.931,0.109-1.352,0.328
			c-0.42,0.217-0.818,0.514-1.194,0.889v8.359h-2.782v-16.74h2.782V191.285z"/>
		<path fill="#FFFFFF" d="M165.686,189.865c0.856,0,1.635,0.139,2.338,0.416c0.702,0.279,1.303,0.674,1.802,1.184
			c0.499,0.51,0.884,1.135,1.155,1.869c0.27,0.736,0.405,1.559,0.405,2.467c0,0.918-0.135,1.744-0.405,2.479
			c-0.271,0.736-0.656,1.363-1.155,1.883c-0.5,0.518-1.101,0.916-1.802,1.193c-0.703,0.277-1.481,0.416-2.338,0.416
			c-0.863,0-1.648-0.139-2.354-0.416c-0.706-0.277-1.309-0.676-1.808-1.193c-0.5-0.52-0.886-1.146-1.16-1.883
			c-0.274-0.734-0.411-1.561-0.411-2.479c0-0.908,0.137-1.73,0.411-2.467c0.274-0.734,0.661-1.359,1.16-1.869
			s1.102-0.904,1.808-1.184C164.037,190.004,164.822,189.865,165.686,189.865z M165.686,199.631c0.961,0,1.673-0.322,2.135-0.969
			c0.462-0.645,0.693-1.592,0.693-2.838s-0.231-2.197-0.693-2.85c-0.462-0.654-1.173-0.98-2.135-0.98
			c-0.976,0-1.699,0.328-2.168,0.986c-0.469,0.656-0.704,1.605-0.704,2.844s0.234,2.184,0.704,2.834
			C163.986,199.307,164.709,199.631,165.686,199.631z"/>
		<path fill="#FFFFFF" d="M176.331,184.863v16.74h-2.782v-16.74H176.331z"/>
		<path fill="#FFFFFF" d="M178.843,191.656c1.329-1.217,2.929-1.824,4.799-1.824c0.676,0,1.28,0.109,1.813,0.332
			c0.533,0.221,0.984,0.529,1.352,0.924c0.368,0.395,0.647,0.865,0.839,1.414c0.192,0.547,0.288,1.148,0.288,1.801v7.301h-1.262
			c-0.263,0-0.466-0.039-0.608-0.119c-0.143-0.078-0.255-0.238-0.338-0.479l-0.248-0.834c-0.293,0.264-0.578,0.494-0.856,0.693
			s-0.567,0.365-0.867,0.502c-0.301,0.135-0.622,0.238-0.963,0.309c-0.342,0.072-0.719,0.107-1.132,0.107
			c-0.488,0-0.938-0.066-1.352-0.197s-0.77-0.328-1.07-0.592c-0.3-0.262-0.533-0.59-0.698-0.979
			c-0.165-0.391-0.248-0.846-0.248-1.363c0-0.293,0.049-0.584,0.146-0.873s0.257-0.566,0.479-0.828
			c0.221-0.264,0.509-0.512,0.862-0.744c0.353-0.232,0.787-0.436,1.301-0.607c0.515-0.174,1.113-0.314,1.797-0.424
			c0.683-0.107,1.464-0.174,2.343-0.197v-0.676c0-0.773-0.166-1.346-0.496-1.717c-0.331-0.373-0.808-0.559-1.431-0.559
			c-0.451,0-0.824,0.053-1.121,0.158s-0.558,0.225-0.783,0.355c-0.226,0.131-0.43,0.25-0.614,0.354
			c-0.184,0.105-0.388,0.158-0.614,0.158c-0.195,0-0.36-0.051-0.496-0.152s-0.244-0.219-0.327-0.354L178.843,191.656z
			 M185.219,196.67c-0.804,0.037-1.479,0.105-2.028,0.207s-0.988,0.23-1.318,0.389c-0.331,0.158-0.567,0.342-0.71,0.553
			s-0.214,0.439-0.214,0.688c0,0.488,0.145,0.836,0.434,1.047s0.667,0.316,1.132,0.316c0.57,0,1.064-0.104,1.481-0.311
			c0.417-0.207,0.824-0.52,1.222-0.941V196.67z"/>
		<path fill="#FFFFFF" d="M192.417,185.314v3.244l-0.248,1.758c-0.06,0.33-0.158,0.584-0.293,0.76s-0.36,0.264-0.676,0.264
			c-0.278,0-0.492-0.088-0.642-0.264c-0.15-0.176-0.255-0.43-0.315-0.76l-0.248-1.758v-3.244H192.417z M196.563,185.314v3.244
			l-0.248,1.758c-0.061,0.33-0.158,0.584-0.293,0.76s-0.36,0.264-0.676,0.264c-0.278,0-0.492-0.088-0.642-0.264
			c-0.15-0.176-0.255-0.43-0.315-0.76l-0.248-1.758v-3.244H196.563z"/>
	</g>
</g>
<g>
	<g>
		<path fill="#FF2455" d="M35.851,346.984c-0.47,0.23-0.985,0.41-1.545,0.54c0.56,0.131,1.075,0.311,1.545,0.54l5.445,2.806
			c0.23,0.109,0.395,0.25,0.495,0.42c0.1,0.17,0.15,0.354,0.15,0.555v2.64l-11.895-6.21v-1.5l11.895-6.194v2.64
			c0,0.2-0.05,0.383-0.15,0.548c-0.1,0.165-0.265,0.308-0.495,0.427L35.851,346.984z"/>
		<path fill="#FF2455" d="M46.65,344.39c1.77-1.62,3.9-2.43,6.39-2.43c0.9,0,1.705,0.147,2.415,0.442s1.31,0.705,1.8,1.229
			c0.49,0.525,0.862,1.153,1.117,1.883c0.255,0.73,0.383,1.53,0.383,2.4v9.72h-1.68c-0.35,0-0.62-0.053-0.81-0.157
			c-0.19-0.105-0.34-0.317-0.45-0.638l-0.33-1.11c-0.39,0.351-0.771,0.658-1.14,0.923c-0.37,0.265-0.755,0.487-1.155,0.667
			c-0.4,0.181-0.827,0.317-1.282,0.413c-0.455,0.095-0.958,0.143-1.507,0.143c-0.65,0-1.25-0.088-1.8-0.263
			s-1.025-0.438-1.425-0.787c-0.4-0.351-0.71-0.785-0.93-1.306c-0.22-0.52-0.33-1.125-0.33-1.814c0-0.391,0.065-0.777,0.195-1.163
			c0.13-0.385,0.342-0.752,0.637-1.103c0.295-0.35,0.677-0.68,1.147-0.989c0.47-0.311,1.047-0.58,1.732-0.811
			c0.685-0.229,1.482-0.417,2.393-0.563c0.91-0.145,1.95-0.232,3.12-0.263v-0.899c0-1.03-0.22-1.793-0.66-2.288
			s-1.075-0.742-1.905-0.742c-0.6,0-1.098,0.07-1.493,0.21c-0.395,0.141-0.742,0.298-1.042,0.473
			c-0.3,0.175-0.572,0.332-0.817,0.473c-0.245,0.14-0.518,0.21-0.817,0.21c-0.26,0-0.48-0.067-0.66-0.203
			c-0.18-0.135-0.325-0.292-0.435-0.472L46.65,344.39z M55.14,351.064c-1.07,0.051-1.97,0.143-2.7,0.277
			c-0.73,0.136-1.315,0.308-1.755,0.518s-0.755,0.455-0.945,0.735s-0.285,0.585-0.285,0.915c0,0.65,0.192,1.115,0.578,1.395
			c0.385,0.28,0.887,0.421,1.507,0.421c0.76,0,1.417-0.138,1.973-0.413c0.555-0.274,1.097-0.692,1.627-1.252V351.064z"/>
		<path fill="#FF2455" d="M65.7,344.135c0.31-0.31,0.638-0.598,0.982-0.862c0.345-0.265,0.71-0.49,1.095-0.675
			c0.385-0.186,0.797-0.33,1.237-0.436c0.44-0.104,0.92-0.157,1.44-0.157c0.84,0,1.585,0.143,2.235,0.428
			c0.65,0.284,1.192,0.685,1.627,1.199c0.435,0.516,0.765,1.131,0.99,1.846c0.225,0.715,0.338,1.502,0.338,2.362v9.795H71.94v-9.795
			c0-0.939-0.215-1.667-0.645-2.183c-0.43-0.515-1.085-0.772-1.965-0.772c-0.64,0-1.24,0.146-1.8,0.435
			c-0.56,0.291-1.09,0.686-1.59,1.186v11.13h-3.705v-15.39H64.5c0.48,0,0.795,0.225,0.945,0.675L65.7,344.135z"/>
		<path fill="#FF2455" d="M85.965,342.005c1.14,0,2.177,0.185,3.112,0.555s1.735,0.896,2.4,1.575s1.178,1.51,1.538,2.49
			c0.36,0.979,0.54,2.075,0.54,3.285c0,1.22-0.18,2.319-0.54,3.3c-0.36,0.979-0.873,1.814-1.538,2.505
			c-0.665,0.689-1.465,1.22-2.4,1.59s-1.973,0.555-3.112,0.555c-1.15,0-2.195-0.185-3.135-0.555s-1.743-0.9-2.407-1.59
			c-0.666-0.69-1.18-1.525-1.545-2.505c-0.365-0.98-0.548-2.08-0.548-3.3c0-1.21,0.183-2.306,0.548-3.285
			c0.365-0.98,0.879-1.811,1.545-2.49c0.665-0.68,1.467-1.205,2.407-1.575S84.815,342.005,85.965,342.005z M85.965,355.01
			c1.28,0,2.228-0.43,2.842-1.29c0.615-0.86,0.922-2.12,0.922-3.78c0-1.659-0.307-2.925-0.922-3.795
			c-0.615-0.87-1.563-1.305-2.842-1.305c-1.3,0-2.263,0.438-2.888,1.313s-0.938,2.138-0.938,3.787c0,1.65,0.313,2.908,0.938,3.772
			C83.703,354.577,84.665,355.01,85.965,355.01z M91.155,335.705l-3.705,3.915c-0.19,0.2-0.373,0.337-0.547,0.412
			c-0.175,0.075-0.403,0.112-0.683,0.112H84l2.13-3.645c0.15-0.26,0.325-0.458,0.525-0.593c0.2-0.135,0.5-0.202,0.9-0.202H91.155z"
			/>
		<path fill="#FF2455" d="M99.854,344.135c0.31-0.31,0.638-0.598,0.982-0.862c0.345-0.265,0.71-0.49,1.095-0.675
			c0.385-0.186,0.797-0.33,1.237-0.436c0.44-0.104,0.92-0.157,1.44-0.157c0.84,0,1.585,0.143,2.235,0.428
			c0.65,0.284,1.192,0.685,1.627,1.199c0.435,0.516,0.765,1.131,0.99,1.846c0.225,0.715,0.338,1.502,0.338,2.362v9.795h-3.705
			v-9.795c0-0.939-0.215-1.667-0.645-2.183c-0.43-0.515-1.085-0.772-1.965-0.772c-0.64,0-1.24,0.146-1.8,0.435
			c-0.56,0.291-1.09,0.686-1.59,1.186v11.13H96.39v-15.39h2.265c0.48,0,0.795,0.225,0.945,0.675L99.854,344.135z"/>
		<path fill="#FF2455" d="M117.66,337.76c0,0.32-0.065,0.62-0.195,0.9c-0.13,0.279-0.302,0.524-0.518,0.734
			c-0.215,0.21-0.467,0.378-0.757,0.503s-0.6,0.188-0.93,0.188c-0.32,0-0.622-0.063-0.907-0.188s-0.533-0.293-0.743-0.503
			s-0.377-0.455-0.502-0.734c-0.125-0.28-0.188-0.58-0.188-0.9c0-0.33,0.063-0.64,0.188-0.93s0.292-0.54,0.502-0.75
			s0.458-0.378,0.743-0.503s0.587-0.188,0.907-0.188c0.33,0,0.64,0.063,0.93,0.188s0.542,0.293,0.757,0.503
			c0.215,0.21,0.388,0.46,0.518,0.75S117.66,337.43,117.66,337.76z M117.149,342.245v15.39h-3.72v-15.39H117.149z"/>
		<path fill="#FF2455" d="M120.93,357.635v-15.39h2.265c0.48,0,0.795,0.225,0.945,0.675l0.24,1.14c0.27-0.3,0.553-0.575,0.848-0.825
			c0.295-0.249,0.61-0.465,0.945-0.645s0.695-0.322,1.08-0.428c0.385-0.104,0.808-0.157,1.268-0.157c0.97,0,1.768,0.263,2.393,0.787
			c0.625,0.525,1.092,1.223,1.402,2.093c0.24-0.51,0.54-0.947,0.9-1.313c0.36-0.365,0.755-0.662,1.185-0.893
			c0.43-0.229,0.888-0.399,1.373-0.51s0.973-0.165,1.462-0.165c0.85,0,1.605,0.13,2.265,0.39c0.66,0.261,1.215,0.641,1.665,1.141
			c0.45,0.5,0.792,1.109,1.027,1.83c0.235,0.72,0.353,1.545,0.353,2.475v9.795h-3.705v-9.795c0-0.98-0.215-1.718-0.645-2.213
			c-0.43-0.495-1.06-0.742-1.89-0.742c-0.38,0-0.733,0.065-1.058,0.195c-0.325,0.13-0.61,0.317-0.855,0.563
			s-0.438,0.553-0.578,0.922c-0.14,0.37-0.21,0.795-0.21,1.275v9.795h-3.72v-9.795c0-1.03-0.208-1.78-0.623-2.25
			c-0.415-0.47-1.022-0.705-1.823-0.705c-0.54,0-1.042,0.133-1.507,0.397s-0.897,0.628-1.297,1.088v11.265H120.93z"/>
		<path fill="#FF2455" d="M145.695,344.39c1.77-1.62,3.9-2.43,6.39-2.43c0.9,0,1.705,0.147,2.415,0.442s1.31,0.705,1.8,1.229
			c0.49,0.525,0.862,1.153,1.117,1.883c0.255,0.73,0.383,1.53,0.383,2.4v9.72h-1.68c-0.35,0-0.62-0.053-0.81-0.157
			c-0.19-0.105-0.34-0.317-0.45-0.638l-0.33-1.11c-0.39,0.351-0.771,0.658-1.14,0.923c-0.37,0.265-0.755,0.487-1.155,0.667
			c-0.4,0.181-0.827,0.317-1.282,0.413c-0.455,0.095-0.958,0.143-1.507,0.143c-0.65,0-1.25-0.088-1.8-0.263
			s-1.025-0.438-1.425-0.787c-0.4-0.351-0.71-0.785-0.93-1.306c-0.22-0.52-0.33-1.125-0.33-1.814c0-0.391,0.065-0.777,0.195-1.163
			c0.13-0.385,0.342-0.752,0.637-1.103c0.295-0.35,0.677-0.68,1.147-0.989c0.47-0.311,1.047-0.58,1.732-0.811
			c0.685-0.229,1.482-0.417,2.393-0.563c0.91-0.145,1.95-0.232,3.12-0.263v-0.899c0-1.03-0.22-1.793-0.66-2.288
			s-1.075-0.742-1.905-0.742c-0.6,0-1.098,0.07-1.493,0.21c-0.395,0.141-0.742,0.298-1.042,0.473
			c-0.3,0.175-0.572,0.332-0.817,0.473c-0.245,0.14-0.518,0.21-0.817,0.21c-0.26,0-0.48-0.067-0.66-0.203
			c-0.18-0.135-0.325-0.292-0.435-0.472L145.695,344.39z M154.185,351.064c-1.07,0.051-1.97,0.143-2.7,0.277
			c-0.73,0.136-1.315,0.308-1.755,0.518s-0.755,0.455-0.945,0.735s-0.285,0.585-0.285,0.915c0,0.65,0.192,1.115,0.578,1.395
			c0.385,0.28,0.887,0.421,1.507,0.421c0.76,0,1.417-0.138,1.973-0.413c0.555-0.274,1.097-0.692,1.627-1.252V351.064z"/>
		<path fill="#FF2455" d="M174.584,346.774v1.5l-11.895,6.21v-2.64c0-0.2,0.05-0.385,0.15-0.555c0.1-0.17,0.265-0.311,0.495-0.42
			l5.445-2.806c0.47-0.229,0.985-0.409,1.545-0.54c-0.56-0.13-1.075-0.31-1.545-0.54l-5.445-2.79
			c-0.23-0.119-0.395-0.262-0.495-0.427c-0.1-0.165-0.15-0.348-0.15-0.548v-2.64L174.584,346.774z"/>
	</g>
</g>
<g>
	<g>
		<g>
			<g>
				<g>
					
						<line fill-rule="evenodd" clip-rule="evenodd" fill="none" stroke="#337C98" stroke-width="8.3" stroke-linecap="round" stroke-linejoin="round" stroke-miterlimit="10" x1="131.236" y1="262.17" x2="129.24" y2="266.356"/>
				</g>
				<g>
					
						<line fill-rule="evenodd" clip-rule="evenodd" fill="none" stroke="#337C98" stroke-width="8.3" stroke-linecap="round" stroke-linejoin="round" stroke-miterlimit="10" x1="124.138" y1="277.055" x2="122.141" y2="281.241"/>
				</g>
				<g>
					
						<line fill-rule="evenodd" clip-rule="evenodd" fill="none" stroke="#337C98" stroke-width="8.3" stroke-linecap="round" stroke-linejoin="round" stroke-miterlimit="10" x1="117.039" y1="291.94" x2="115.042" y2="296.127"/>
				</g>
				<g>
					
						<line fill-rule="evenodd" clip-rule="evenodd" fill="none" stroke="#337C98" stroke-width="8.3" stroke-linecap="round" stroke-linejoin="round" stroke-miterlimit="10" x1="109.94" y1="306.825" x2="107.944" y2="311.012"/>
				</g>
			</g>
		</g>
	</g>
	
		<polyline fill="none" stroke="#337C98" stroke-width="10" stroke-linecap="round" stroke-linejoin="round" stroke-miterlimit="10" points="
		124.646,249.868 140.12,243.822 145.162,259.652 	"/>
</g>
</svg>
