<?xml version="1.0" encoding="utf-8"?>
<!-- Generator: Adobe Illustrator 16.0.0, SVG Export Plug-In . SVG Version: 6.00 Build 0)  -->
<!DOCTYPE svg PUBLIC "-//W3C//DTD SVG 1.1//EN" "http://www.w3.org/Graphics/SVG/1.1/DTD/svg11.dtd">
<svg version="1.1" id="Layer_1" xmlns="http://www.w3.org/2000/svg" xmlns:xlink="http://www.w3.org/1999/xlink" x="0px" y="0px"
	 width="440.584px" height="392.591px" viewBox="0 0 440.584 392.591" enable-background="new 0 0 440.584 392.591"
	 xml:space="preserve">
<circle fill="#72B5CF" cx="218.244" cy="199.263" r="173.764"/>
<g>
	<g>
		<path fill="#FF2455" d="M44.758,348.429v6.422h8.13v3.225h-8.13v8.834h-4.05V345.22h13.68v3.209H44.758z"/>
		<path fill="#FF2455" d="M61.423,347.034c0,0.32-0.065,0.621-0.195,0.9s-0.302,0.525-0.518,0.734
			c-0.215,0.211-0.467,0.379-0.757,0.504s-0.6,0.188-0.93,0.188c-0.32,0-0.622-0.063-0.907-0.188s-0.533-0.293-0.743-0.504
			c-0.21-0.209-0.377-0.455-0.502-0.734s-0.188-0.58-0.188-0.9c0-0.33,0.063-0.639,0.188-0.93c0.125-0.289,0.292-0.539,0.502-0.75
			c0.21-0.209,0.458-0.377,0.743-0.502s0.587-0.188,0.907-0.188c0.33,0,0.64,0.063,0.93,0.188s0.542,0.293,0.757,0.502
			c0.215,0.211,0.388,0.461,0.518,0.75C61.358,346.396,61.423,346.704,61.423,347.034z M60.913,351.521v15.389h-3.72v-15.389H60.913
			z"/>
		<path fill="#FF2455" d="M69.823,367.149c-1.34,0-2.368-0.377-3.083-1.133c-0.715-0.754-1.072-1.797-1.072-3.127v-8.596h-1.575
			c-0.2,0-0.37-0.064-0.51-0.193c-0.14-0.131-0.21-0.326-0.21-0.586v-1.471l2.475-0.404l0.78-4.199
			c0.05-0.201,0.145-0.355,0.285-0.465c0.14-0.111,0.32-0.166,0.54-0.166h1.92v4.846h4.11v2.639h-4.11v8.34
			c0,0.48,0.118,0.855,0.353,1.125c0.235,0.271,0.558,0.406,0.968,0.406c0.23,0,0.422-0.027,0.578-0.082
			c0.155-0.057,0.29-0.113,0.405-0.174c0.115-0.059,0.217-0.117,0.308-0.172c0.09-0.055,0.18-0.082,0.27-0.082
			c0.11,0,0.2,0.027,0.27,0.082c0.07,0.055,0.145,0.137,0.225,0.248l1.11,1.799c-0.54,0.451-1.16,0.791-1.86,1.02
			C71.298,367.034,70.573,367.149,69.823,367.149z"/>
		<path fill="#FF2455" d="M82.543,351.28c1.14,0,2.177,0.184,3.112,0.555c0.935,0.369,1.735,0.895,2.4,1.574s1.178,1.51,1.538,2.49
			s0.54,2.076,0.54,3.285c0,1.221-0.18,2.32-0.54,3.301c-0.36,0.979-0.873,1.814-1.538,2.504s-1.465,1.221-2.4,1.59
			c-0.935,0.371-1.973,0.555-3.112,0.555c-1.15,0-2.195-0.184-3.135-0.555c-0.94-0.369-1.743-0.9-2.407-1.59
			c-0.666-0.689-1.18-1.525-1.545-2.504c-0.365-0.98-0.548-2.08-0.548-3.301c0-1.209,0.183-2.305,0.548-3.285
			c0.365-0.98,0.879-1.811,1.545-2.49c0.665-0.68,1.467-1.205,2.407-1.574C80.348,351.464,81.393,351.28,82.543,351.28z
			 M82.543,364.284c1.28,0,2.228-0.43,2.842-1.289c0.615-0.861,0.922-2.121,0.922-3.781c0-1.658-0.307-2.924-0.922-3.795
			c-0.615-0.869-1.563-1.305-2.842-1.305c-1.3,0-2.263,0.438-2.888,1.313s-0.938,2.139-0.938,3.787c0,1.65,0.313,2.908,0.938,3.773
			S81.243,364.284,82.543,364.284z"/>
	</g>
</g>
<g>
	<g>
		<path fill="#FFFFFF" d="M178.021,167.968c-0.121,0.48-0.179,0.873-0.175,1.176c0.004,0.305,0.051,0.545,0.141,0.721
			c0.09,0.178,0.218,0.299,0.383,0.367c0.165,0.068,0.353,0.102,0.563,0.102c0.315,0,0.614-0.1,0.896-0.299
			c0.282-0.199,0.528-0.479,0.738-0.84c0.21-0.359,0.377-0.787,0.501-1.283s0.186-1.037,0.186-1.623
			c0-0.977-0.152-1.836-0.457-2.578c-0.304-0.744-0.73-1.365-1.278-1.865c-0.548-0.5-1.2-0.875-1.955-1.127
			s-1.583-0.377-2.484-0.377c-0.991,0-1.908,0.186-2.749,0.559c-0.841,0.371-1.571,0.879-2.191,1.525s-1.104,1.408-1.453,2.287
			s-0.524,1.824-0.524,2.838c0,1.232,0.191,2.314,0.575,3.25c0.383,0.936,0.908,1.717,1.577,2.344s1.455,1.098,2.36,1.414
			c0.905,0.314,1.883,0.473,2.935,0.473c0.578,0,1.119-0.031,1.622-0.096c0.503-0.064,0.965-0.15,1.385-0.26
			s0.804-0.232,1.149-0.371c0.346-0.139,0.654-0.287,0.924-0.445c0.195-0.113,0.368-0.146,0.518-0.102
			c0.15,0.045,0.259,0.158,0.327,0.338l0.383,1.004c-0.781,0.51-1.694,0.926-2.737,1.25c-1.044,0.322-2.234,0.484-3.571,0.484
			c-1.359,0-2.618-0.215-3.774-0.643c-1.157-0.428-2.157-1.043-3.002-1.842c-0.845-0.801-1.506-1.773-1.983-2.924
			c-0.477-1.148-0.715-2.439-0.715-3.875c0-0.803,0.104-1.584,0.31-2.342c0.207-0.76,0.501-1.471,0.884-2.135
			c0.383-0.666,0.845-1.275,1.385-1.832c0.541-0.555,1.142-1.031,1.803-1.43c0.661-0.398,1.376-0.707,2.146-0.93
			c0.77-0.221,1.575-0.332,2.416-0.332c1.066,0,2.09,0.178,3.07,0.535s1.847,0.867,2.602,1.531c0.755,0.666,1.357,1.477,1.808,2.434
			s0.676,2.037,0.676,3.238c0,0.805-0.118,1.557-0.355,2.26c-0.236,0.701-0.567,1.313-0.991,1.83s-0.924,0.926-1.498,1.223
			c-0.575,0.297-1.2,0.445-1.875,0.445c-0.519,0-0.977-0.121-1.375-0.361s-0.672-0.627-0.822-1.16
			c-0.443,0.541-0.913,0.928-1.408,1.16s-1.033,0.35-1.611,0.35c-0.473,0-0.884-0.084-1.233-0.248
			c-0.349-0.166-0.642-0.393-0.879-0.682c-0.236-0.289-0.413-0.631-0.529-1.025c-0.117-0.395-0.174-0.824-0.174-1.289
			c0-0.428,0.054-0.863,0.163-1.301c0.109-0.439,0.272-0.865,0.49-1.273c0.218-0.41,0.49-0.793,0.816-1.148
			c0.327-0.357,0.71-0.67,1.149-0.936c0.439-0.268,0.935-0.477,1.487-0.631c0.552-0.154,1.158-0.23,1.819-0.23
			c0.586,0,1.085,0.045,1.499,0.135s0.811,0.217,1.194,0.383L178.021,167.968z M176.703,165.083
			c-0.24-0.045-0.488-0.066-0.743-0.066c-0.466,0-0.901,0.1-1.307,0.303c-0.406,0.203-0.757,0.477-1.054,0.822
			c-0.296,0.346-0.531,0.742-0.704,1.189c-0.173,0.447-0.259,0.91-0.259,1.391s0.103,0.855,0.31,1.121s0.509,0.4,0.907,0.4
			c0.195,0,0.392-0.031,0.591-0.09c0.199-0.061,0.389-0.168,0.569-0.322s0.345-0.357,0.496-0.613
			c0.15-0.256,0.274-0.574,0.372-0.957L176.703,165.083z"/>
		<path fill="#FFFFFF" d="M186.301,174.118v-9.463l-1.003-0.158c-0.218-0.045-0.392-0.121-0.523-0.23
			c-0.132-0.109-0.197-0.266-0.197-0.467v-1.139h1.724v-0.855c0-0.662,0.099-1.254,0.298-1.779c0.199-0.527,0.484-0.973,0.856-1.342
			c0.372-0.367,0.824-0.648,1.357-0.844s1.134-0.293,1.803-0.293c0.533,0,1.029,0.07,1.487,0.213l-0.057,1.396
			c-0.007,0.105-0.038,0.191-0.09,0.254c-0.053,0.064-0.122,0.113-0.208,0.146s-0.186,0.057-0.298,0.068
			c-0.113,0.012-0.233,0.016-0.36,0.016c-0.331,0-0.625,0.037-0.885,0.107c-0.259,0.072-0.479,0.195-0.659,0.373
			c-0.18,0.176-0.317,0.408-0.411,0.697c-0.094,0.289-0.141,0.648-0.141,1.076v0.766H192v1.982h-2.917v9.475H186.301z"/>
		<path fill="#FFFFFF" d="M195.403,168.688c0.045,0.594,0.15,1.105,0.315,1.537c0.165,0.432,0.383,0.789,0.653,1.07
			s0.591,0.492,0.963,0.631c0.372,0.139,0.783,0.209,1.234,0.209c0.45,0,0.839-0.053,1.166-0.158s0.612-0.221,0.856-0.35
			c0.244-0.127,0.458-0.244,0.642-0.35c0.184-0.104,0.362-0.156,0.535-0.156c0.232,0,0.405,0.086,0.518,0.258l0.8,1.014
			c-0.308,0.361-0.653,0.664-1.037,0.908c-0.383,0.244-0.783,0.439-1.2,0.586c-0.417,0.145-0.841,0.248-1.273,0.309
			c-0.432,0.061-0.85,0.09-1.256,0.09c-0.804,0-1.551-0.133-2.242-0.398c-0.691-0.268-1.292-0.662-1.802-1.184
			s-0.913-1.168-1.206-1.938c-0.292-0.77-0.439-1.662-0.439-2.676c0-0.789,0.127-1.529,0.383-2.225s0.621-1.299,1.098-1.814
			c0.477-0.514,1.059-0.922,1.746-1.221c0.688-0.301,1.462-0.451,2.326-0.451c0.729,0,1.401,0.117,2.017,0.35
			s1.145,0.572,1.588,1.02c0.443,0.447,0.79,0.994,1.042,1.645c0.251,0.648,0.377,1.391,0.377,2.225c0,0.42-0.045,0.703-0.135,0.85
			c-0.09,0.146-0.263,0.221-0.518,0.221H195.403z M200.708,167.009c0-0.359-0.051-0.699-0.152-1.02
			c-0.102-0.318-0.253-0.598-0.457-0.838c-0.203-0.24-0.46-0.43-0.771-0.568c-0.312-0.141-0.674-0.209-1.087-0.209
			c-0.804,0-1.437,0.229-1.898,0.688c-0.462,0.457-0.756,1.107-0.884,1.947H200.708z"/>
		<path fill="#FFFFFF" d="M208.109,157.378v16.74h-2.782v-16.74H208.109z"/>
		<path fill="#FFFFFF" d="M214.158,159.192c0,0.24-0.049,0.465-0.146,0.676c-0.098,0.209-0.227,0.395-0.389,0.551
			c-0.162,0.158-0.351,0.285-0.569,0.379s-0.451,0.141-0.698,0.141c-0.241,0-0.468-0.047-0.682-0.141s-0.4-0.221-0.558-0.379
			c-0.158-0.156-0.284-0.342-0.377-0.551c-0.094-0.211-0.141-0.436-0.141-0.676c0-0.248,0.047-0.48,0.141-0.699
			c0.094-0.217,0.22-0.406,0.377-0.563c0.158-0.158,0.344-0.283,0.558-0.377s0.441-0.143,0.682-0.143
			c0.248,0,0.48,0.049,0.698,0.143s0.407,0.219,0.569,0.377c0.162,0.156,0.291,0.346,0.389,0.563
			C214.109,158.712,214.158,158.944,214.158,159.192z M213.775,162.56v11.559h-2.794V162.56H213.775z"/>
		<path fill="#FFFFFF" d="M224.894,165.005c-0.083,0.105-0.163,0.188-0.242,0.248c-0.079,0.059-0.193,0.09-0.343,0.09
			c-0.143,0-0.282-0.043-0.417-0.131c-0.135-0.086-0.297-0.184-0.484-0.291c-0.188-0.109-0.411-0.207-0.67-0.293
			c-0.259-0.088-0.58-0.131-0.963-0.131c-0.488,0-0.917,0.088-1.284,0.266c-0.368,0.176-0.674,0.43-0.918,0.76
			c-0.244,0.33-0.427,0.73-0.546,1.199c-0.121,0.471-0.181,1.002-0.181,1.594c0,0.617,0.066,1.164,0.197,1.646
			c0.131,0.48,0.321,0.883,0.569,1.211c0.248,0.326,0.548,0.574,0.901,0.742c0.353,0.17,0.751,0.254,1.194,0.254
			c0.443,0,0.802-0.055,1.076-0.164c0.274-0.107,0.505-0.229,0.692-0.359c0.188-0.131,0.351-0.252,0.49-0.361
			c0.139-0.107,0.294-0.162,0.467-0.162c0.226,0,0.395,0.086,0.507,0.258l0.8,1.014c-0.308,0.361-0.643,0.664-1.003,0.908
			s-0.734,0.439-1.121,0.586c-0.387,0.145-0.785,0.248-1.194,0.309s-0.816,0.09-1.222,0.09c-0.713,0-1.385-0.133-2.016-0.398
			c-0.631-0.268-1.183-0.656-1.656-1.166c-0.473-0.512-0.847-1.137-1.121-1.877c-0.274-0.738-0.411-1.582-0.411-2.529
			c0-0.848,0.122-1.635,0.366-2.359c0.244-0.725,0.603-1.352,1.076-1.881s1.059-0.945,1.757-1.244
			c0.698-0.301,1.502-0.451,2.411-0.451c0.863,0,1.62,0.139,2.27,0.416c0.65,0.279,1.234,0.676,1.752,1.195L224.894,165.005z"/>
		<path fill="#FFFFFF" d="M230.74,159.192c0,0.24-0.049,0.465-0.146,0.676c-0.098,0.209-0.227,0.395-0.389,0.551
			c-0.162,0.158-0.351,0.285-0.569,0.379s-0.451,0.141-0.698,0.141c-0.241,0-0.468-0.047-0.682-0.141s-0.4-0.221-0.558-0.379
			c-0.158-0.156-0.284-0.342-0.377-0.551c-0.094-0.211-0.141-0.436-0.141-0.676c0-0.248,0.047-0.48,0.141-0.699
			c0.094-0.217,0.22-0.406,0.377-0.563c0.158-0.158,0.344-0.283,0.558-0.377s0.441-0.143,0.682-0.143
			c0.248,0,0.48,0.049,0.698,0.143s0.407,0.219,0.569,0.377c0.162,0.156,0.291,0.346,0.389,0.563
			C230.691,158.712,230.74,158.944,230.74,159.192z M230.357,162.56v11.559h-2.794V162.56H230.357z"/>
		<path fill="#FFFFFF" d="M243.232,157.378v16.74h-1.701c-0.368,0-0.601-0.17-0.699-0.508l-0.236-1.115
			c-0.466,0.533-1.001,0.965-1.605,1.295c-0.604,0.332-1.309,0.496-2.112,0.496c-0.631,0-1.209-0.131-1.735-0.395
			c-0.526-0.262-0.979-0.643-1.357-1.143c-0.379-0.5-0.672-1.117-0.879-1.854s-0.31-1.576-0.31-2.523
			c0-0.855,0.116-1.652,0.349-2.387c0.233-0.736,0.567-1.375,1.002-1.916s0.958-0.963,1.566-1.268
			c0.608-0.303,1.292-0.455,2.05-0.455c0.646,0,1.198,0.102,1.656,0.303c0.458,0.203,0.868,0.479,1.228,0.822v-6.094H243.232z
			 M240.45,165.511c-0.315-0.383-0.659-0.652-1.031-0.811s-0.771-0.236-1.2-0.236c-0.421,0-0.8,0.078-1.138,0.236
			s-0.627,0.396-0.868,0.715c-0.24,0.32-0.424,0.725-0.552,1.217c-0.128,0.492-0.191,1.072-0.191,1.74
			c0,0.676,0.054,1.25,0.163,1.719s0.265,0.852,0.468,1.148c0.203,0.297,0.451,0.512,0.743,0.643c0.293,0.131,0.62,0.197,0.98,0.197
			c0.579,0,1.07-0.121,1.476-0.361c0.405-0.24,0.789-0.582,1.149-1.025V165.511z"/>
		<path fill="#FFFFFF" d="M245.71,164.171c1.329-1.217,2.929-1.824,4.799-1.824c0.676,0,1.28,0.109,1.813,0.332
			c0.533,0.221,0.984,0.529,1.352,0.924c0.368,0.395,0.647,0.865,0.839,1.414c0.192,0.547,0.288,1.148,0.288,1.801v7.301h-1.262
			c-0.263,0-0.466-0.039-0.608-0.119c-0.143-0.078-0.255-0.238-0.338-0.479l-0.248-0.834c-0.293,0.264-0.578,0.494-0.856,0.693
			s-0.567,0.365-0.867,0.502c-0.301,0.135-0.622,0.238-0.963,0.309c-0.342,0.072-0.719,0.107-1.132,0.107
			c-0.488,0-0.938-0.066-1.352-0.197s-0.77-0.328-1.07-0.592c-0.3-0.262-0.533-0.59-0.698-0.979
			c-0.165-0.391-0.248-0.846-0.248-1.363c0-0.293,0.049-0.584,0.146-0.873s0.257-0.566,0.479-0.828
			c0.221-0.264,0.509-0.512,0.862-0.744c0.353-0.232,0.787-0.436,1.301-0.607c0.515-0.174,1.113-0.314,1.797-0.424
			c0.683-0.107,1.464-0.174,2.343-0.197v-0.676c0-0.773-0.166-1.346-0.496-1.717c-0.331-0.373-0.808-0.559-1.431-0.559
			c-0.451,0-0.824,0.053-1.121,0.158s-0.558,0.225-0.783,0.355c-0.226,0.131-0.43,0.25-0.614,0.354
			c-0.184,0.105-0.388,0.158-0.614,0.158c-0.195,0-0.36-0.051-0.496-0.152s-0.244-0.219-0.327-0.354L245.71,164.171z
			 M252.086,169.185c-0.804,0.037-1.479,0.105-2.028,0.207s-0.988,0.23-1.318,0.389c-0.331,0.158-0.567,0.342-0.71,0.553
			s-0.214,0.439-0.214,0.688c0,0.488,0.145,0.836,0.434,1.047s0.667,0.316,1.132,0.316c0.57,0,1.064-0.104,1.481-0.311
			c0.417-0.207,0.824-0.52,1.222-0.941V169.185z"/>
		<path fill="#FFFFFF" d="M267.451,157.378v16.74h-1.701c-0.368,0-0.601-0.17-0.699-0.508l-0.236-1.115
			c-0.466,0.533-1.001,0.965-1.605,1.295c-0.604,0.332-1.309,0.496-2.112,0.496c-0.631,0-1.209-0.131-1.735-0.395
			c-0.526-0.262-0.979-0.643-1.357-1.143c-0.379-0.5-0.672-1.117-0.879-1.854s-0.31-1.576-0.31-2.523
			c0-0.855,0.116-1.652,0.349-2.387c0.233-0.736,0.567-1.375,1.002-1.916s0.958-0.963,1.566-1.268
			c0.608-0.303,1.292-0.455,2.05-0.455c0.646,0,1.198,0.102,1.656,0.303c0.458,0.203,0.868,0.479,1.228,0.822v-6.094H267.451z
			 M264.669,165.511c-0.315-0.383-0.659-0.652-1.031-0.811s-0.771-0.236-1.2-0.236c-0.421,0-0.8,0.078-1.138,0.236
			s-0.627,0.396-0.868,0.715c-0.24,0.32-0.424,0.725-0.552,1.217c-0.128,0.492-0.191,1.072-0.191,1.74
			c0,0.676,0.054,1.25,0.163,1.719s0.265,0.852,0.468,1.148c0.203,0.297,0.451,0.512,0.743,0.643c0.293,0.131,0.62,0.197,0.98,0.197
			c0.579,0,1.07-0.121,1.476-0.361c0.405-0.24,0.789-0.582,1.149-1.025V165.511z"/>
	</g>
</g>
<g>
	
		<line fill="none" stroke="#337C98" stroke-width="10" stroke-linecap="round" stroke-linejoin="round" stroke-miterlimit="10" x1="86.147" y1="255.964" x2="66.768" y2="322.988"/>
	
		<polyline fill="none" stroke="#337C98" stroke-width="10" stroke-linecap="round" stroke-linejoin="round" stroke-miterlimit="10" points="
		73.485,258.841 87.769,250.354 95.32,265.153 	"/>
</g>
<g>
	<circle fill="#337C98" cx="108.742" cy="199.384" r="43.163"/>
</g>
<g>
	<circle fill="#337C98" cx="327.744" cy="199.384" r="43.163"/>
	<g>
		<path fill="#FFFFFF" d="M319.803,203.794v2.084h-9.012v-2.084h3.301v-9.496c0-0.376,0.011-0.763,0.033-1.16l-2.343,1.96
			c-0.136,0.105-0.269,0.171-0.399,0.197c-0.133,0.026-0.256,0.028-0.373,0.006c-0.115-0.023-0.219-0.063-0.309-0.119
			c-0.091-0.056-0.158-0.118-0.203-0.186l-0.879-1.205l4.968-4.225h2.286v14.228H319.803z"/>
		<path fill="#FFFFFF" d="M333.715,197.733c0,1.42-0.152,2.653-0.457,3.7c-0.304,1.048-0.725,1.914-1.262,2.597
			c-0.537,0.684-1.172,1.192-1.903,1.526c-0.732,0.334-1.522,0.502-2.371,0.502s-1.636-0.168-2.36-0.502s-1.354-0.843-1.887-1.526
			c-0.533-0.683-0.95-1.549-1.25-2.597c-0.301-1.047-0.451-2.28-0.451-3.7c0-1.427,0.15-2.662,0.451-3.706
			c0.3-1.044,0.717-1.907,1.25-2.591s1.162-1.192,1.887-1.526s1.512-0.501,2.36-0.501s1.639,0.167,2.371,0.501
			c0.731,0.334,1.366,0.843,1.903,1.526s0.958,1.547,1.262,2.591C333.563,195.071,333.715,196.307,333.715,197.733z
			 M330.842,197.733c0-1.179-0.086-2.155-0.26-2.929c-0.172-0.773-0.402-1.39-0.691-1.848c-0.29-0.458-0.622-0.779-0.998-0.963
			c-0.375-0.184-0.766-0.276-1.171-0.276c-0.398,0-0.783,0.093-1.155,0.276c-0.371,0.184-0.699,0.505-0.985,0.963
			c-0.285,0.458-0.513,1.074-0.681,1.848c-0.17,0.773-0.254,1.75-0.254,2.929s0.084,2.155,0.254,2.929
			c0.168,0.773,0.396,1.39,0.681,1.848c0.286,0.458,0.614,0.779,0.985,0.963c0.372,0.185,0.757,0.276,1.155,0.276
			c0.405,0,0.796-0.092,1.171-0.276c0.376-0.184,0.708-0.505,0.998-0.963c0.289-0.458,0.52-1.074,0.691-1.848
			C330.756,199.889,330.842,198.912,330.842,197.733z"/>
		<path fill="#FFFFFF" d="M346.781,197.733c0,1.42-0.152,2.653-0.456,3.7c-0.304,1.048-0.726,1.914-1.262,2.597
			c-0.537,0.684-1.172,1.192-1.903,1.526c-0.732,0.334-1.523,0.502-2.371,0.502c-0.85,0-1.637-0.168-2.361-0.502
			s-1.354-0.843-1.887-1.526c-0.533-0.683-0.949-1.549-1.25-2.597c-0.301-1.047-0.45-2.28-0.45-3.7c0-1.427,0.149-2.662,0.45-3.706
			s0.717-1.907,1.25-2.591s1.162-1.192,1.887-1.526s1.512-0.501,2.361-0.501c0.848,0,1.639,0.167,2.371,0.501
			c0.731,0.334,1.366,0.843,1.903,1.526c0.536,0.684,0.958,1.547,1.262,2.591S346.781,196.307,346.781,197.733z M343.908,197.733
			c0-1.179-0.086-2.155-0.259-2.929s-0.403-1.39-0.692-1.848s-0.621-0.779-0.997-0.963s-0.767-0.276-1.171-0.276
			c-0.398,0-0.783,0.093-1.155,0.276s-0.7,0.505-0.985,0.963s-0.513,1.074-0.682,1.848c-0.17,0.773-0.254,1.75-0.254,2.929
			s0.084,2.155,0.254,2.929c0.169,0.773,0.396,1.39,0.682,1.848s0.613,0.779,0.985,0.963c0.372,0.185,0.757,0.276,1.155,0.276
			c0.404,0,0.795-0.092,1.171-0.276c0.376-0.184,0.708-0.505,0.997-0.963s0.52-1.074,0.692-1.848S343.908,198.912,343.908,197.733z"
			/>
	</g>
</g>
<g>
	
		<line fill="none" stroke="#337C98" stroke-width="10" stroke-linecap="round" stroke-linejoin="round" stroke-miterlimit="10" x1="268.354" y1="199.263" x2="167.584" y2="199.263"/>
	
		<polyline fill="none" stroke="#337C98" stroke-width="10" stroke-linecap="round" stroke-linejoin="round" stroke-miterlimit="10" points="
		262.073,187.897 274.191,199.263 262.073,210.628 	"/>
</g>
</svg>
