<?xml version="1.0" encoding="utf-8"?>
<!-- Generator: Adobe Illustrator 16.0.0, SVG Export Plug-In . SVG Version: 6.00 Build 0)  -->
<!DOCTYPE svg PUBLIC "-//W3C//DTD SVG 1.1//EN" "http://www.w3.org/Graphics/SVG/1.1/DTD/svg11.dtd">
<svg version="1.1" id="Layer_1" xmlns="http://www.w3.org/2000/svg" xmlns:xlink="http://www.w3.org/1999/xlink" x="0px" y="0px"
	 width="440.584px" height="392.591px" viewBox="0 0 440.584 392.591" enable-background="new 0 0 440.584 392.591"
	 xml:space="preserve">
<circle fill="#72B5CF" cx="218.243" cy="199.263" r="120.669"/>
<g>
	<g>
		<path fill="#FF2455" d="M62.414,344.521c-0.1,0.16-0.205,0.271-0.315,0.336c-0.11,0.066-0.25,0.098-0.42,0.098
			c-0.18,0-0.373-0.049-0.577-0.15c-0.205-0.1-0.443-0.211-0.713-0.336s-0.577-0.238-0.922-0.338c-0.345-0.1-0.752-0.15-1.223-0.15
			c-0.73,0-1.302,0.156-1.717,0.465c-0.415,0.311-0.623,0.715-0.623,1.215c0,0.33,0.107,0.607,0.323,0.832
			c0.215,0.227,0.5,0.424,0.855,0.594c0.354,0.17,0.757,0.322,1.208,0.457c0.45,0.135,0.907,0.283,1.372,0.443
			c0.465,0.16,0.923,0.342,1.373,0.547c0.45,0.205,0.853,0.465,1.208,0.779c0.355,0.316,0.64,0.693,0.855,1.133
			c0.215,0.441,0.323,0.971,0.323,1.59c0,0.74-0.133,1.424-0.397,2.049c-0.265,0.625-0.658,1.164-1.178,1.619
			s-1.163,0.811-1.927,1.064c-0.765,0.256-1.648,0.383-2.647,0.383c-0.53,0-1.048-0.047-1.553-0.143s-0.99-0.227-1.455-0.396
			c-0.465-0.17-0.895-0.371-1.29-0.602c-0.395-0.229-0.742-0.479-1.042-0.75l0.855-1.408c0.11-0.17,0.24-0.301,0.39-0.391
			s0.34-0.135,0.57-0.135s0.448,0.064,0.653,0.195c0.205,0.129,0.442,0.27,0.712,0.42c0.27,0.148,0.587,0.289,0.953,0.42
			c0.365,0.129,0.827,0.193,1.387,0.193c0.44,0,0.817-0.051,1.133-0.156c0.315-0.105,0.575-0.242,0.78-0.412s0.355-0.369,0.45-0.594
			c0.095-0.225,0.142-0.457,0.142-0.697c0-0.359-0.107-0.654-0.322-0.885c-0.215-0.23-0.5-0.43-0.855-0.6s-0.76-0.322-1.215-0.457
			c-0.456-0.137-0.92-0.283-1.395-0.443c-0.475-0.16-0.94-0.348-1.395-0.563c-0.455-0.215-0.86-0.488-1.215-0.818
			c-0.355-0.328-0.64-0.734-0.855-1.215c-0.215-0.479-0.322-1.059-0.322-1.738c0-0.631,0.125-1.23,0.375-1.801
			s0.617-1.068,1.103-1.492c0.485-0.426,1.09-0.766,1.815-1.02c0.725-0.256,1.563-0.383,2.513-0.383c1.06,0,2.025,0.174,2.895,0.523
			c0.87,0.352,1.595,0.811,2.175,1.381L62.414,344.521z"/>
		<path fill="#FF2455" d="M65.849,343.665c1.77-1.621,3.9-2.43,6.39-2.43c0.9,0,1.705,0.146,2.415,0.441s1.31,0.705,1.8,1.23
			c0.49,0.525,0.862,1.152,1.117,1.883s0.383,1.529,0.383,2.4v9.719h-1.68c-0.35,0-0.62-0.053-0.81-0.156
			c-0.19-0.105-0.34-0.318-0.45-0.639l-0.33-1.109c-0.39,0.35-0.771,0.658-1.14,0.922c-0.37,0.266-0.755,0.488-1.155,0.668
			s-0.827,0.316-1.282,0.412s-0.958,0.143-1.507,0.143c-0.65,0-1.25-0.088-1.8-0.262c-0.55-0.176-1.025-0.438-1.425-0.787
			c-0.4-0.352-0.71-0.785-0.93-1.307c-0.22-0.52-0.33-1.125-0.33-1.814c0-0.391,0.065-0.777,0.195-1.162
			c0.13-0.385,0.342-0.752,0.637-1.104c0.295-0.35,0.677-0.68,1.147-0.988c0.47-0.311,1.047-0.58,1.732-0.811
			s1.482-0.418,2.393-0.563s1.95-0.232,3.12-0.264v-0.898c0-1.031-0.22-1.793-0.66-2.289c-0.44-0.494-1.075-0.742-1.905-0.742
			c-0.6,0-1.098,0.07-1.493,0.211s-0.742,0.297-1.042,0.473c-0.3,0.174-0.572,0.332-0.817,0.473
			c-0.245,0.139-0.518,0.209-0.817,0.209c-0.26,0-0.48-0.066-0.66-0.203c-0.18-0.135-0.325-0.291-0.435-0.471L65.849,343.665z
			 M74.338,350.339c-1.07,0.051-1.97,0.143-2.7,0.277c-0.73,0.137-1.315,0.309-1.755,0.518c-0.44,0.211-0.755,0.455-0.945,0.736
			c-0.19,0.279-0.285,0.584-0.285,0.914c0,0.65,0.192,1.115,0.578,1.395c0.385,0.281,0.887,0.422,1.507,0.422
			c0.76,0,1.417-0.139,1.973-0.414c0.555-0.273,1.097-0.691,1.627-1.252V350.339z"/>
		<path fill="#FF2455" d="M85.183,334.62v22.289h-3.705V334.62H85.183z"/>
		<path fill="#FF2455" d="M102.147,341.521v15.389h-2.265c-0.49,0-0.8-0.225-0.93-0.674l-0.255-1.23
			c-0.63,0.641-1.325,1.158-2.085,1.553c-0.76,0.395-1.655,0.592-2.685,0.592c-0.84,0-1.583-0.143-2.228-0.428
			s-1.188-0.688-1.627-1.207c-0.44-0.52-0.772-1.137-0.998-1.852s-0.337-1.504-0.337-2.363v-9.779h3.705v9.779
			c0,0.939,0.218,1.668,0.653,2.182c0.435,0.516,1.087,0.773,1.958,0.773c0.64,0,1.24-0.143,1.8-0.428s1.09-0.678,1.59-1.178
			v-11.129H102.147z"/>
		<path fill="#FF2455" d="M119.172,334.62v22.289h-2.265c-0.49,0-0.8-0.225-0.93-0.674l-0.315-1.486
			c-0.62,0.711-1.333,1.285-2.138,1.727c-0.805,0.439-1.743,0.658-2.813,0.658c-0.84,0-1.61-0.174-2.31-0.523
			c-0.7-0.352-1.302-0.857-1.807-1.523c-0.505-0.664-0.895-1.486-1.17-2.467c-0.275-0.98-0.412-2.1-0.412-3.361
			c0-1.139,0.155-2.199,0.465-3.18c0.31-0.979,0.755-1.83,1.335-2.549c0.58-0.721,1.275-1.283,2.085-1.688
			c0.81-0.406,1.72-0.607,2.73-0.607c0.86,0,1.595,0.135,2.205,0.404s1.155,0.635,1.635,1.096v-8.115H119.172z M115.468,345.45
			c-0.42-0.51-0.878-0.871-1.373-1.08c-0.495-0.211-1.028-0.316-1.598-0.316c-0.56,0-1.065,0.105-1.515,0.316
			c-0.45,0.209-0.835,0.527-1.155,0.951c-0.32,0.426-0.565,0.967-0.735,1.621c-0.17,0.654-0.255,1.428-0.255,2.316
			c0,0.9,0.073,1.664,0.218,2.289c0.145,0.625,0.353,1.135,0.623,1.529s0.6,0.68,0.99,0.855c0.39,0.174,0.825,0.262,1.305,0.262
			c0.77,0,1.425-0.16,1.965-0.48c0.54-0.318,1.05-0.773,1.53-1.363V345.45z"/>
		<path fill="#FF2455" d="M129.643,341.28c1.14,0,2.177,0.184,3.112,0.555c0.935,0.369,1.735,0.895,2.4,1.574s1.178,1.51,1.538,2.49
			s0.54,2.076,0.54,3.285c0,1.221-0.18,2.32-0.54,3.301c-0.36,0.979-0.873,1.814-1.538,2.504s-1.465,1.221-2.4,1.59
			c-0.935,0.371-1.973,0.555-3.112,0.555c-1.15,0-2.195-0.184-3.135-0.555c-0.94-0.369-1.743-0.9-2.407-1.59
			c-0.666-0.689-1.18-1.525-1.545-2.504c-0.365-0.98-0.548-2.08-0.548-3.301c0-1.209,0.183-2.305,0.548-3.285
			c0.365-0.98,0.879-1.811,1.545-2.49c0.665-0.68,1.467-1.205,2.407-1.574C127.447,341.464,128.492,341.28,129.643,341.28z
			 M129.643,354.284c1.28,0,2.228-0.43,2.842-1.289c0.615-0.861,0.922-2.121,0.922-3.781c0-1.658-0.307-2.924-0.922-3.795
			c-0.615-0.869-1.563-1.305-2.842-1.305c-1.3,0-2.263,0.438-2.888,1.313s-0.938,2.139-0.938,3.787c0,1.65,0.313,2.908,0.938,3.773
			S128.342,354.284,129.643,354.284z"/>
	</g>
</g>
<g>
	
		<line fill="none" stroke="#337C98" stroke-width="10" stroke-linecap="round" stroke-linejoin="round" stroke-miterlimit="10" x1="140.007" y1="258.366" x2="109.974" y2="321.341"/>
	
		<polyline fill="none" stroke="#337C98" stroke-width="10" stroke-linecap="round" stroke-linejoin="round" stroke-miterlimit="10" points="
		127.046,259.144 142.52,253.097 147.562,268.927 	"/>
</g>
<g>
	<circle fill="#337C98" cx="168.743" cy="199.384" r="43.163"/>
	<g>
		<path fill="#FFFFFF" d="M142.26,189.589v3.244l-0.248,1.758c-0.06,0.33-0.158,0.584-0.293,0.76
			c-0.135,0.177-0.36,0.265-0.676,0.265c-0.278,0-0.492-0.088-0.642-0.265c-0.15-0.176-0.255-0.43-0.315-0.76l-0.248-1.758v-3.244
			H142.26z M146.406,189.589v3.244l-0.248,1.758c-0.061,0.33-0.158,0.584-0.293,0.76c-0.135,0.177-0.36,0.265-0.676,0.265
			c-0.278,0-0.492-0.088-0.642-0.265c-0.15-0.176-0.255-0.43-0.315-0.76l-0.248-1.758v-3.244H146.406z"/>
		<path fill="#FFFFFF" d="M151.734,195.56c0.451-0.421,0.946-0.763,1.487-1.025c0.541-0.263,1.175-0.395,1.904-0.395
			c0.631,0,1.19,0.107,1.679,0.321c0.488,0.214,0.896,0.515,1.222,0.901s0.574,0.849,0.743,1.386s0.253,1.128,0.253,1.774v7.355
			h-2.782v-7.355c0-0.706-0.162-1.253-0.484-1.64s-0.815-0.58-1.476-0.58c-0.481,0-0.931,0.109-1.352,0.327
			c-0.42,0.218-0.818,0.514-1.194,0.89v8.358h-2.782v-16.739h2.782V195.56z"/>
		<path fill="#FFFFFF" d="M166.772,194.14c0.856,0,1.635,0.14,2.338,0.417c0.702,0.278,1.303,0.673,1.802,1.183
			c0.499,0.511,0.884,1.135,1.155,1.87c0.27,0.736,0.405,1.559,0.405,2.467c0,0.917-0.135,1.743-0.405,2.479
			c-0.271,0.736-0.656,1.363-1.155,1.882c-0.5,0.518-1.101,0.916-1.802,1.193c-0.703,0.278-1.481,0.417-2.338,0.417
			c-0.863,0-1.648-0.139-2.354-0.417c-0.706-0.277-1.309-0.676-1.808-1.193c-0.5-0.519-0.886-1.146-1.16-1.882
			c-0.274-0.735-0.411-1.562-0.411-2.479c0-0.908,0.137-1.73,0.411-2.467c0.274-0.735,0.661-1.359,1.16-1.87
			c0.5-0.51,1.102-0.904,1.808-1.183C165.124,194.279,165.909,194.14,166.772,194.14z M166.772,203.906
			c0.961,0,1.673-0.322,2.135-0.969c0.462-0.646,0.693-1.592,0.693-2.839c0-1.246-0.231-2.196-0.693-2.85s-1.173-0.979-2.135-0.979
			c-0.976,0-1.699,0.328-2.168,0.985s-0.704,1.605-0.704,2.844c0,1.239,0.234,2.184,0.704,2.834
			C165.073,203.582,165.796,203.906,166.772,203.906z"/>
		<path fill="#FFFFFF" d="M177.417,189.139v16.739h-2.782v-16.739H177.417z"/>
		<path fill="#FFFFFF" d="M179.929,195.931c1.329-1.216,2.929-1.824,4.799-1.824c0.676,0,1.28,0.11,1.813,0.332
			s0.984,0.529,1.352,0.924c0.368,0.395,0.647,0.865,0.839,1.414c0.192,0.548,0.288,1.148,0.288,1.802v7.3h-1.262
			c-0.263,0-0.466-0.039-0.608-0.118s-0.255-0.238-0.338-0.479l-0.248-0.834c-0.293,0.263-0.578,0.494-0.856,0.692
			c-0.278,0.199-0.567,0.366-0.867,0.502c-0.301,0.135-0.622,0.238-0.963,0.31s-0.719,0.107-1.132,0.107
			c-0.488,0-0.938-0.066-1.352-0.197c-0.413-0.132-0.77-0.329-1.07-0.592s-0.533-0.59-0.698-0.979
			c-0.165-0.391-0.248-0.846-0.248-1.363c0-0.293,0.049-0.584,0.146-0.873s0.257-0.565,0.479-0.828
			c0.221-0.263,0.509-0.511,0.862-0.743c0.353-0.233,0.787-0.436,1.301-0.608c0.515-0.173,1.113-0.313,1.797-0.423
			c0.683-0.108,1.464-0.175,2.343-0.197v-0.676c0-0.773-0.166-1.346-0.496-1.718c-0.331-0.372-0.808-0.558-1.431-0.558
			c-0.451,0-0.824,0.053-1.121,0.158c-0.297,0.104-0.558,0.224-0.783,0.354c-0.226,0.132-0.43,0.25-0.614,0.354
			c-0.184,0.105-0.388,0.158-0.614,0.158c-0.195,0-0.36-0.051-0.496-0.152s-0.244-0.22-0.327-0.354L179.929,195.931z
			 M186.305,200.944c-0.804,0.037-1.479,0.106-2.028,0.208s-0.988,0.23-1.318,0.389c-0.331,0.157-0.567,0.342-0.71,0.552
			c-0.143,0.211-0.214,0.439-0.214,0.688c0,0.488,0.145,0.837,0.434,1.048c0.289,0.21,0.667,0.315,1.132,0.315
			c0.57,0,1.064-0.104,1.481-0.311c0.417-0.206,0.824-0.52,1.222-0.94V200.944z"/>
		<path fill="#FFFFFF" d="M193.503,189.589v3.244l-0.248,1.758c-0.06,0.33-0.158,0.584-0.293,0.76
			c-0.135,0.177-0.36,0.265-0.676,0.265c-0.278,0-0.492-0.088-0.642-0.265c-0.15-0.176-0.255-0.43-0.315-0.76l-0.248-1.758v-3.244
			H193.503z M197.649,189.589v3.244l-0.248,1.758c-0.061,0.33-0.158,0.584-0.293,0.76c-0.135,0.177-0.36,0.265-0.676,0.265
			c-0.278,0-0.492-0.088-0.642-0.265c-0.15-0.176-0.255-0.43-0.315-0.76l-0.248-1.758v-3.244H197.649z"/>
	</g>
</g>
<g>
	<circle fill="#337C98" cx="267.743" cy="199.384" r="43.163"/>
	<g>
		<path fill="#FFFFFF" d="M236.197,189.589v3.244l-0.248,1.758c-0.06,0.33-0.158,0.584-0.293,0.76
			c-0.135,0.177-0.36,0.265-0.676,0.265c-0.278,0-0.492-0.088-0.642-0.265c-0.15-0.176-0.255-0.43-0.315-0.76l-0.248-1.758v-3.244
			H236.197z M240.342,189.589v3.244l-0.248,1.758c-0.061,0.33-0.158,0.584-0.293,0.76c-0.135,0.177-0.36,0.265-0.676,0.265
			c-0.278,0-0.492-0.088-0.642-0.265c-0.15-0.176-0.255-0.43-0.315-0.76l-0.248-1.758v-3.244H240.342z"/>
		<path fill="#FFFFFF" d="M242.291,195.931c1.329-1.216,2.929-1.824,4.799-1.824c0.676,0,1.28,0.11,1.813,0.332
			s0.984,0.529,1.352,0.924c0.368,0.395,0.647,0.865,0.839,1.414c0.192,0.548,0.288,1.148,0.288,1.802v7.3h-1.262
			c-0.263,0-0.466-0.039-0.608-0.118s-0.255-0.238-0.338-0.479l-0.248-0.834c-0.293,0.263-0.578,0.494-0.856,0.692
			c-0.278,0.199-0.567,0.366-0.867,0.502c-0.301,0.135-0.622,0.238-0.963,0.31s-0.719,0.107-1.132,0.107
			c-0.488,0-0.938-0.066-1.352-0.197c-0.413-0.132-0.77-0.329-1.07-0.592s-0.533-0.59-0.698-0.979
			c-0.165-0.391-0.248-0.846-0.248-1.363c0-0.293,0.049-0.584,0.146-0.873s0.257-0.565,0.479-0.828
			c0.221-0.263,0.509-0.511,0.862-0.743c0.353-0.233,0.787-0.436,1.301-0.608c0.515-0.173,1.113-0.313,1.797-0.423
			c0.683-0.108,1.464-0.175,2.343-0.197v-0.676c0-0.773-0.166-1.346-0.496-1.718c-0.331-0.372-0.808-0.558-1.431-0.558
			c-0.451,0-0.824,0.053-1.121,0.158c-0.297,0.104-0.558,0.224-0.783,0.354c-0.226,0.132-0.43,0.25-0.614,0.354
			c-0.184,0.105-0.388,0.158-0.614,0.158c-0.195,0-0.36-0.051-0.496-0.152s-0.244-0.22-0.327-0.354L242.291,195.931z
			 M248.667,200.944c-0.804,0.037-1.479,0.106-2.028,0.208s-0.988,0.23-1.318,0.389c-0.331,0.157-0.567,0.342-0.71,0.552
			c-0.143,0.211-0.214,0.439-0.214,0.688c0,0.488,0.145,0.837,0.434,1.048c0.289,0.21,0.667,0.315,1.132,0.315
			c0.57,0,1.064-0.104,1.481-0.311c0.417-0.206,0.824-0.52,1.222-0.94V200.944z"/>
		<path fill="#FFFFFF" d="M264.032,189.139v16.739h-1.701c-0.368,0-0.601-0.169-0.699-0.507l-0.236-1.115
			c-0.466,0.533-1.001,0.965-1.605,1.295c-0.604,0.331-1.309,0.496-2.112,0.496c-0.631,0-1.209-0.132-1.735-0.395
			c-0.526-0.263-0.979-0.644-1.357-1.144c-0.379-0.499-0.672-1.116-0.879-1.853s-0.31-1.577-0.31-2.523
			c0-0.856,0.116-1.652,0.349-2.388c0.233-0.736,0.567-1.375,1.002-1.915c0.436-0.541,0.958-0.964,1.566-1.268
			s1.292-0.456,2.05-0.456c0.646,0,1.198,0.102,1.656,0.304c0.458,0.203,0.868,0.478,1.228,0.822v-6.094H264.032z M261.25,197.271
			c-0.315-0.383-0.659-0.653-1.031-0.811c-0.372-0.158-0.771-0.237-1.2-0.237c-0.421,0-0.8,0.079-1.138,0.237
			c-0.338,0.157-0.627,0.396-0.868,0.715s-0.424,0.725-0.552,1.217c-0.128,0.492-0.191,1.072-0.191,1.74
			c0,0.676,0.054,1.249,0.163,1.718c0.109,0.47,0.265,0.853,0.468,1.149c0.203,0.297,0.451,0.511,0.743,0.642
			c0.293,0.132,0.62,0.197,0.98,0.197c0.579,0,1.07-0.12,1.476-0.36c0.405-0.24,0.789-0.582,1.149-1.025V197.271z"/>
		<path fill="#FFFFFF" d="M270.047,190.952c0,0.24-0.049,0.466-0.146,0.676s-0.227,0.395-0.389,0.552
			c-0.162,0.158-0.351,0.284-0.569,0.378s-0.451,0.141-0.698,0.141c-0.241,0-0.468-0.047-0.682-0.141s-0.4-0.22-0.558-0.378
			c-0.158-0.157-0.284-0.342-0.377-0.552s-0.141-0.436-0.141-0.676c0-0.248,0.047-0.48,0.141-0.698s0.22-0.406,0.377-0.563
			s0.344-0.283,0.558-0.377s0.441-0.142,0.682-0.142c0.248,0,0.48,0.048,0.698,0.142s0.407,0.22,0.569,0.377
			s0.291,0.346,0.389,0.563S270.047,190.704,270.047,190.952z M269.665,194.32v11.558h-2.794V194.32H269.665z"/>
		<path fill="#FFFFFF" d="M277.617,194.14c0.856,0,1.635,0.14,2.338,0.417c0.702,0.278,1.303,0.673,1.802,1.183
			c0.499,0.511,0.884,1.135,1.155,1.87c0.27,0.736,0.405,1.559,0.405,2.467c0,0.917-0.135,1.743-0.405,2.479
			c-0.271,0.736-0.656,1.363-1.155,1.882c-0.5,0.518-1.101,0.916-1.802,1.193c-0.703,0.278-1.481,0.417-2.338,0.417
			c-0.863,0-1.648-0.139-2.354-0.417c-0.706-0.277-1.309-0.676-1.808-1.193c-0.5-0.519-0.886-1.146-1.16-1.882
			c-0.274-0.735-0.411-1.562-0.411-2.479c0-0.908,0.137-1.73,0.411-2.467c0.274-0.735,0.661-1.359,1.16-1.87
			c0.5-0.51,1.102-0.904,1.808-1.183C275.968,194.279,276.753,194.14,277.617,194.14z M277.617,203.906
			c0.961,0,1.673-0.322,2.135-0.969c0.462-0.646,0.693-1.592,0.693-2.839c0-1.246-0.231-2.196-0.693-2.85s-1.173-0.979-2.135-0.979
			c-0.976,0-1.699,0.328-2.168,0.985s-0.704,1.605-0.704,2.844c0,1.239,0.234,2.184,0.704,2.834
			C275.917,203.582,276.641,203.906,277.617,203.906z M281.515,189.409l-2.783,2.939c-0.143,0.15-0.28,0.254-0.411,0.311
			c-0.131,0.056-0.302,0.084-0.512,0.084h-1.667l1.6-2.737c0.113-0.195,0.244-0.344,0.395-0.445c0.15-0.101,0.375-0.151,0.676-0.151
			H281.515z"/>
		<path fill="#FFFFFF" d="M292.498,196.573c-0.075,0.12-0.154,0.205-0.237,0.254s-0.188,0.072-0.315,0.072
			c-0.135,0-0.28-0.037-0.434-0.112s-0.333-0.159-0.535-0.253s-0.434-0.179-0.693-0.254c-0.259-0.075-0.565-0.112-0.918-0.112
			c-0.548,0-0.978,0.116-1.29,0.349c-0.312,0.233-0.467,0.537-0.467,0.913c0,0.247,0.081,0.456,0.242,0.625s0.375,0.317,0.642,0.444
			c0.267,0.128,0.569,0.242,0.907,0.344s0.682,0.213,1.031,0.333s0.693,0.257,1.031,0.411c0.338,0.153,0.64,0.349,0.907,0.585
			c0.267,0.237,0.48,0.521,0.642,0.851c0.162,0.331,0.242,0.729,0.242,1.194c0,0.556-0.1,1.068-0.298,1.538
			c-0.199,0.469-0.494,0.875-0.884,1.216c-0.391,0.342-0.873,0.608-1.448,0.8c-0.574,0.192-1.237,0.288-1.988,0.288
			c-0.398,0-0.787-0.036-1.166-0.107c-0.379-0.071-0.744-0.171-1.093-0.299c-0.349-0.127-0.672-0.277-0.969-0.45
			c-0.297-0.173-0.558-0.36-0.783-0.563l0.642-1.059c0.083-0.128,0.181-0.226,0.293-0.293c0.113-0.067,0.255-0.102,0.428-0.102
			s0.336,0.049,0.49,0.146c0.154,0.098,0.332,0.203,0.535,0.315c0.203,0.112,0.441,0.218,0.715,0.315
			c0.274,0.098,0.622,0.146,1.042,0.146c0.331,0,0.614-0.039,0.851-0.118c0.237-0.079,0.432-0.183,0.586-0.31
			c0.154-0.128,0.267-0.276,0.338-0.445s0.107-0.344,0.107-0.523c0-0.271-0.081-0.492-0.242-0.665s-0.375-0.323-0.642-0.45
			c-0.267-0.128-0.571-0.242-0.913-0.344s-0.691-0.212-1.047-0.332c-0.357-0.12-0.706-0.262-1.048-0.423s-0.646-0.366-0.912-0.614
			c-0.267-0.247-0.481-0.552-0.642-0.912c-0.162-0.36-0.242-0.796-0.242-1.307c0-0.474,0.094-0.924,0.281-1.352
			c0.188-0.429,0.464-0.802,0.828-1.121s0.818-0.574,1.363-0.766c0.544-0.192,1.173-0.288,1.887-0.288
			c0.796,0,1.521,0.132,2.174,0.395s1.198,0.608,1.634,1.036L292.498,196.573z"/>
		<path fill="#FFFFFF" d="M297.566,189.589v3.244l-0.248,1.758c-0.06,0.33-0.158,0.584-0.293,0.76
			c-0.135,0.177-0.36,0.265-0.676,0.265c-0.278,0-0.492-0.088-0.642-0.265c-0.15-0.176-0.255-0.43-0.315-0.76l-0.248-1.758v-3.244
			H297.566z M301.712,189.589v3.244l-0.247,1.758c-0.061,0.33-0.158,0.584-0.293,0.76c-0.136,0.177-0.361,0.265-0.676,0.265
			c-0.278,0-0.492-0.088-0.643-0.265c-0.15-0.176-0.256-0.43-0.315-0.76l-0.248-1.758v-3.244H301.712z"/>
	</g>
</g>
<g>
	
		<line fill="none" stroke="#337C98" stroke-width="10" stroke-linecap="round" stroke-linejoin="round" stroke-miterlimit="10" x1="297.529" y1="258.366" x2="327.563" y2="321.341"/>
	
		<polyline fill="none" stroke="#337C98" stroke-width="10" stroke-linecap="round" stroke-linejoin="round" stroke-miterlimit="10" points="
		310.49,259.144 295.016,253.097 289.975,268.927 	"/>
</g>
<g>
	<g>
		<path fill="#FF2455" d="M281.818,334.62v22.289h-2.265c-0.49,0-0.8-0.225-0.93-0.674l-0.315-1.486
			c-0.62,0.711-1.333,1.285-2.138,1.727c-0.805,0.439-1.743,0.658-2.813,0.658c-0.84,0-1.61-0.174-2.31-0.523
			c-0.7-0.352-1.302-0.857-1.807-1.523c-0.505-0.664-0.895-1.486-1.17-2.467c-0.275-0.98-0.412-2.1-0.412-3.361
			c0-1.139,0.155-2.199,0.465-3.18c0.31-0.979,0.755-1.83,1.335-2.549c0.58-0.721,1.275-1.283,2.085-1.688
			c0.81-0.406,1.72-0.607,2.73-0.607c0.86,0,1.595,0.135,2.205,0.404s1.155,0.635,1.635,1.096v-8.115H281.818z M278.114,345.45
			c-0.42-0.51-0.878-0.871-1.373-1.08c-0.495-0.211-1.028-0.316-1.598-0.316c-0.56,0-1.065,0.105-1.515,0.316
			c-0.45,0.209-0.835,0.527-1.155,0.951c-0.32,0.426-0.565,0.967-0.735,1.621c-0.17,0.654-0.255,1.428-0.255,2.316
			c0,0.9,0.073,1.664,0.218,2.289c0.145,0.625,0.353,1.135,0.623,1.529s0.6,0.68,0.99,0.855c0.39,0.174,0.825,0.262,1.305,0.262
			c0.77,0,1.425-0.16,1.965-0.48c0.54-0.318,1.05-0.773,1.53-1.363V345.45z"/>
		<path fill="#FF2455" d="M288.329,349.679c0.06,0.791,0.2,1.473,0.42,2.049c0.22,0.574,0.51,1.049,0.87,1.424
			c0.36,0.375,0.787,0.656,1.282,0.84c0.495,0.186,1.042,0.279,1.643,0.279s1.118-0.07,1.552-0.211
			c0.435-0.141,0.815-0.295,1.14-0.465c0.325-0.17,0.61-0.324,0.855-0.465s0.482-0.211,0.712-0.211c0.31,0,0.54,0.115,0.69,0.346
			l1.065,1.35c-0.41,0.48-0.87,0.883-1.38,1.207c-0.51,0.326-1.042,0.586-1.597,0.781c-0.555,0.195-1.12,0.332-1.695,0.412
			s-1.132,0.119-1.672,0.119c-1.07,0-2.065-0.178-2.985-0.531c-0.92-0.355-1.72-0.881-2.4-1.576c-0.68-0.693-1.215-1.555-1.605-2.58
			c-0.39-1.023-0.585-2.211-0.585-3.563c0-1.049,0.17-2.037,0.51-2.961c0.34-0.926,0.827-1.73,1.462-2.416
			c0.635-0.684,1.41-1.227,2.325-1.627s1.947-0.6,3.097-0.6c0.97,0,1.865,0.154,2.685,0.465s1.525,0.762,2.115,1.357
			c0.59,0.594,1.052,1.324,1.387,2.189s0.503,1.854,0.503,2.963c0,0.561-0.06,0.938-0.18,1.133s-0.35,0.291-0.69,0.291H288.329z
			 M295.394,347.444c0-0.48-0.067-0.932-0.203-1.357c-0.135-0.424-0.337-0.797-0.607-1.117s-0.613-0.572-1.027-0.758
			c-0.416-0.186-0.898-0.277-1.448-0.277c-1.07,0-1.913,0.305-2.527,0.916c-0.615,0.609-1.008,1.475-1.178,2.594H295.394z"/>
		<path fill="#FF2455" d="M310.889,344.521c-0.101,0.16-0.205,0.271-0.316,0.336c-0.109,0.066-0.25,0.098-0.42,0.098
			c-0.18,0-0.372-0.049-0.576-0.15c-0.205-0.1-0.443-0.211-0.713-0.336c-0.271-0.125-0.578-0.238-0.923-0.338
			s-0.753-0.15-1.223-0.15c-0.729,0-1.302,0.156-1.718,0.465c-0.414,0.311-0.622,0.715-0.622,1.215c0,0.33,0.107,0.607,0.323,0.832
			c0.215,0.227,0.499,0.424,0.854,0.594c0.354,0.17,0.757,0.322,1.208,0.457c0.449,0.135,0.906,0.283,1.371,0.443
			c0.466,0.16,0.924,0.342,1.373,0.547c0.45,0.205,0.853,0.465,1.207,0.779c0.355,0.316,0.641,0.693,0.855,1.133
			c0.215,0.441,0.322,0.971,0.322,1.59c0,0.74-0.133,1.424-0.396,2.049c-0.266,0.625-0.658,1.164-1.178,1.619
			c-0.521,0.455-1.163,0.811-1.928,1.064c-0.766,0.256-1.648,0.383-2.647,0.383c-0.53,0-1.048-0.047-1.553-0.143
			s-0.989-0.227-1.455-0.396c-0.465-0.17-0.896-0.371-1.29-0.602c-0.395-0.229-0.742-0.479-1.043-0.75l0.855-1.408
			c0.109-0.17,0.24-0.301,0.391-0.391c0.149-0.09,0.34-0.135,0.569-0.135s0.448,0.064,0.653,0.195
			c0.204,0.129,0.441,0.27,0.712,0.42c0.271,0.148,0.587,0.289,0.952,0.42c0.365,0.129,0.828,0.193,1.388,0.193
			c0.44,0,0.817-0.051,1.133-0.156s0.575-0.242,0.78-0.412s0.354-0.369,0.449-0.594c0.096-0.225,0.143-0.457,0.143-0.697
			c0-0.359-0.107-0.654-0.322-0.885s-0.5-0.43-0.855-0.6c-0.354-0.17-0.76-0.322-1.215-0.457c-0.455-0.137-0.92-0.283-1.395-0.443
			s-0.94-0.348-1.395-0.563c-0.455-0.215-0.861-0.488-1.216-0.818c-0.354-0.328-0.64-0.734-0.854-1.215
			c-0.215-0.479-0.322-1.059-0.322-1.738c0-0.631,0.125-1.23,0.375-1.801s0.617-1.068,1.102-1.492
			c0.485-0.426,1.09-0.766,1.815-1.02c0.726-0.256,1.563-0.383,2.513-0.383c1.06,0,2.025,0.174,2.895,0.523
			c0.87,0.352,1.596,0.811,2.176,1.381L310.889,344.521z"/>
		<path fill="#FF2455" d="M318.193,343.62c0.63-0.711,1.345-1.285,2.145-1.725c0.801-0.441,1.74-0.66,2.82-0.66
			c0.84,0,1.607,0.174,2.303,0.523c0.694,0.352,1.295,0.859,1.8,1.523c0.505,0.666,0.895,1.484,1.17,2.459
			c0.274,0.977,0.413,2.094,0.413,3.354c0,1.15-0.156,2.215-0.466,3.195s-0.753,1.83-1.327,2.549
			c-0.575,0.721-1.271,1.283-2.086,1.688c-0.814,0.406-1.727,0.607-2.736,0.607c-0.861,0-1.596-0.131-2.205-0.396
			c-0.61-0.266-1.155-0.633-1.635-1.104v6.301h-3.705v-20.414h2.265c0.479,0,0.795,0.225,0.944,0.674L318.193,343.62z
			 M318.389,352.919c0.42,0.51,0.877,0.871,1.372,1.08c0.495,0.211,1.032,0.316,1.612,0.316c0.561,0,1.064-0.105,1.516-0.316
			c0.449-0.209,0.832-0.529,1.146-0.959c0.315-0.43,0.558-0.973,0.729-1.627c0.17-0.656,0.254-1.428,0.254-2.318
			c0-0.9-0.072-1.662-0.217-2.287c-0.146-0.625-0.353-1.133-0.623-1.523c-0.27-0.389-0.598-0.674-0.982-0.855
			c-0.385-0.18-0.822-0.27-1.313-0.27c-0.77,0-1.425,0.164-1.965,0.488s-1.05,0.783-1.529,1.373V352.919z"/>
		<path fill="#FF2455" d="M334.573,349.679c0.06,0.791,0.2,1.473,0.42,2.049c0.22,0.574,0.51,1.049,0.87,1.424
			c0.359,0.375,0.787,0.656,1.282,0.84c0.495,0.186,1.042,0.279,1.643,0.279s1.118-0.07,1.552-0.211
			c0.436-0.141,0.815-0.295,1.141-0.465c0.324-0.17,0.609-0.324,0.855-0.465c0.244-0.141,0.482-0.211,0.712-0.211
			c0.31,0,0.54,0.115,0.69,0.346l1.064,1.35c-0.41,0.48-0.869,0.883-1.38,1.207c-0.51,0.326-1.042,0.586-1.597,0.781
			c-0.556,0.195-1.121,0.332-1.695,0.412c-0.576,0.08-1.133,0.119-1.673,0.119c-1.07,0-2.065-0.178-2.985-0.531
			c-0.92-0.355-1.72-0.881-2.399-1.576c-0.681-0.693-1.216-1.555-1.604-2.58c-0.391-1.023-0.586-2.211-0.586-3.563
			c0-1.049,0.17-2.037,0.51-2.961c0.34-0.926,0.828-1.73,1.463-2.416c0.635-0.684,1.41-1.227,2.325-1.627s1.947-0.6,3.097-0.6
			c0.971,0,1.865,0.154,2.686,0.465s1.525,0.762,2.115,1.357c0.59,0.594,1.053,1.324,1.387,2.189
			c0.336,0.865,0.504,1.854,0.504,2.963c0,0.561-0.061,0.938-0.181,1.133s-0.351,0.291-0.69,0.291H334.573z M341.639,347.444
			c0-0.48-0.068-0.932-0.203-1.357c-0.135-0.424-0.338-0.797-0.607-1.117s-0.613-0.572-1.027-0.758
			c-0.416-0.186-0.898-0.277-1.447-0.277c-1.07,0-1.913,0.305-2.527,0.916c-0.615,0.609-1.008,1.475-1.178,2.594H341.639z"/>
		<path fill="#FF2455" d="M361.107,334.62v22.289h-2.265c-0.49,0-0.8-0.225-0.931-0.674l-0.314-1.486
			c-0.62,0.711-1.332,1.285-2.138,1.727c-0.806,0.439-1.743,0.658-2.813,0.658c-0.84,0-1.61-0.174-2.31-0.523
			c-0.7-0.352-1.303-0.857-1.808-1.523c-0.505-0.664-0.896-1.486-1.171-2.467c-0.274-0.98-0.412-2.1-0.412-3.361
			c0-1.139,0.155-2.199,0.465-3.18c0.311-0.979,0.756-1.83,1.336-2.549c0.58-0.721,1.274-1.283,2.084-1.688
			c0.811-0.406,1.721-0.607,2.73-0.607c0.859,0,1.596,0.135,2.205,0.404s1.154,0.635,1.635,1.096v-8.115H361.107z M357.402,345.45
			c-0.42-0.51-0.877-0.871-1.372-1.08c-0.495-0.211-1.028-0.316-1.598-0.316c-0.56,0-1.065,0.105-1.515,0.316
			c-0.45,0.209-0.836,0.527-1.155,0.951c-0.32,0.426-0.565,0.967-0.735,1.621s-0.255,1.428-0.255,2.316
			c0,0.9,0.073,1.664,0.218,2.289s0.353,1.135,0.623,1.529c0.27,0.395,0.6,0.68,0.989,0.855c0.39,0.174,0.825,0.262,1.306,0.262
			c0.77,0,1.424-0.16,1.965-0.48c0.539-0.318,1.049-0.773,1.529-1.363V345.45z"/>
		<path fill="#FF2455" d="M369.117,337.034c0,0.32-0.064,0.621-0.195,0.9c-0.129,0.279-0.302,0.525-0.518,0.734
			c-0.215,0.211-0.467,0.379-0.757,0.504s-0.601,0.188-0.931,0.188c-0.319,0-0.621-0.063-0.906-0.188s-0.533-0.293-0.743-0.504
			c-0.21-0.209-0.378-0.455-0.503-0.734s-0.188-0.58-0.188-0.9c0-0.33,0.063-0.639,0.188-0.93c0.125-0.289,0.293-0.539,0.503-0.75
			c0.21-0.209,0.458-0.377,0.743-0.502s0.587-0.188,0.906-0.188c0.33,0,0.641,0.063,0.931,0.188s0.542,0.293,0.757,0.502
			c0.216,0.211,0.389,0.461,0.518,0.75C369.053,336.396,369.117,336.704,369.117,337.034z M368.607,341.521v15.389h-3.72v-15.389
			H368.607z"/>
		<path fill="#FF2455" d="M385.752,334.62v22.289h-2.264c-0.49,0-0.801-0.225-0.931-0.674l-0.315-1.486
			c-0.619,0.711-1.332,1.285-2.137,1.727c-0.806,0.439-1.743,0.658-2.813,0.658c-0.84,0-1.61-0.174-2.311-0.523
			c-0.699-0.352-1.303-0.857-1.807-1.523c-0.506-0.664-0.896-1.486-1.171-2.467c-0.274-0.98-0.412-2.1-0.412-3.361
			c0-1.139,0.155-2.199,0.465-3.18c0.31-0.979,0.755-1.83,1.335-2.549c0.58-0.721,1.275-1.283,2.085-1.688
			c0.81-0.406,1.72-0.607,2.729-0.607c0.86,0,1.596,0.135,2.205,0.404c0.61,0.27,1.155,0.635,1.636,1.096v-8.115H385.752z
			 M382.048,345.45c-0.421-0.51-0.878-0.871-1.372-1.08c-0.496-0.211-1.028-0.316-1.598-0.316c-0.561,0-1.065,0.105-1.516,0.316
			c-0.449,0.209-0.835,0.527-1.154,0.951c-0.32,0.426-0.565,0.967-0.735,1.621c-0.171,0.654-0.255,1.428-0.255,2.316
			c0,0.9,0.072,1.664,0.217,2.289s0.354,1.135,0.623,1.529s0.6,0.68,0.99,0.855c0.39,0.174,0.824,0.262,1.305,0.262
			c0.77,0,1.425-0.16,1.965-0.48c0.54-0.318,1.05-0.773,1.53-1.363V345.45z"/>
		<path fill="#FF2455" d="M389.053,343.665c1.77-1.621,3.899-2.43,6.389-2.43c0.9,0,1.705,0.146,2.416,0.441
			c0.709,0.295,1.31,0.705,1.8,1.23c0.489,0.525,0.862,1.152,1.117,1.883s0.383,1.529,0.383,2.4v9.719h-1.681
			c-0.35,0-0.619-0.053-0.81-0.156c-0.19-0.105-0.34-0.318-0.45-0.639l-0.33-1.109c-0.39,0.35-0.77,0.658-1.14,0.922
			c-0.37,0.266-0.755,0.488-1.155,0.668s-0.827,0.316-1.282,0.412s-0.958,0.143-1.507,0.143c-0.65,0-1.251-0.088-1.801-0.262
			c-0.55-0.176-1.025-0.438-1.425-0.787c-0.4-0.352-0.71-0.785-0.931-1.307c-0.22-0.52-0.33-1.125-0.33-1.814
			c0-0.391,0.065-0.777,0.195-1.162c0.131-0.385,0.343-0.752,0.638-1.104c0.295-0.35,0.677-0.68,1.147-0.988
			c0.471-0.311,1.047-0.58,1.732-0.811s1.482-0.418,2.393-0.563s1.95-0.232,3.12-0.264v-0.898c0-1.031-0.22-1.793-0.66-2.289
			c-0.44-0.494-1.075-0.742-1.905-0.742c-0.6,0-1.098,0.07-1.492,0.211s-0.742,0.297-1.043,0.473
			c-0.299,0.174-0.572,0.332-0.816,0.473c-0.246,0.139-0.518,0.209-0.818,0.209c-0.26,0-0.479-0.066-0.66-0.203
			c-0.18-0.135-0.324-0.291-0.435-0.471L389.053,343.665z M397.542,350.339c-1.07,0.051-1.97,0.143-2.7,0.277
			c-0.73,0.137-1.314,0.309-1.755,0.518c-0.44,0.211-0.755,0.455-0.944,0.736c-0.19,0.279-0.285,0.584-0.285,0.914
			c0,0.65,0.191,1.115,0.577,1.395c0.385,0.281,0.888,0.422,1.507,0.422c0.76,0,1.418-0.139,1.973-0.414
			c0.556-0.273,1.098-0.691,1.628-1.252V350.339z"/>
	</g>
</g>
</svg>
