<?xml version="1.0" encoding="utf-8"?>
<!-- Generator: Adobe Illustrator 16.0.0, SVG Export Plug-In . SVG Version: 6.00 Build 0)  -->
<!DOCTYPE svg PUBLIC "-//W3C//DTD SVG 1.1//EN" "http://www.w3.org/Graphics/SVG/1.1/DTD/svg11.dtd">
<svg version="1.1" id="Layer_1" xmlns="http://www.w3.org/2000/svg" xmlns:xlink="http://www.w3.org/1999/xlink" x="0px" y="0px"
	 width="440.584px" height="392.591px" viewBox="0 0 440.584 392.591" enable-background="new 0 0 440.584 392.591"
	 xml:space="preserve">
<circle fill="#72B5CF" cx="218.243" cy="199.263" r="144.803"/>
<g>
	<g>
		<path fill="#FF2455" d="M72.414,354.52c-0.101,0.16-0.205,0.273-0.316,0.338c-0.109,0.064-0.25,0.098-0.42,0.098
			c-0.18,0-0.372-0.051-0.576-0.15c-0.205-0.1-0.443-0.213-0.713-0.338c-0.271-0.125-0.578-0.236-0.923-0.338
			c-0.345-0.1-0.753-0.148-1.223-0.148c-0.729,0-1.302,0.154-1.718,0.465c-0.414,0.309-0.622,0.715-0.622,1.215
			c0,0.33,0.107,0.607,0.323,0.832c0.215,0.225,0.499,0.422,0.854,0.592c0.354,0.17,0.757,0.322,1.208,0.459
			c0.449,0.135,0.906,0.281,1.371,0.441c0.466,0.16,0.924,0.344,1.373,0.547c0.45,0.205,0.853,0.467,1.207,0.781
			c0.355,0.314,0.641,0.691,0.855,1.133c0.215,0.439,0.322,0.969,0.322,1.59c0,0.74-0.133,1.422-0.396,2.047
			c-0.266,0.625-0.658,1.166-1.178,1.621c-0.521,0.455-1.163,0.809-1.928,1.064c-0.766,0.254-1.648,0.383-2.647,0.383
			c-0.53,0-1.048-0.049-1.553-0.143c-0.505-0.096-0.989-0.229-1.455-0.398c-0.465-0.17-0.896-0.369-1.29-0.6s-0.742-0.48-1.043-0.75
			l0.855-1.41c0.109-0.17,0.24-0.301,0.391-0.391c0.149-0.09,0.34-0.135,0.569-0.135s0.448,0.066,0.653,0.195
			c0.204,0.131,0.441,0.27,0.712,0.42s0.587,0.291,0.952,0.42c0.365,0.131,0.828,0.195,1.388,0.195c0.44,0,0.817-0.053,1.133-0.158
			c0.315-0.104,0.575-0.242,0.78-0.412s0.354-0.367,0.449-0.592c0.096-0.225,0.143-0.457,0.143-0.697
			c0-0.361-0.107-0.656-0.322-0.885c-0.215-0.23-0.5-0.432-0.855-0.602c-0.354-0.17-0.76-0.322-1.215-0.457s-0.92-0.281-1.395-0.441
			s-0.94-0.348-1.395-0.563c-0.455-0.215-0.861-0.488-1.216-0.818s-0.64-0.734-0.854-1.215s-0.322-1.061-0.322-1.74
			c0-0.631,0.125-1.23,0.375-1.801c0.25-0.568,0.617-1.066,1.102-1.492c0.485-0.424,1.09-0.764,1.815-1.02s1.563-0.383,2.513-0.383
			c1.06,0,2.025,0.176,2.895,0.525c0.87,0.35,1.596,0.811,2.176,1.381L72.414,354.52z"/>
		<path fill="#FF2455" d="M75.849,353.664c1.771-1.619,3.899-2.43,6.39-2.43c0.9,0,1.705,0.148,2.415,0.443s1.31,0.705,1.8,1.229
			c0.49,0.525,0.863,1.154,1.117,1.883c0.256,0.73,0.383,1.531,0.383,2.4v9.721h-1.68c-0.35,0-0.62-0.053-0.811-0.158
			c-0.189-0.105-0.34-0.316-0.449-0.637l-0.33-1.111c-0.391,0.352-0.771,0.658-1.141,0.924c-0.369,0.264-0.755,0.486-1.154,0.666
			c-0.4,0.182-0.828,0.318-1.283,0.414c-0.455,0.094-0.957,0.143-1.507,0.143c-0.65,0-1.251-0.088-1.8-0.264
			c-0.551-0.174-1.025-0.438-1.426-0.787s-0.71-0.785-0.93-1.305c-0.221-0.52-0.33-1.125-0.33-1.814
			c0-0.391,0.064-0.777,0.195-1.164c0.13-0.385,0.342-0.752,0.637-1.102s0.678-0.68,1.148-0.99c0.47-0.311,1.047-0.58,1.732-0.811
			c0.685-0.229,1.482-0.416,2.393-0.563c0.91-0.145,1.949-0.232,3.119-0.262v-0.9c0-1.029-0.22-1.793-0.66-2.287
			c-0.439-0.496-1.074-0.742-1.904-0.742c-0.6,0-1.098,0.07-1.492,0.209c-0.396,0.141-0.742,0.299-1.043,0.473
			c-0.3,0.176-0.572,0.332-0.817,0.473s-0.518,0.211-0.817,0.211c-0.26,0-0.48-0.068-0.66-0.203s-0.325-0.293-0.436-0.473
			L75.849,353.664z M84.338,360.34c-1.07,0.051-1.97,0.143-2.699,0.277c-0.73,0.135-1.315,0.307-1.756,0.518
			c-0.439,0.209-0.754,0.455-0.944,0.734c-0.19,0.281-0.285,0.586-0.285,0.916c0,0.65,0.192,1.115,0.577,1.395
			s0.888,0.42,1.508,0.42c0.76,0,1.418-0.137,1.973-0.412s1.098-0.693,1.627-1.252V360.34z"/>
		<path fill="#FF2455" d="M95.184,344.619v22.291h-3.705v-22.291H95.184z"/>
		<path fill="#FF2455" d="M112.147,351.52v15.391h-2.265c-0.49,0-0.801-0.225-0.93-0.676l-0.256-1.23
			c-0.63,0.641-1.324,1.158-2.084,1.553c-0.761,0.395-1.656,0.594-2.686,0.594c-0.84,0-1.582-0.143-2.228-0.428
			s-1.188-0.688-1.628-1.207c-0.439-0.521-0.771-1.139-0.997-1.854s-0.337-1.502-0.337-2.363v-9.779h3.704v9.779
			c0,0.941,0.218,1.668,0.653,2.184c0.435,0.516,1.087,0.771,1.957,0.771c0.64,0,1.24-0.143,1.8-0.426
			c0.56-0.285,1.09-0.678,1.59-1.178V351.52H112.147z"/>
		<path fill="#FF2455" d="M129.172,344.619v22.291h-2.264c-0.49,0-0.801-0.225-0.931-0.676l-0.315-1.484
			c-0.619,0.709-1.332,1.285-2.137,1.725c-0.806,0.439-1.743,0.66-2.813,0.66c-0.84,0-1.61-0.176-2.311-0.525
			c-0.699-0.35-1.303-0.857-1.807-1.521c-0.506-0.666-0.896-1.488-1.171-2.469c-0.274-0.979-0.412-2.1-0.412-3.359
			c0-1.141,0.155-2.199,0.465-3.18s0.755-1.83,1.335-2.551c0.58-0.719,1.275-1.281,2.085-1.688c0.81-0.404,1.72-0.607,2.729-0.607
			c0.86,0,1.596,0.135,2.205,0.406c0.61,0.27,1.155,0.635,1.636,1.094v-8.115H129.172z M125.468,355.449
			c-0.421-0.51-0.878-0.869-1.372-1.08c-0.496-0.209-1.028-0.314-1.598-0.314c-0.561,0-1.065,0.105-1.516,0.314
			c-0.449,0.211-0.835,0.527-1.154,0.953c-0.32,0.426-0.565,0.965-0.735,1.619c-0.171,0.656-0.255,1.428-0.255,2.318
			c0,0.9,0.072,1.662,0.217,2.287s0.354,1.135,0.623,1.531c0.27,0.395,0.6,0.68,0.99,0.854c0.39,0.176,0.824,0.264,1.305,0.264
			c0.77,0,1.425-0.16,1.965-0.48s1.05-0.775,1.53-1.365V355.449z"/>
		<path fill="#FF2455" d="M139.643,351.279c1.14,0,2.178,0.186,3.112,0.555c0.935,0.371,1.735,0.896,2.399,1.576
			c0.666,0.68,1.178,1.51,1.538,2.49c0.36,0.979,0.54,2.074,0.54,3.285c0,1.219-0.18,2.318-0.54,3.299s-0.872,1.814-1.538,2.506
			c-0.664,0.689-1.465,1.219-2.399,1.59c-0.935,0.369-1.973,0.555-3.112,0.555c-1.15,0-2.195-0.186-3.135-0.555
			c-0.94-0.371-1.743-0.9-2.408-1.59c-0.665-0.691-1.18-1.525-1.545-2.506s-0.547-2.08-0.547-3.299c0-1.211,0.182-2.307,0.547-3.285
			c0.365-0.98,0.88-1.811,1.545-2.49s1.468-1.205,2.408-1.576C137.447,351.465,138.492,351.279,139.643,351.279z M139.643,364.285
			c1.279,0,2.228-0.43,2.842-1.291c0.615-0.859,0.923-2.119,0.923-3.779s-0.308-2.926-0.923-3.795
			c-0.614-0.871-1.563-1.305-2.842-1.305c-1.301,0-2.263,0.438-2.888,1.313s-0.938,2.137-0.938,3.787s0.313,2.908,0.938,3.771
			C137.38,363.852,138.342,364.285,139.643,364.285z"/>
	</g>
</g>
<g>
	
		<line fill="none" stroke="#337C98" stroke-width="10" stroke-linecap="round" stroke-linejoin="round" stroke-miterlimit="10" x1="140.007" y1="258.366" x2="109.974" y2="321.341"/>
	
		<polyline fill="none" stroke="#337C98" stroke-width="10" stroke-linecap="round" stroke-linejoin="round" stroke-miterlimit="10" points="
		127.046,259.144 142.521,253.097 147.562,268.927 	"/>
</g>
<g>
	<circle fill="#337C98" cx="168.742" cy="199.384" r="43.163"/>
	<g>
		<path fill="#FFFFFF" d="M142.26,189.589v3.244l-0.247,1.758c-0.06,0.33-0.157,0.584-0.293,0.76
			c-0.136,0.177-0.36,0.265-0.676,0.265c-0.278,0-0.492-0.088-0.642-0.265c-0.15-0.176-0.256-0.43-0.316-0.76l-0.248-1.758v-3.244
			H142.26z M146.406,189.589v3.244l-0.248,1.758c-0.061,0.33-0.158,0.584-0.293,0.76c-0.135,0.177-0.36,0.265-0.676,0.265
			c-0.277,0-0.492-0.088-0.643-0.265c-0.15-0.176-0.255-0.43-0.314-0.76l-0.248-1.758v-3.244H146.406z"/>
		<path fill="#FFFFFF" d="M151.734,195.56c0.45-0.421,0.945-0.763,1.486-1.025s1.176-0.395,1.904-0.395
			c0.631,0,1.189,0.107,1.678,0.321s0.896,0.515,1.223,0.901s0.574,0.849,0.743,1.386s0.253,1.128,0.253,1.774v7.355h-2.781v-7.355
			c0-0.706-0.162-1.253-0.484-1.64c-0.323-0.387-0.815-0.58-1.477-0.58c-0.48,0-0.931,0.109-1.352,0.327
			c-0.42,0.218-0.818,0.514-1.193,0.89v8.358h-2.783v-16.739h2.783V195.56z"/>
		<path fill="#FFFFFF" d="M166.771,194.14c0.857,0,1.636,0.14,2.338,0.417c0.702,0.278,1.303,0.673,1.803,1.183
			c0.499,0.511,0.885,1.135,1.154,1.87c0.271,0.736,0.406,1.559,0.406,2.467c0,0.917-0.136,1.743-0.406,2.479
			c-0.27,0.736-0.655,1.363-1.154,1.882c-0.5,0.518-1.101,0.916-1.803,1.193c-0.702,0.278-1.48,0.417-2.338,0.417
			c-0.863,0-1.648-0.139-2.354-0.417c-0.706-0.277-1.309-0.676-1.809-1.193c-0.499-0.519-0.886-1.146-1.16-1.882
			c-0.273-0.735-0.41-1.562-0.41-2.479c0-0.908,0.137-1.73,0.41-2.467c0.274-0.735,0.661-1.359,1.16-1.87
			c0.5-0.51,1.103-0.904,1.809-1.183C165.123,194.279,165.908,194.14,166.771,194.14z M166.771,203.906
			c0.962,0,1.674-0.322,2.135-0.969c0.463-0.646,0.693-1.592,0.693-2.839c0-1.246-0.23-2.196-0.693-2.85
			c-0.461-0.653-1.173-0.979-2.135-0.979c-0.976,0-1.699,0.328-2.168,0.985s-0.703,1.605-0.703,2.844
			c0,1.239,0.234,2.184,0.703,2.834C165.072,203.582,165.796,203.906,166.771,203.906z"/>
		<path fill="#FFFFFF" d="M177.418,189.139v16.739h-2.783v-16.739H177.418z"/>
		<path fill="#FFFFFF" d="M179.93,195.931c1.328-1.216,2.928-1.824,4.799-1.824c0.676,0,1.279,0.11,1.813,0.332
			s0.984,0.529,1.353,0.924s0.647,0.865,0.839,1.414c0.191,0.548,0.287,1.148,0.287,1.802v7.3h-1.262
			c-0.263,0-0.465-0.039-0.607-0.118s-0.256-0.238-0.338-0.479l-0.248-0.834c-0.293,0.263-0.578,0.494-0.856,0.692
			c-0.278,0.199-0.567,0.366-0.867,0.502c-0.301,0.135-0.622,0.238-0.964,0.31s-0.719,0.107-1.132,0.107
			c-0.487,0-0.938-0.066-1.352-0.197c-0.413-0.132-0.771-0.329-1.07-0.592s-0.533-0.59-0.698-0.979
			c-0.165-0.391-0.248-0.846-0.248-1.363c0-0.293,0.049-0.584,0.146-0.873s0.258-0.565,0.479-0.828
			c0.222-0.263,0.51-0.511,0.862-0.743c0.353-0.233,0.786-0.436,1.301-0.608s1.113-0.313,1.797-0.423
			c0.683-0.108,1.464-0.175,2.343-0.197v-0.676c0-0.773-0.165-1.346-0.495-1.718c-0.331-0.372-0.808-0.558-1.431-0.558
			c-0.451,0-0.824,0.053-1.121,0.158c-0.297,0.104-0.558,0.224-0.783,0.354c-0.225,0.132-0.43,0.25-0.613,0.354
			c-0.185,0.105-0.389,0.158-0.614,0.158c-0.195,0-0.36-0.051-0.495-0.152c-0.136-0.102-0.244-0.22-0.327-0.354L179.93,195.931z
			 M186.305,200.944c-0.803,0.037-1.479,0.106-2.027,0.208s-0.988,0.23-1.318,0.389c-0.33,0.157-0.566,0.342-0.709,0.552
			c-0.143,0.211-0.215,0.439-0.215,0.688c0,0.488,0.145,0.837,0.434,1.048c0.289,0.21,0.667,0.315,1.133,0.315
			c0.57,0,1.064-0.104,1.481-0.311c0.417-0.206,0.823-0.52,1.222-0.94V200.944z"/>
		<path fill="#FFFFFF" d="M193.504,189.589v3.244l-0.248,1.758c-0.061,0.33-0.158,0.584-0.293,0.76
			c-0.135,0.177-0.36,0.265-0.676,0.265c-0.277,0-0.492-0.088-0.643-0.265c-0.15-0.176-0.255-0.43-0.314-0.76l-0.248-1.758v-3.244
			H193.504z M197.648,189.589v3.244l-0.247,1.758c-0.061,0.33-0.157,0.584-0.293,0.76c-0.136,0.177-0.36,0.265-0.676,0.265
			c-0.278,0-0.492-0.088-0.642-0.265c-0.15-0.176-0.256-0.43-0.316-0.76l-0.248-1.758v-3.244H197.648z"/>
	</g>
</g>
<g>
	<circle fill="#337C98" cx="267.744" cy="246.384" r="43.163"/>
	<g>
		<path fill="#FFFFFF" d="M241.768,225.589v3.244l-0.248,1.758c-0.061,0.33-0.158,0.584-0.293,0.76
			c-0.135,0.177-0.36,0.265-0.676,0.265c-0.277,0-0.492-0.088-0.643-0.265c-0.15-0.176-0.255-0.43-0.314-0.76l-0.248-1.758v-3.244
			H241.768z M245.912,225.589v3.244l-0.247,1.758c-0.061,0.33-0.157,0.584-0.293,0.76c-0.136,0.177-0.36,0.265-0.676,0.265
			c-0.278,0-0.492-0.088-0.642-0.265c-0.15-0.176-0.256-0.43-0.316-0.76l-0.248-1.758v-3.244H245.912z"/>
		<path fill="#FFFFFF" d="M251.24,231.739c0.466-0.487,0.982-0.876,1.549-1.166c0.567-0.288,1.215-0.434,1.943-0.434
			c0.668,0,1.271,0.132,1.809,0.395s0.994,0.641,1.374,1.132c0.38,0.492,0.671,1.088,0.873,1.786s0.304,1.483,0.304,2.354
			c0,0.938-0.116,1.791-0.349,2.557c-0.233,0.766-0.565,1.421-0.997,1.966s-0.951,0.967-1.561,1.268
			c-0.607,0.3-1.283,0.45-2.027,0.45c-0.36,0-0.688-0.036-0.98-0.107s-0.563-0.17-0.811-0.298s-0.475-0.283-0.682-0.468
			c-0.207-0.184-0.404-0.389-0.592-0.614l-0.123,0.777c-0.045,0.195-0.123,0.335-0.231,0.417c-0.108,0.083-0.257,0.124-0.444,0.124
			h-1.836v-16.739h2.781V231.739z M251.24,238.882c0.316,0.383,0.66,0.653,1.031,0.811c0.371,0.158,0.764,0.236,1.178,0.236
			c0.428,0,0.813-0.076,1.154-0.23s0.633-0.395,0.873-0.721c0.24-0.327,0.424-0.744,0.552-1.251s0.191-1.113,0.191-1.819
			c0-1.269-0.21-2.187-0.631-2.754s-1.024-0.851-1.813-0.851c-0.533,0-0.999,0.122-1.396,0.366c-0.398,0.244-0.777,0.588-1.139,1.03
			V238.882z"/>
		<path fill="#FFFFFF" d="M271.202,230.32v11.558h-1.701c-0.368,0-0.601-0.169-0.698-0.507l-0.191-0.924
			c-0.473,0.48-0.996,0.869-1.566,1.166s-1.242,0.445-2.016,0.445c-0.631,0-1.189-0.107-1.674-0.321s-0.891-0.517-1.222-0.907
			s-0.58-0.854-0.749-1.391s-0.254-1.129-0.254-1.774v-7.345h2.783v7.345c0,0.706,0.163,1.252,0.49,1.639
			c0.326,0.387,0.816,0.58,1.469,0.58c0.481,0,0.932-0.106,1.353-0.32c0.421-0.215,0.818-0.509,1.194-0.885v-8.358H271.202z"/>
		<path fill="#FFFFFF" d="M276.091,236.448c0.045,0.594,0.149,1.105,0.315,1.538c0.165,0.432,0.383,0.788,0.653,1.069
			c0.271,0.282,0.591,0.492,0.963,0.631c0.372,0.14,0.783,0.209,1.233,0.209c0.451,0,0.84-0.053,1.166-0.158
			c0.326-0.104,0.612-0.221,0.856-0.349c0.243-0.128,0.458-0.244,0.642-0.35c0.184-0.104,0.363-0.157,0.535-0.157
			c0.232,0,0.406,0.086,0.519,0.259l0.8,1.014c-0.309,0.36-0.653,0.663-1.037,0.907c-0.383,0.244-0.782,0.439-1.199,0.586
			c-0.416,0.146-0.841,0.249-1.273,0.31c-0.432,0.06-0.85,0.09-1.256,0.09c-0.803,0-1.551-0.134-2.241-0.399
			c-0.69-0.267-1.292-0.661-1.802-1.184c-0.512-0.521-0.913-1.167-1.206-1.938c-0.292-0.77-0.438-1.661-0.438-2.675
			c0-0.789,0.127-1.53,0.383-2.225c0.255-0.695,0.621-1.3,1.098-1.814c0.477-0.514,1.059-0.922,1.746-1.222
			c0.688-0.301,1.463-0.451,2.326-0.451c0.729,0,1.4,0.117,2.017,0.35s1.146,0.572,1.589,1.02c0.442,0.447,0.789,0.995,1.041,1.645
			s0.378,1.392,0.378,2.225c0,0.421-0.046,0.704-0.136,0.851s-0.263,0.22-0.518,0.22H276.091z M281.396,234.77
			c0-0.36-0.051-0.7-0.152-1.02c-0.102-0.318-0.253-0.599-0.456-0.839c-0.202-0.24-0.46-0.43-0.771-0.568
			c-0.312-0.14-0.675-0.209-1.087-0.209c-0.804,0-1.437,0.229-1.898,0.688s-0.756,1.107-0.885,1.948H281.396z"/>
		<path fill="#FFFFFF" d="M288.584,231.739c0.232-0.232,0.479-0.448,0.737-0.647s0.533-0.368,0.822-0.507s0.599-0.248,0.929-0.326
			c0.331-0.079,0.691-0.119,1.082-0.119c0.631,0,1.19,0.107,1.679,0.321c0.487,0.214,0.896,0.515,1.222,0.901
			c0.327,0.387,0.574,0.849,0.744,1.386c0.168,0.537,0.253,1.128,0.253,1.774v7.355h-2.782v-7.355c0-0.706-0.162-1.253-0.484-1.64
			s-0.814-0.58-1.476-0.58c-0.481,0-0.931,0.109-1.353,0.327c-0.42,0.218-0.818,0.514-1.193,0.89v8.358h-2.782V230.32h1.7
			c0.361,0,0.598,0.169,0.711,0.507L288.584,231.739z"/>
		<path fill="#FFFFFF" d="M259.898,252.174v16.739h-1.701c-0.368,0-0.602-0.169-0.699-0.507l-0.236-1.115
			c-0.465,0.533-1,0.965-1.605,1.295c-0.604,0.331-1.309,0.496-2.111,0.496c-0.631,0-1.209-0.132-1.734-0.395
			c-0.526-0.263-0.979-0.644-1.357-1.144c-0.38-0.499-0.673-1.116-0.879-1.853c-0.207-0.736-0.311-1.577-0.311-2.523
			c0-0.856,0.117-1.652,0.35-2.388c0.232-0.736,0.566-1.375,1.002-1.915c0.436-0.541,0.958-0.964,1.566-1.268
			s1.291-0.456,2.051-0.456c0.645,0,1.197,0.102,1.655,0.304c0.458,0.203,0.868,0.478,1.228,0.822v-6.094H259.898z M257.115,260.307
			c-0.314-0.383-0.658-0.653-1.03-0.811c-0.372-0.158-0.771-0.237-1.2-0.237c-0.42,0-0.799,0.079-1.137,0.237
			c-0.338,0.157-0.628,0.396-0.868,0.715s-0.425,0.725-0.552,1.217c-0.128,0.492-0.191,1.072-0.191,1.74
			c0,0.676,0.055,1.249,0.163,1.718c0.108,0.47,0.265,0.853,0.468,1.149s0.451,0.511,0.743,0.642
			c0.293,0.132,0.62,0.197,0.979,0.197c0.579,0,1.07-0.12,1.477-0.36c0.405-0.24,0.789-0.582,1.148-1.025V260.307z"/>
		<path fill="#FFFFFF" d="M268.121,252.444l-2.783,2.939c-0.143,0.15-0.279,0.254-0.41,0.311c-0.132,0.056-0.303,0.084-0.513,0.084
			h-1.667l1.6-2.737c0.112-0.195,0.244-0.344,0.395-0.445c0.149-0.101,0.375-0.151,0.676-0.151H268.121z M265.53,257.355v11.558
			h-2.782v-11.558H265.53z"/>
		<path fill="#FFFFFF" d="M268.109,258.966c1.329-1.216,2.929-1.824,4.799-1.824c0.676,0,1.28,0.11,1.813,0.332
			s0.983,0.529,1.353,0.924c0.367,0.395,0.646,0.865,0.838,1.414c0.192,0.548,0.288,1.148,0.288,1.802v7.3h-1.262
			c-0.263,0-0.466-0.039-0.608-0.118s-0.256-0.238-0.338-0.479l-0.248-0.834c-0.293,0.263-0.578,0.494-0.855,0.692
			c-0.278,0.199-0.568,0.366-0.867,0.502c-0.301,0.135-0.622,0.238-0.964,0.31s-0.72,0.107-1.132,0.107
			c-0.488,0-0.939-0.066-1.352-0.197c-0.414-0.132-0.771-0.329-1.07-0.592c-0.301-0.263-0.533-0.59-0.699-0.979
			c-0.164-0.391-0.248-0.846-0.248-1.363c0-0.293,0.049-0.584,0.146-0.873s0.258-0.565,0.479-0.828s0.509-0.511,0.862-0.743
			c0.352-0.233,0.786-0.436,1.301-0.608c0.514-0.173,1.113-0.313,1.797-0.423c0.683-0.108,1.464-0.175,2.343-0.197v-0.676
			c0-0.773-0.165-1.346-0.495-1.718c-0.331-0.372-0.809-0.558-1.432-0.558c-0.45,0-0.824,0.053-1.121,0.158
			c-0.297,0.104-0.557,0.224-0.782,0.354c-0.226,0.132-0.431,0.25-0.614,0.354c-0.184,0.105-0.389,0.158-0.613,0.158
			c-0.195,0-0.361-0.051-0.496-0.152s-0.244-0.22-0.326-0.354L268.109,258.966z M274.485,263.979
			c-0.804,0.037-1.479,0.106-2.028,0.208c-0.548,0.102-0.987,0.23-1.317,0.389c-0.331,0.157-0.567,0.342-0.71,0.552
			c-0.143,0.211-0.214,0.439-0.214,0.688c0,0.488,0.145,0.837,0.434,1.048c0.289,0.21,0.667,0.315,1.132,0.315
			c0.57,0,1.064-0.104,1.482-0.311c0.416-0.206,0.823-0.52,1.222-0.94V263.979z"/>
		<path fill="#FFFFFF" d="M281.684,252.624v3.244l-0.248,1.758c-0.06,0.33-0.157,0.584-0.293,0.76
			c-0.135,0.177-0.359,0.265-0.676,0.265c-0.277,0-0.492-0.088-0.642-0.265c-0.15-0.176-0.255-0.43-0.315-0.76l-0.248-1.758v-3.244
			H281.684z M285.829,252.624v3.244l-0.247,1.758c-0.061,0.33-0.158,0.584-0.293,0.76c-0.136,0.177-0.361,0.265-0.676,0.265
			c-0.278,0-0.492-0.088-0.643-0.265c-0.15-0.176-0.256-0.43-0.315-0.76l-0.248-1.758v-3.244H285.829z"/>
	</g>
</g>
<g>
	<g>
		<path fill="#FF2455" d="M291.818,344.619v22.291h-2.265c-0.49,0-0.8-0.225-0.931-0.676l-0.314-1.484
			c-0.62,0.709-1.332,1.285-2.138,1.725s-1.743,0.66-2.813,0.66c-0.84,0-1.61-0.176-2.31-0.525c-0.7-0.35-1.303-0.857-1.808-1.521
			c-0.505-0.666-0.896-1.488-1.171-2.469c-0.274-0.979-0.412-2.1-0.412-3.359c0-1.141,0.155-2.199,0.465-3.18
			c0.311-0.98,0.756-1.83,1.336-2.551c0.58-0.719,1.274-1.281,2.084-1.688c0.811-0.404,1.721-0.607,2.73-0.607
			c0.859,0,1.596,0.135,2.205,0.406c0.609,0.27,1.154,0.635,1.635,1.094v-8.115H291.818z M288.113,355.449
			c-0.42-0.51-0.877-0.869-1.372-1.08c-0.495-0.209-1.028-0.314-1.598-0.314c-0.56,0-1.065,0.105-1.515,0.314
			c-0.45,0.211-0.836,0.527-1.155,0.953c-0.32,0.426-0.565,0.965-0.735,1.619c-0.17,0.656-0.255,1.428-0.255,2.318
			c0,0.9,0.073,1.662,0.218,2.287s0.353,1.135,0.623,1.531c0.27,0.395,0.6,0.68,0.989,0.854c0.39,0.176,0.825,0.264,1.306,0.264
			c0.77,0,1.424-0.16,1.965-0.48c0.539-0.32,1.049-0.775,1.529-1.365V355.449z"/>
		<path fill="#FF2455" d="M298.328,359.68c0.061,0.791,0.2,1.473,0.42,2.047c0.221,0.576,0.51,1.051,0.871,1.426
			c0.359,0.375,0.787,0.654,1.281,0.84c0.496,0.186,1.043,0.277,1.643,0.277c0.601,0,1.118-0.07,1.553-0.209
			c0.436-0.141,0.814-0.295,1.141-0.467c0.324-0.17,0.609-0.324,0.854-0.465c0.245-0.139,0.482-0.209,0.712-0.209
			c0.311,0,0.541,0.115,0.691,0.346l1.064,1.35c-0.41,0.479-0.87,0.883-1.381,1.207c-0.51,0.324-1.042,0.584-1.597,0.779
			c-0.556,0.195-1.12,0.332-1.695,0.414c-0.575,0.078-1.132,0.119-1.673,0.119c-1.07,0-2.064-0.178-2.984-0.533
			c-0.92-0.354-1.721-0.879-2.4-1.574s-1.215-1.555-1.604-2.58s-0.585-2.213-0.585-3.563c0-1.051,0.17-2.037,0.51-2.963
			c0.34-0.924,0.827-1.73,1.463-2.414c0.635-0.686,1.41-1.229,2.324-1.629c0.916-0.398,1.947-0.6,3.098-0.6
			c0.971,0,1.865,0.156,2.686,0.465c0.819,0.311,1.524,0.764,2.115,1.357c0.59,0.596,1.052,1.326,1.387,2.191
			s0.503,1.852,0.503,2.961c0,0.561-0.06,0.938-0.181,1.133c-0.119,0.195-0.35,0.293-0.689,0.293H298.328z M305.394,357.445
			c0-0.48-0.067-0.934-0.202-1.357c-0.135-0.426-0.338-0.799-0.607-1.119c-0.271-0.318-0.613-0.572-1.027-0.756
			c-0.416-0.186-0.898-0.277-1.448-0.277c-1.07,0-1.913,0.305-2.527,0.914c-0.615,0.609-1.008,1.475-1.178,2.596H305.394z"/>
		<path fill="#FF2455" d="M320.889,354.52c-0.101,0.16-0.205,0.273-0.316,0.338c-0.109,0.064-0.25,0.098-0.42,0.098
			c-0.18,0-0.372-0.051-0.576-0.15c-0.205-0.1-0.443-0.213-0.713-0.338c-0.271-0.125-0.578-0.236-0.923-0.338
			c-0.345-0.1-0.753-0.148-1.223-0.148c-0.729,0-1.302,0.154-1.718,0.465c-0.414,0.309-0.622,0.715-0.622,1.215
			c0,0.33,0.107,0.607,0.323,0.832c0.215,0.225,0.499,0.422,0.854,0.592c0.354,0.17,0.757,0.322,1.208,0.459
			c0.449,0.135,0.906,0.281,1.371,0.441c0.466,0.16,0.924,0.344,1.373,0.547c0.45,0.205,0.853,0.467,1.207,0.781
			c0.355,0.314,0.641,0.691,0.855,1.133c0.215,0.439,0.322,0.969,0.322,1.59c0,0.74-0.133,1.422-0.396,2.047
			c-0.266,0.625-0.658,1.166-1.178,1.621c-0.521,0.455-1.163,0.809-1.928,1.064c-0.766,0.254-1.648,0.383-2.647,0.383
			c-0.53,0-1.048-0.049-1.553-0.143c-0.505-0.096-0.989-0.229-1.455-0.398c-0.465-0.17-0.896-0.369-1.29-0.6s-0.742-0.48-1.043-0.75
			l0.855-1.41c0.109-0.17,0.24-0.301,0.391-0.391c0.149-0.09,0.34-0.135,0.569-0.135s0.448,0.066,0.653,0.195
			c0.204,0.131,0.441,0.27,0.712,0.42s0.587,0.291,0.952,0.42c0.365,0.131,0.828,0.195,1.388,0.195c0.44,0,0.817-0.053,1.133-0.158
			c0.315-0.104,0.575-0.242,0.78-0.412s0.354-0.367,0.449-0.592c0.096-0.225,0.143-0.457,0.143-0.697
			c0-0.361-0.107-0.656-0.322-0.885c-0.215-0.23-0.5-0.432-0.855-0.602c-0.354-0.17-0.76-0.322-1.215-0.457s-0.92-0.281-1.395-0.441
			s-0.94-0.348-1.395-0.563c-0.455-0.215-0.861-0.488-1.216-0.818s-0.64-0.734-0.854-1.215s-0.322-1.061-0.322-1.74
			c0-0.631,0.125-1.23,0.375-1.801c0.25-0.568,0.617-1.066,1.102-1.492c0.485-0.424,1.09-0.764,1.815-1.02s1.563-0.383,2.513-0.383
			c1.06,0,2.025,0.176,2.895,0.525c0.87,0.35,1.596,0.811,2.176,1.381L320.889,354.52z"/>
		<path fill="#FF2455" d="M328.193,353.619c0.63-0.709,1.345-1.285,2.145-1.725c0.801-0.439,1.74-0.66,2.82-0.66
			c0.84,0,1.607,0.176,2.303,0.525c0.694,0.35,1.295,0.857,1.8,1.521c0.505,0.666,0.895,1.486,1.17,2.461
			c0.274,0.975,0.413,2.092,0.413,3.352c0,1.15-0.156,2.217-0.466,3.195c-0.31,0.98-0.753,1.83-1.327,2.551
			c-0.575,0.721-1.271,1.283-2.086,1.688c-0.814,0.404-1.727,0.607-2.736,0.607c-0.861,0-1.596-0.133-2.205-0.398
			c-0.61-0.264-1.155-0.631-1.635-1.102v6.301h-3.705V351.52h2.265c0.479,0,0.795,0.225,0.944,0.676L328.193,353.619z
			 M328.389,362.92c0.42,0.51,0.877,0.869,1.372,1.08c0.495,0.209,1.032,0.314,1.612,0.314c0.561,0,1.064-0.105,1.516-0.314
			c0.449-0.211,0.832-0.529,1.146-0.961c0.315-0.43,0.558-0.973,0.729-1.627c0.17-0.654,0.254-1.428,0.254-2.318
			c0-0.898-0.072-1.662-0.217-2.287c-0.146-0.625-0.353-1.133-0.623-1.521c-0.27-0.391-0.598-0.676-0.982-0.855
			s-0.822-0.27-1.313-0.27c-0.77,0-1.425,0.162-1.965,0.486c-0.54,0.326-1.05,0.783-1.529,1.373V362.92z"/>
		<path fill="#FF2455" d="M344.573,359.68c0.06,0.791,0.2,1.473,0.42,2.047c0.22,0.576,0.51,1.051,0.87,1.426
			c0.359,0.375,0.787,0.654,1.282,0.84s1.042,0.277,1.643,0.277s1.118-0.07,1.552-0.209c0.436-0.141,0.815-0.295,1.141-0.467
			c0.324-0.17,0.609-0.324,0.855-0.465c0.244-0.139,0.482-0.209,0.712-0.209c0.31,0,0.54,0.115,0.69,0.346l1.064,1.35
			c-0.41,0.479-0.869,0.883-1.38,1.207c-0.51,0.324-1.042,0.584-1.597,0.779c-0.556,0.195-1.121,0.332-1.695,0.414
			c-0.576,0.078-1.133,0.119-1.673,0.119c-1.07,0-2.065-0.178-2.985-0.533c-0.92-0.354-1.72-0.879-2.399-1.574
			c-0.681-0.695-1.216-1.555-1.604-2.58c-0.391-1.025-0.586-2.213-0.586-3.563c0-1.051,0.17-2.037,0.51-2.963
			c0.34-0.924,0.828-1.73,1.463-2.414c0.635-0.686,1.41-1.229,2.325-1.629c0.915-0.398,1.947-0.6,3.097-0.6
			c0.971,0,1.865,0.156,2.686,0.465c0.82,0.311,1.525,0.764,2.115,1.357c0.59,0.596,1.053,1.326,1.387,2.191
			c0.336,0.865,0.504,1.852,0.504,2.961c0,0.561-0.061,0.938-0.181,1.133s-0.351,0.293-0.69,0.293H344.573z M351.639,357.445
			c0-0.48-0.068-0.934-0.203-1.357c-0.135-0.426-0.338-0.799-0.607-1.119c-0.27-0.318-0.613-0.572-1.027-0.756
			c-0.416-0.186-0.898-0.277-1.447-0.277c-1.07,0-1.913,0.305-2.527,0.914c-0.615,0.609-1.008,1.475-1.178,2.596H351.639z"/>
		<path fill="#FF2455" d="M371.107,344.619v22.291h-2.265c-0.49,0-0.8-0.225-0.931-0.676l-0.314-1.484
			c-0.62,0.709-1.332,1.285-2.138,1.725s-1.743,0.66-2.813,0.66c-0.84,0-1.61-0.176-2.31-0.525c-0.7-0.35-1.303-0.857-1.808-1.521
			c-0.505-0.666-0.896-1.488-1.171-2.469c-0.274-0.979-0.412-2.1-0.412-3.359c0-1.141,0.155-2.199,0.465-3.18
			c0.311-0.98,0.756-1.83,1.336-2.551c0.58-0.719,1.274-1.281,2.084-1.688c0.811-0.404,1.721-0.607,2.73-0.607
			c0.859,0,1.596,0.135,2.205,0.406c0.609,0.27,1.154,0.635,1.635,1.094v-8.115H371.107z M367.402,355.449
			c-0.42-0.51-0.877-0.869-1.372-1.08c-0.495-0.209-1.028-0.314-1.598-0.314c-0.56,0-1.065,0.105-1.515,0.314
			c-0.45,0.211-0.836,0.527-1.155,0.953c-0.32,0.426-0.565,0.965-0.735,1.619c-0.17,0.656-0.255,1.428-0.255,2.318
			c0,0.9,0.073,1.662,0.218,2.287s0.353,1.135,0.623,1.531c0.27,0.395,0.6,0.68,0.989,0.854c0.39,0.176,0.825,0.264,1.306,0.264
			c0.77,0,1.424-0.16,1.965-0.48c0.539-0.32,1.049-0.775,1.529-1.365V355.449z"/>
		<path fill="#FF2455" d="M379.117,347.035c0,0.32-0.064,0.619-0.195,0.9c-0.129,0.279-0.302,0.523-0.518,0.734
			c-0.215,0.209-0.467,0.377-0.757,0.502s-0.601,0.188-0.931,0.188c-0.319,0-0.621-0.063-0.906-0.188s-0.533-0.293-0.743-0.502
			c-0.21-0.211-0.378-0.455-0.503-0.734c-0.125-0.281-0.188-0.58-0.188-0.9c0-0.33,0.063-0.641,0.188-0.93
			c0.125-0.291,0.293-0.541,0.503-0.75c0.21-0.211,0.458-0.379,0.743-0.504s0.587-0.188,0.906-0.188c0.33,0,0.641,0.063,0.931,0.188
			s0.542,0.293,0.757,0.504c0.216,0.209,0.389,0.459,0.518,0.75C379.053,346.395,379.117,346.705,379.117,347.035z M378.607,351.52
			v15.391h-3.72V351.52H378.607z"/>
		<path fill="#FF2455" d="M395.752,344.619v22.291h-2.264c-0.49,0-0.801-0.225-0.931-0.676l-0.315-1.484
			c-0.619,0.709-1.332,1.285-2.137,1.725c-0.806,0.439-1.743,0.66-2.813,0.66c-0.84,0-1.61-0.176-2.311-0.525
			c-0.699-0.35-1.303-0.857-1.807-1.521c-0.506-0.666-0.896-1.488-1.171-2.469c-0.274-0.979-0.412-2.1-0.412-3.359
			c0-1.141,0.155-2.199,0.465-3.18s0.755-1.83,1.335-2.551c0.58-0.719,1.275-1.281,2.085-1.688c0.81-0.404,1.72-0.607,2.729-0.607
			c0.86,0,1.596,0.135,2.205,0.406c0.61,0.27,1.155,0.635,1.636,1.094v-8.115H395.752z M392.048,355.449
			c-0.421-0.51-0.878-0.869-1.372-1.08c-0.496-0.209-1.028-0.314-1.598-0.314c-0.561,0-1.065,0.105-1.516,0.314
			c-0.449,0.211-0.835,0.527-1.154,0.953c-0.32,0.426-0.565,0.965-0.735,1.619c-0.171,0.656-0.255,1.428-0.255,2.318
			c0,0.9,0.072,1.662,0.217,2.287s0.354,1.135,0.623,1.531c0.27,0.395,0.6,0.68,0.99,0.854c0.39,0.176,0.824,0.264,1.305,0.264
			c0.77,0,1.425-0.16,1.965-0.48s1.05-0.775,1.53-1.365V355.449z"/>
		<path fill="#FF2455" d="M399.053,353.664c1.77-1.619,3.899-2.43,6.389-2.43c0.9,0,1.705,0.148,2.416,0.443
			c0.709,0.295,1.31,0.705,1.8,1.229c0.489,0.525,0.862,1.154,1.117,1.883c0.255,0.73,0.383,1.531,0.383,2.4v9.721h-1.681
			c-0.35,0-0.619-0.053-0.81-0.158s-0.34-0.316-0.45-0.637l-0.33-1.111c-0.39,0.352-0.77,0.658-1.14,0.924
			c-0.37,0.264-0.755,0.486-1.155,0.666c-0.4,0.182-0.827,0.318-1.282,0.414c-0.455,0.094-0.958,0.143-1.507,0.143
			c-0.65,0-1.251-0.088-1.801-0.264c-0.55-0.174-1.025-0.438-1.425-0.787c-0.4-0.35-0.71-0.785-0.931-1.305
			c-0.22-0.52-0.33-1.125-0.33-1.814c0-0.391,0.065-0.777,0.195-1.164c0.131-0.385,0.343-0.752,0.638-1.102s0.677-0.68,1.147-0.99
			s1.047-0.58,1.732-0.811c0.686-0.229,1.482-0.416,2.393-0.563c0.91-0.145,1.95-0.232,3.12-0.262v-0.9
			c0-1.029-0.22-1.793-0.66-2.287c-0.44-0.496-1.075-0.742-1.905-0.742c-0.6,0-1.098,0.07-1.492,0.209
			c-0.395,0.141-0.742,0.299-1.043,0.473c-0.299,0.176-0.572,0.332-0.816,0.473c-0.246,0.141-0.518,0.211-0.818,0.211
			c-0.26,0-0.479-0.068-0.66-0.203c-0.18-0.135-0.324-0.293-0.435-0.473L399.053,353.664z M407.542,360.34
			c-1.07,0.051-1.97,0.143-2.7,0.277s-1.314,0.307-1.755,0.518c-0.44,0.209-0.755,0.455-0.944,0.734
			c-0.19,0.281-0.285,0.586-0.285,0.916c0,0.65,0.191,1.115,0.577,1.395c0.385,0.279,0.888,0.42,1.507,0.42
			c0.76,0,1.418-0.137,1.973-0.412c0.556-0.275,1.098-0.693,1.628-1.252V360.34z"/>
	</g>
</g>
<g>
	
		<line fill="none" stroke="#337C98" stroke-width="10" stroke-linecap="round" stroke-linejoin="round" stroke-miterlimit="10" x1="324.821" y1="126.784" x2="365.783" y2="70.305"/>
	
		<polyline fill="none" stroke="#337C98" stroke-width="10" stroke-linecap="round" stroke-linejoin="round" stroke-miterlimit="10" points="
		337.708,128.372 321.394,131.511 319.309,115.028 	"/>
</g>
<g>
	<g>
		<path fill="#FF2455" d="M274.794,31.279c1.14,0,2.177,0.186,3.112,0.555c0.936,0.371,1.734,0.896,2.4,1.576
			c0.664,0.68,1.178,1.51,1.537,2.49c0.359,0.979,0.54,2.074,0.54,3.285c0,1.219-0.181,2.318-0.54,3.299s-0.873,1.814-1.537,2.506
			c-0.666,0.689-1.465,1.219-2.4,1.59c-0.936,0.369-1.973,0.555-3.112,0.555c-1.15,0-2.195-0.186-3.136-0.555
			c-0.939-0.371-1.742-0.9-2.406-1.59c-0.666-0.691-1.181-1.525-1.545-2.506c-0.365-0.98-0.549-2.08-0.549-3.299
			c0-1.211,0.184-2.307,0.549-3.285c0.364-0.98,0.879-1.811,1.545-2.49c0.664-0.68,1.467-1.205,2.406-1.576
			C272.599,31.465,273.644,31.279,274.794,31.279z M274.794,44.285c1.28,0,2.228-0.43,2.843-1.291
			c0.615-0.859,0.922-2.119,0.922-3.779s-0.307-2.926-0.922-3.795c-0.615-0.871-1.563-1.305-2.843-1.305
			c-1.3,0-2.263,0.438-2.888,1.313s-0.938,2.137-0.938,3.787s0.313,2.908,0.938,3.771C272.531,43.852,273.494,44.285,274.794,44.285
			z"/>
		<path fill="#FF2455" d="M290.049,47.15c-1.34,0-2.367-0.379-3.082-1.133c-0.715-0.756-1.072-1.797-1.072-3.127v-8.596h-1.576
			c-0.199,0-0.369-0.064-0.51-0.195c-0.14-0.129-0.21-0.324-0.21-0.584v-1.471l2.476-0.404l0.779-4.201
			c0.051-0.199,0.145-0.355,0.285-0.465s0.32-0.164,0.54-0.164h1.92v4.844h4.11v2.641h-4.11v8.34c0,0.48,0.118,0.855,0.353,1.125
			s0.558,0.404,0.968,0.404c0.229,0,0.423-0.027,0.577-0.082c0.155-0.055,0.29-0.113,0.405-0.172
			c0.114-0.061,0.218-0.117,0.308-0.174c0.09-0.055,0.18-0.082,0.27-0.082c0.11,0,0.2,0.027,0.271,0.082
			c0.069,0.057,0.145,0.139,0.225,0.248l1.11,1.801c-0.54,0.449-1.16,0.789-1.86,1.02S290.799,47.15,290.049,47.15z"/>
		<path fill="#FF2455" d="M299.574,34.189c0.479-0.92,1.049-1.643,1.709-2.168c0.66-0.523,1.44-0.787,2.34-0.787
			c0.711,0,1.28,0.156,1.711,0.465l-0.24,2.775c-0.051,0.18-0.123,0.307-0.218,0.383c-0.095,0.074-0.223,0.111-0.382,0.111
			c-0.15,0-0.373-0.023-0.668-0.074c-0.295-0.049-0.583-0.074-0.863-0.074c-0.41,0-0.774,0.059-1.094,0.18
			c-0.32,0.119-0.607,0.293-0.863,0.518c-0.255,0.225-0.48,0.498-0.675,0.816c-0.194,0.32-0.378,0.686-0.548,1.096v9.48h-3.705
			V31.52h2.176c0.379,0,0.645,0.068,0.795,0.203s0.25,0.377,0.3,0.727L299.574,34.189z"/>
		<path fill="#FF2455" d="M313.644,31.279c1.14,0,2.177,0.186,3.112,0.555c0.936,0.371,1.734,0.896,2.4,1.576
			c0.664,0.68,1.178,1.51,1.537,2.49c0.359,0.979,0.54,2.074,0.54,3.285c0,1.219-0.181,2.318-0.54,3.299s-0.873,1.814-1.537,2.506
			c-0.666,0.689-1.465,1.219-2.4,1.59c-0.936,0.369-1.973,0.555-3.112,0.555c-1.15,0-2.195-0.186-3.136-0.555
			c-0.939-0.371-1.742-0.9-2.406-1.59c-0.666-0.691-1.181-1.525-1.545-2.506c-0.365-0.98-0.549-2.08-0.549-3.299
			c0-1.211,0.184-2.307,0.549-3.285c0.364-0.98,0.879-1.811,1.545-2.49c0.664-0.68,1.467-1.205,2.406-1.576
			C311.448,31.465,312.493,31.279,313.644,31.279z M313.644,44.285c1.28,0,2.228-0.43,2.843-1.291
			c0.615-0.859,0.922-2.119,0.922-3.779s-0.307-2.926-0.922-3.795c-0.615-0.871-1.563-1.305-2.843-1.305
			c-1.3,0-2.263,0.438-2.888,1.313s-0.938,2.137-0.938,3.787s0.313,2.908,0.938,3.771C311.381,43.852,312.344,44.285,313.644,44.285
			z"/>
		<path fill="#FF2455" d="M335.139,48.92v2.4h-11.82v-2.4H335.139z"/>
		<path fill="#FF2455" d="M347.453,34.52c-0.1,0.16-0.205,0.273-0.315,0.338s-0.25,0.098-0.42,0.098c-0.18,0-0.372-0.051-0.577-0.15
			s-0.443-0.213-0.713-0.338s-0.577-0.236-0.922-0.338c-0.346-0.1-0.753-0.148-1.223-0.148c-0.73,0-1.303,0.154-1.718,0.465
			c-0.415,0.309-0.622,0.715-0.622,1.215c0,0.33,0.107,0.607,0.322,0.832s0.5,0.422,0.855,0.592c0.354,0.17,0.757,0.322,1.207,0.459
			c0.449,0.135,0.907,0.281,1.372,0.441c0.466,0.16,0.923,0.344,1.372,0.547c0.451,0.205,0.854,0.467,1.208,0.781
			s0.64,0.691,0.854,1.133c0.215,0.439,0.323,0.969,0.323,1.59c0,0.74-0.133,1.422-0.397,2.047
			c-0.266,0.625-0.658,1.166-1.178,1.621s-1.162,0.809-1.928,1.064c-0.765,0.254-1.647,0.383-2.646,0.383
			c-0.531,0-1.049-0.049-1.553-0.143c-0.506-0.096-0.99-0.229-1.455-0.398s-0.896-0.369-1.291-0.6
			c-0.395-0.23-0.742-0.48-1.042-0.75l0.854-1.41c0.11-0.17,0.24-0.301,0.391-0.391s0.34-0.135,0.57-0.135
			c0.229,0,0.447,0.066,0.652,0.195c0.205,0.131,0.442,0.27,0.713,0.42c0.27,0.15,0.587,0.291,0.952,0.42
			c0.364,0.131,0.827,0.195,1.388,0.195c0.439,0,0.816-0.053,1.133-0.158c0.314-0.104,0.574-0.242,0.779-0.412
			s0.355-0.367,0.45-0.592s0.142-0.457,0.142-0.697c0-0.361-0.107-0.656-0.322-0.885c-0.215-0.23-0.5-0.432-0.854-0.602
			s-0.761-0.322-1.215-0.457c-0.456-0.135-0.921-0.281-1.396-0.441s-0.939-0.348-1.395-0.563s-0.86-0.488-1.215-0.818
			c-0.355-0.33-0.641-0.734-0.855-1.215s-0.322-1.061-0.322-1.74c0-0.631,0.125-1.23,0.375-1.801
			c0.25-0.568,0.617-1.066,1.103-1.492c0.485-0.424,1.09-0.764,1.815-1.02c0.725-0.256,1.563-0.383,2.512-0.383
			c1.061,0,2.025,0.176,2.895,0.525c0.871,0.35,1.596,0.811,2.176,1.381L347.453,34.52z"/>
		<path fill="#FF2455" d="M350.889,33.664c1.77-1.619,3.899-2.43,6.389-2.43c0.9,0,1.705,0.148,2.416,0.443
			c0.709,0.295,1.31,0.705,1.8,1.229c0.489,0.525,0.862,1.154,1.117,1.883c0.255,0.73,0.383,1.531,0.383,2.4v9.721h-1.681
			c-0.35,0-0.619-0.053-0.81-0.158s-0.34-0.316-0.45-0.637l-0.33-1.111c-0.39,0.352-0.77,0.658-1.14,0.924
			c-0.37,0.264-0.755,0.486-1.155,0.666c-0.4,0.182-0.827,0.318-1.282,0.414c-0.455,0.094-0.958,0.143-1.507,0.143
			c-0.65,0-1.251-0.088-1.801-0.264c-0.55-0.174-1.025-0.438-1.425-0.787c-0.4-0.35-0.71-0.785-0.931-1.305
			c-0.22-0.52-0.33-1.125-0.33-1.814c0-0.391,0.065-0.777,0.195-1.164c0.131-0.385,0.343-0.752,0.638-1.102s0.677-0.68,1.147-0.99
			s1.047-0.58,1.732-0.811c0.686-0.229,1.482-0.416,2.393-0.563c0.91-0.145,1.95-0.232,3.12-0.262v-0.9
			c0-1.029-0.22-1.793-0.66-2.287c-0.44-0.496-1.075-0.742-1.905-0.742c-0.6,0-1.098,0.07-1.492,0.209
			c-0.395,0.141-0.742,0.299-1.043,0.473c-0.299,0.176-0.572,0.332-0.816,0.473c-0.246,0.141-0.518,0.211-0.818,0.211
			c-0.26,0-0.479-0.068-0.66-0.203c-0.18-0.135-0.324-0.293-0.435-0.473L350.889,33.664z M359.378,40.34
			c-1.07,0.051-1.97,0.143-2.7,0.277s-1.314,0.307-1.755,0.518c-0.44,0.209-0.755,0.455-0.944,0.734
			c-0.19,0.281-0.285,0.586-0.285,0.916c0,0.65,0.191,1.115,0.577,1.395c0.385,0.279,0.888,0.42,1.507,0.42
			c0.76,0,1.418-0.137,1.973-0.412c0.556-0.275,1.098-0.693,1.628-1.252V40.34z"/>
		<path fill="#FF2455" d="M370.223,24.619V46.91h-3.705V24.619H370.223z"/>
		<path fill="#FF2455" d="M387.188,31.52V46.91h-2.266c-0.49,0-0.8-0.225-0.93-0.676l-0.255-1.23
			c-0.63,0.641-1.325,1.158-2.085,1.553s-1.655,0.594-2.686,0.594c-0.84,0-1.582-0.143-2.227-0.428
			c-0.646-0.285-1.188-0.688-1.628-1.207c-0.44-0.521-0.772-1.139-0.997-1.854c-0.226-0.715-0.338-1.502-0.338-2.363V31.52h3.705
			v9.779c0,0.941,0.217,1.668,0.652,2.184s1.088,0.771,1.957,0.771c0.641,0,1.24-0.143,1.801-0.426
			c0.56-0.285,1.09-0.678,1.59-1.178V31.52H387.188z"/>
		<path fill="#FF2455" d="M404.212,24.619V46.91h-2.265c-0.49,0-0.801-0.225-0.93-0.676l-0.315-1.484
			c-0.62,0.709-1.333,1.285-2.138,1.725s-1.742,0.66-2.813,0.66c-0.84,0-1.609-0.176-2.311-0.525
			c-0.699-0.35-1.302-0.857-1.807-1.521c-0.506-0.666-0.895-1.488-1.17-2.469c-0.275-0.979-0.412-2.1-0.412-3.359
			c0-1.141,0.154-2.199,0.465-3.18c0.31-0.98,0.754-1.83,1.334-2.551c0.58-0.719,1.275-1.281,2.086-1.688
			c0.81-0.404,1.719-0.607,2.729-0.607c0.86,0,1.595,0.135,2.205,0.406c0.61,0.27,1.155,0.635,1.636,1.094v-8.115H404.212z
			 M400.508,35.449c-0.421-0.51-0.879-0.869-1.373-1.08c-0.495-0.209-1.027-0.314-1.598-0.314c-0.561,0-1.064,0.105-1.516,0.314
			c-0.449,0.211-0.834,0.527-1.154,0.953s-0.564,0.965-0.734,1.619c-0.171,0.656-0.256,1.428-0.256,2.318
			c0,0.9,0.072,1.662,0.218,2.287c0.145,0.625,0.353,1.135,0.622,1.531c0.271,0.395,0.6,0.68,0.99,0.854
			c0.391,0.176,0.825,0.264,1.305,0.264c0.771,0,1.426-0.16,1.965-0.48c0.541-0.32,1.051-0.775,1.531-1.365V35.449z"/>
		<path fill="#FF2455" d="M414.682,31.279c1.141,0,2.178,0.186,3.113,0.555c0.935,0.371,1.734,0.896,2.399,1.576
			s1.178,1.51,1.538,2.49c0.359,0.979,0.539,2.074,0.539,3.285c0,1.219-0.18,2.318-0.539,3.299c-0.36,0.98-0.873,1.814-1.538,2.506
			c-0.665,0.689-1.465,1.219-2.399,1.59c-0.936,0.369-1.973,0.555-3.113,0.555c-1.15,0-2.195-0.186-3.135-0.555
			c-0.939-0.371-1.742-0.9-2.407-1.59c-0.665-0.691-1.181-1.525-1.545-2.506c-0.365-0.98-0.548-2.08-0.548-3.299
			c0-1.211,0.183-2.307,0.548-3.285c0.364-0.98,0.88-1.811,1.545-2.49s1.468-1.205,2.407-1.576
			C412.486,31.465,413.531,31.279,414.682,31.279z M414.682,44.285c1.28,0,2.229-0.43,2.843-1.291
			c0.615-0.859,0.923-2.119,0.923-3.779s-0.308-2.926-0.923-3.795c-0.614-0.871-1.563-1.305-2.843-1.305
			c-1.3,0-2.262,0.438-2.887,1.313s-0.938,2.137-0.938,3.787s0.313,2.908,0.938,3.771C412.42,43.852,413.382,44.285,414.682,44.285z
			"/>
	</g>
</g>
<g>
	<circle fill="#337C98" cx="267.744" cy="146.384" r="43.163"/>
	<g>
		<path fill="#FFFFFF" d="M241.768,125.589v3.244l-0.248,1.758c-0.061,0.33-0.158,0.584-0.293,0.76
			c-0.135,0.177-0.36,0.265-0.676,0.265c-0.277,0-0.492-0.088-0.643-0.265c-0.15-0.176-0.255-0.43-0.314-0.76l-0.248-1.758v-3.244
			H241.768z M245.912,125.589v3.244l-0.247,1.758c-0.061,0.33-0.157,0.584-0.293,0.76c-0.136,0.177-0.36,0.265-0.676,0.265
			c-0.278,0-0.492-0.088-0.642-0.265c-0.15-0.176-0.256-0.43-0.316-0.76l-0.248-1.758v-3.244H245.912z"/>
		<path fill="#FFFFFF" d="M251.24,131.739c0.466-0.487,0.982-0.876,1.549-1.166c0.567-0.288,1.215-0.434,1.943-0.434
			c0.668,0,1.271,0.132,1.809,0.395s0.994,0.641,1.374,1.132c0.38,0.492,0.671,1.088,0.873,1.786s0.304,1.483,0.304,2.354
			c0,0.938-0.116,1.791-0.349,2.557c-0.233,0.766-0.565,1.421-0.997,1.966s-0.951,0.967-1.561,1.268
			c-0.607,0.3-1.283,0.45-2.027,0.45c-0.36,0-0.688-0.036-0.98-0.107s-0.563-0.17-0.811-0.298s-0.475-0.283-0.682-0.468
			c-0.207-0.184-0.404-0.389-0.592-0.614l-0.123,0.777c-0.045,0.195-0.123,0.335-0.231,0.417c-0.108,0.083-0.257,0.124-0.444,0.124
			h-1.836v-16.739h2.781V131.739z M251.24,138.882c0.316,0.383,0.66,0.653,1.031,0.811c0.371,0.158,0.764,0.236,1.178,0.236
			c0.428,0,0.813-0.076,1.154-0.23s0.633-0.395,0.873-0.721c0.24-0.327,0.424-0.744,0.552-1.251s0.191-1.113,0.191-1.819
			c0-1.269-0.21-2.187-0.631-2.754s-1.024-0.851-1.813-0.851c-0.533,0-0.999,0.122-1.396,0.366c-0.398,0.244-0.777,0.588-1.139,1.03
			V138.882z"/>
		<path fill="#FFFFFF" d="M271.202,130.32v11.558h-1.701c-0.368,0-0.601-0.169-0.698-0.507l-0.191-0.924
			c-0.473,0.48-0.996,0.869-1.566,1.166s-1.242,0.445-2.016,0.445c-0.631,0-1.189-0.107-1.674-0.321s-0.891-0.517-1.222-0.907
			s-0.58-0.854-0.749-1.391s-0.254-1.129-0.254-1.774v-7.345h2.783v7.345c0,0.706,0.163,1.252,0.49,1.639
			c0.326,0.387,0.816,0.58,1.469,0.58c0.481,0,0.932-0.106,1.353-0.32c0.421-0.215,0.818-0.509,1.194-0.885v-8.358H271.202z"/>
		<path fill="#FFFFFF" d="M276.091,136.448c0.045,0.594,0.149,1.105,0.315,1.538c0.165,0.432,0.383,0.788,0.653,1.069
			c0.271,0.282,0.591,0.492,0.963,0.631c0.372,0.14,0.783,0.209,1.233,0.209c0.451,0,0.84-0.053,1.166-0.158
			c0.326-0.104,0.612-0.221,0.856-0.349c0.243-0.128,0.458-0.244,0.642-0.35c0.184-0.104,0.363-0.157,0.535-0.157
			c0.232,0,0.406,0.086,0.519,0.259l0.8,1.014c-0.309,0.36-0.653,0.663-1.037,0.907c-0.383,0.244-0.782,0.439-1.199,0.586
			c-0.416,0.146-0.841,0.249-1.273,0.31c-0.432,0.06-0.85,0.09-1.256,0.09c-0.803,0-1.551-0.134-2.241-0.399
			c-0.69-0.267-1.292-0.661-1.802-1.184c-0.512-0.521-0.913-1.167-1.206-1.938c-0.292-0.77-0.438-1.661-0.438-2.675
			c0-0.789,0.127-1.53,0.383-2.225c0.255-0.695,0.621-1.3,1.098-1.814c0.477-0.514,1.059-0.922,1.746-1.222
			c0.688-0.301,1.463-0.451,2.326-0.451c0.729,0,1.4,0.117,2.017,0.35s1.146,0.572,1.589,1.02c0.442,0.447,0.789,0.995,1.041,1.645
			s0.378,1.392,0.378,2.225c0,0.421-0.046,0.704-0.136,0.851s-0.263,0.22-0.518,0.22H276.091z M281.396,134.77
			c0-0.36-0.051-0.7-0.152-1.02c-0.102-0.318-0.253-0.599-0.456-0.839c-0.202-0.24-0.46-0.43-0.771-0.568
			c-0.312-0.14-0.675-0.209-1.087-0.209c-0.804,0-1.437,0.229-1.898,0.688s-0.756,1.107-0.885,1.948H281.396z"/>
		<path fill="#FFFFFF" d="M288.584,131.739c0.232-0.232,0.479-0.448,0.737-0.647s0.533-0.368,0.822-0.507s0.599-0.248,0.929-0.326
			c0.331-0.079,0.691-0.119,1.082-0.119c0.631,0,1.19,0.107,1.679,0.321c0.487,0.214,0.896,0.515,1.222,0.901
			c0.327,0.387,0.574,0.849,0.744,1.386c0.168,0.537,0.253,1.128,0.253,1.774v7.355h-2.782v-7.355c0-0.706-0.162-1.253-0.484-1.64
			s-0.814-0.58-1.476-0.58c-0.481,0-0.931,0.109-1.353,0.327c-0.42,0.218-0.818,0.514-1.193,0.89v8.358h-2.782V130.32h1.7
			c0.361,0,0.598,0.169,0.711,0.507L288.584,131.739z"/>
		<path fill="#FFFFFF" d="M259.898,152.174v16.739h-1.701c-0.368,0-0.602-0.169-0.699-0.507l-0.236-1.115
			c-0.465,0.533-1,0.965-1.605,1.295c-0.604,0.331-1.309,0.496-2.111,0.496c-0.631,0-1.209-0.132-1.734-0.395
			c-0.526-0.263-0.979-0.644-1.357-1.144c-0.38-0.499-0.673-1.116-0.879-1.853c-0.207-0.736-0.311-1.577-0.311-2.523
			c0-0.856,0.117-1.652,0.35-2.388c0.232-0.736,0.566-1.375,1.002-1.915c0.436-0.541,0.958-0.964,1.566-1.268
			s1.291-0.456,2.051-0.456c0.645,0,1.197,0.102,1.655,0.304c0.458,0.203,0.868,0.478,1.228,0.822v-6.094H259.898z M257.115,160.307
			c-0.314-0.383-0.658-0.653-1.03-0.811c-0.372-0.158-0.771-0.237-1.2-0.237c-0.42,0-0.799,0.079-1.137,0.237
			c-0.338,0.157-0.628,0.396-0.868,0.715s-0.425,0.725-0.552,1.217c-0.128,0.492-0.191,1.072-0.191,1.74
			c0,0.676,0.055,1.249,0.163,1.718c0.108,0.47,0.265,0.853,0.468,1.149s0.451,0.511,0.743,0.642
			c0.293,0.132,0.62,0.197,0.979,0.197c0.579,0,1.07-0.12,1.477-0.36c0.405-0.24,0.789-0.582,1.148-1.025V160.307z"/>
		<path fill="#FFFFFF" d="M268.121,152.444l-2.783,2.939c-0.143,0.15-0.279,0.254-0.41,0.311c-0.132,0.056-0.303,0.084-0.513,0.084
			h-1.667l1.6-2.737c0.112-0.195,0.244-0.344,0.395-0.445c0.149-0.101,0.375-0.151,0.676-0.151H268.121z M265.53,157.355v11.558
			h-2.782v-11.558H265.53z"/>
		<path fill="#FFFFFF" d="M268.109,158.966c1.329-1.216,2.929-1.824,4.799-1.824c0.676,0,1.28,0.11,1.813,0.332
			s0.983,0.529,1.353,0.924c0.367,0.395,0.646,0.865,0.838,1.414c0.192,0.548,0.288,1.148,0.288,1.802v7.3h-1.262
			c-0.263,0-0.466-0.039-0.608-0.118s-0.256-0.238-0.338-0.479l-0.248-0.834c-0.293,0.263-0.578,0.494-0.855,0.692
			c-0.278,0.199-0.568,0.366-0.867,0.502c-0.301,0.135-0.622,0.238-0.964,0.31s-0.72,0.107-1.132,0.107
			c-0.488,0-0.939-0.066-1.352-0.197c-0.414-0.132-0.771-0.329-1.07-0.592c-0.301-0.263-0.533-0.59-0.699-0.979
			c-0.164-0.391-0.248-0.846-0.248-1.363c0-0.293,0.049-0.584,0.146-0.873s0.258-0.565,0.479-0.828s0.509-0.511,0.862-0.743
			c0.352-0.233,0.786-0.436,1.301-0.608c0.514-0.173,1.113-0.313,1.797-0.423c0.683-0.108,1.464-0.175,2.343-0.197v-0.676
			c0-0.773-0.165-1.346-0.495-1.718c-0.331-0.372-0.809-0.558-1.432-0.558c-0.45,0-0.824,0.053-1.121,0.158
			c-0.297,0.104-0.557,0.224-0.782,0.354c-0.226,0.132-0.431,0.25-0.614,0.354c-0.184,0.105-0.389,0.158-0.613,0.158
			c-0.195,0-0.361-0.051-0.496-0.152s-0.244-0.22-0.326-0.354L268.109,158.966z M274.485,163.979
			c-0.804,0.037-1.479,0.106-2.028,0.208c-0.548,0.102-0.987,0.23-1.317,0.389c-0.331,0.157-0.567,0.342-0.71,0.552
			c-0.143,0.211-0.214,0.439-0.214,0.688c0,0.488,0.145,0.837,0.434,1.048c0.289,0.21,0.667,0.315,1.132,0.315
			c0.57,0,1.064-0.104,1.482-0.311c0.416-0.206,0.823-0.52,1.222-0.94V163.979z"/>
		<path fill="#FFFFFF" d="M281.684,152.624v3.244l-0.248,1.758c-0.06,0.33-0.157,0.584-0.293,0.76
			c-0.135,0.177-0.359,0.265-0.676,0.265c-0.277,0-0.492-0.088-0.642-0.265c-0.15-0.176-0.255-0.43-0.315-0.76l-0.248-1.758v-3.244
			H281.684z M285.829,152.624v3.244l-0.247,1.758c-0.061,0.33-0.158,0.584-0.293,0.76c-0.136,0.177-0.361,0.265-0.676,0.265
			c-0.278,0-0.492-0.088-0.643-0.265c-0.15-0.176-0.256-0.43-0.315-0.76l-0.248-1.758v-3.244H285.829z"/>
	</g>
</g>
<g>
	
		<line fill="none" stroke="#337C98" stroke-width="10" stroke-linecap="round" stroke-linejoin="round" stroke-miterlimit="10" x1="324.821" y1="259.032" x2="365.783" y2="315.512"/>
	
		<polyline fill="none" stroke="#337C98" stroke-width="10" stroke-linecap="round" stroke-linejoin="round" stroke-miterlimit="10" points="
		337.708,257.444 321.394,254.306 319.309,270.788 	"/>
</g>
</svg>
