<?xml version="1.0" encoding="utf-8"?>
<!-- Generator: Adobe Illustrator 16.0.0, SVG Export Plug-In . SVG Version: 6.00 Build 0)  -->
<!DOCTYPE svg PUBLIC "-//W3C//DTD SVG 1.1//EN" "http://www.w3.org/Graphics/SVG/1.1/DTD/svg11.dtd">
<svg version="1.1" id="Layer_1" xmlns="http://www.w3.org/2000/svg" xmlns:xlink="http://www.w3.org/1999/xlink" x="0px" y="0px"
	 width="778.782px" height="392.591px" viewBox="0 0 778.782 392.591" enable-background="new 0 0 778.782 392.591"
	 xml:space="preserve">
<path fill="#72B5CF" d="M730.965,223.297c0,81.762-152.932,148.043-341.572,148.043c-188.642,0-341.575-66.281-341.575-148.043
	c0-81.764,152.933-148.047,341.575-148.047C578.033,75.25,730.965,141.533,730.965,223.297z"/>
<g>
	<g>
		<path fill="#FFFFFF" d="M245.887,260.996c-0.128,0.512-0.19,0.93-0.186,1.254s0.054,0.58,0.15,0.768
			c0.096,0.189,0.232,0.318,0.408,0.391c0.176,0.072,0.376,0.107,0.6,0.107c0.336,0,0.654-0.105,0.954-0.316
			c0.3-0.213,0.562-0.512,0.786-0.895c0.224-0.385,0.402-0.84,0.534-1.369c0.132-0.527,0.198-1.104,0.198-1.727
			c0-1.041-0.162-1.957-0.486-2.748c-0.324-0.793-0.778-1.455-1.362-1.986c-0.584-0.531-1.278-0.932-2.082-1.201
			c-0.804-0.268-1.686-0.4-2.646-0.4c-1.056,0-2.032,0.197-2.928,0.594s-1.674,0.938-2.334,1.625c-0.66,0.689-1.176,1.5-1.548,2.438
			c-0.372,0.936-0.558,1.943-0.558,3.023c0,1.313,0.204,2.465,0.612,3.461c0.408,0.996,0.968,1.828,1.68,2.496
			s1.55,1.17,2.514,1.506c0.964,0.336,2.006,0.504,3.126,0.504c0.616,0,1.192-0.033,1.728-0.102c0.536-0.068,1.028-0.16,1.476-0.275
			c0.448-0.117,0.856-0.248,1.224-0.396c0.368-0.148,0.696-0.307,0.984-0.475c0.208-0.119,0.392-0.154,0.552-0.107
			c0.16,0.049,0.276,0.168,0.348,0.359l0.408,1.068c-0.832,0.545-1.804,0.988-2.916,1.332c-1.112,0.344-2.38,0.516-3.804,0.516
			c-1.448,0-2.788-0.227-4.02-0.684c-1.232-0.455-2.298-1.109-3.198-1.961c-0.9-0.854-1.604-1.891-2.112-3.115
			c-0.508-1.223-0.762-2.6-0.762-4.127c0-0.855,0.11-1.688,0.33-2.496s0.534-1.566,0.942-2.273c0.408-0.709,0.9-1.359,1.476-1.951
			c0.576-0.592,1.216-1.1,1.92-1.523c0.704-0.424,1.466-0.754,2.286-0.99s1.678-0.354,2.574-0.354c1.136,0,2.226,0.189,3.27,0.57
			c1.044,0.379,1.968,0.924,2.772,1.631c0.804,0.709,1.446,1.572,1.926,2.592c0.48,1.021,0.72,2.17,0.72,3.451
			c0,0.855-0.126,1.658-0.378,2.406s-0.604,1.396-1.056,1.949c-0.452,0.553-0.984,0.986-1.596,1.303
			c-0.612,0.314-1.278,0.473-1.998,0.473c-0.552,0-1.04-0.127-1.464-0.383s-0.716-0.668-0.876-1.236
			c-0.472,0.576-0.972,0.988-1.5,1.236s-1.1,0.371-1.716,0.371c-0.504,0-0.942-0.088-1.314-0.264s-0.684-0.418-0.936-0.727
			c-0.252-0.307-0.44-0.672-0.564-1.092c-0.125-0.42-0.186-0.877-0.186-1.373c0-0.457,0.058-0.918,0.174-1.387
			c0.116-0.469,0.29-0.92,0.522-1.355s0.522-0.844,0.87-1.225c0.348-0.379,0.756-0.711,1.224-0.996
			c0.468-0.283,0.996-0.508,1.584-0.672c0.588-0.164,1.234-0.246,1.938-0.246c0.624,0,1.156,0.049,1.596,0.145
			s0.864,0.232,1.272,0.408L245.887,260.996z M244.483,257.924c-0.256-0.047-0.521-0.072-0.792-0.072
			c-0.496,0-0.96,0.109-1.392,0.324c-0.432,0.217-0.806,0.508-1.122,0.877c-0.316,0.367-0.566,0.789-0.75,1.266
			s-0.276,0.971-0.276,1.482s0.11,0.91,0.33,1.193c0.22,0.285,0.542,0.426,0.966,0.426c0.208,0,0.418-0.031,0.63-0.096
			s0.414-0.178,0.606-0.342c0.192-0.164,0.368-0.383,0.528-0.654c0.16-0.271,0.292-0.611,0.396-1.02L244.483,257.924z"/>
		<path fill="#FFFFFF" d="M253.555,256.953c1.416-1.297,3.12-1.945,5.112-1.945c0.72,0,1.364,0.119,1.932,0.355
			c0.568,0.234,1.048,0.563,1.44,0.982c0.392,0.42,0.69,0.922,0.894,1.506c0.204,0.584,0.306,1.225,0.306,1.92v7.777h-1.344
			c-0.28,0-0.496-0.043-0.648-0.127c-0.152-0.084-0.272-0.254-0.36-0.51l-0.264-0.889c-0.312,0.281-0.616,0.527-0.912,0.738
			c-0.296,0.213-0.604,0.391-0.924,0.535c-0.32,0.143-0.662,0.254-1.026,0.33c-0.364,0.076-0.766,0.113-1.206,0.113
			c-0.52,0-1-0.07-1.44-0.209c-0.44-0.141-0.82-0.352-1.14-0.631c-0.32-0.279-0.568-0.629-0.744-1.045
			c-0.176-0.414-0.264-0.898-0.264-1.451c0-0.313,0.052-0.621,0.156-0.93c0.104-0.309,0.274-0.602,0.51-0.883
			c0.236-0.279,0.542-0.543,0.918-0.791s0.838-0.465,1.386-0.648c0.548-0.184,1.186-0.334,1.914-0.449
			c0.728-0.117,1.56-0.188,2.496-0.211v-0.721c0-0.822-0.176-1.434-0.528-1.83c-0.352-0.395-0.86-0.594-1.524-0.594
			c-0.48,0-0.878,0.057-1.194,0.168c-0.316,0.113-0.594,0.238-0.834,0.379c-0.24,0.141-0.458,0.266-0.654,0.377
			c-0.196,0.113-0.414,0.168-0.654,0.168c-0.208,0-0.384-0.053-0.528-0.16c-0.144-0.109-0.26-0.234-0.348-0.379L253.555,256.953z
			 M260.347,262.293c-0.856,0.039-1.576,0.113-2.16,0.221c-0.584,0.109-1.052,0.246-1.404,0.414s-0.604,0.365-0.756,0.588
			c-0.152,0.225-0.228,0.469-0.228,0.732c0,0.52,0.154,0.893,0.462,1.117c0.308,0.223,0.71,0.336,1.206,0.336
			c0.608,0,1.134-0.111,1.578-0.33c0.444-0.221,0.878-0.555,1.302-1.002V262.293z"/>
		<path fill="#FFFFFF" d="M266.022,267.549v-12.313h1.812c0.384,0,0.636,0.18,0.756,0.539l0.192,0.912
			c0.216-0.238,0.442-0.459,0.678-0.658c0.236-0.201,0.488-0.373,0.756-0.518c0.268-0.143,0.556-0.258,0.864-0.342
			s0.646-0.125,1.014-0.125c0.776,0,1.414,0.209,1.914,0.629c0.5,0.42,0.874,0.979,1.122,1.674c0.192-0.408,0.432-0.758,0.72-1.049
			c0.288-0.293,0.604-0.531,0.948-0.715c0.344-0.184,0.709-0.32,1.098-0.408s0.778-0.131,1.17-0.131c0.68,0,1.284,0.104,1.812,0.311
			c0.528,0.209,0.972,0.514,1.332,0.912c0.36,0.4,0.634,0.889,0.822,1.465s0.282,1.236,0.282,1.98v7.836h-2.964v-7.836
			c0-0.785-0.172-1.375-0.516-1.771c-0.344-0.395-0.848-0.594-1.512-0.594c-0.304,0-0.586,0.053-0.846,0.156
			c-0.26,0.105-0.488,0.254-0.684,0.451c-0.196,0.195-0.35,0.441-0.462,0.736c-0.112,0.297-0.168,0.637-0.168,1.021v7.836h-2.976
			v-7.836c0-0.824-0.166-1.424-0.498-1.801c-0.332-0.375-0.818-0.564-1.458-0.564c-0.432,0-0.834,0.107-1.206,0.318
			c-0.372,0.213-0.718,0.502-1.038,0.871v9.012H266.022z"/>
		<path fill="#FFFFFF" d="M289.603,251.648c0,0.256-0.052,0.496-0.156,0.721c-0.104,0.223-0.242,0.42-0.414,0.588
			c-0.172,0.168-0.374,0.301-0.606,0.4c-0.232,0.102-0.48,0.15-0.744,0.15c-0.256,0-0.498-0.049-0.726-0.15
			c-0.228-0.1-0.426-0.232-0.594-0.4s-0.302-0.365-0.402-0.588c-0.1-0.225-0.15-0.465-0.15-0.721c0-0.264,0.05-0.512,0.15-0.744
			s0.234-0.432,0.402-0.6s0.366-0.303,0.594-0.402s0.47-0.15,0.726-0.15c0.264,0,0.512,0.051,0.744,0.15
			c0.232,0.1,0.434,0.234,0.606,0.402c0.172,0.168,0.31,0.367,0.414,0.6S289.603,251.385,289.603,251.648z M289.195,255.236v12.313
			h-2.976v-12.313H289.195z"/>
		<path fill="#FFFFFF" d="M303.019,255.656v1.104c0,0.354-0.212,0.568-0.636,0.648l-1.104,0.205
			c0.168,0.424,0.252,0.887,0.252,1.391c0,0.609-0.122,1.158-0.366,1.65s-0.582,0.91-1.014,1.254s-0.941,0.609-1.53,0.799
			c-0.588,0.188-1.222,0.281-1.902,0.281c-0.24,0-0.472-0.012-0.696-0.035c-0.224-0.025-0.444-0.057-0.66-0.098
			c-0.384,0.232-0.576,0.492-0.576,0.781c0,0.248,0.114,0.43,0.342,0.545c0.228,0.117,0.53,0.199,0.906,0.246
			c0.376,0.049,0.804,0.078,1.284,0.09c0.48,0.014,0.972,0.039,1.476,0.078c0.504,0.041,0.997,0.111,1.476,0.211
			s0.907,0.258,1.284,0.475c0.375,0.215,0.678,0.51,0.906,0.881c0.228,0.373,0.342,0.85,0.342,1.434
			c0,0.545-0.135,1.072-0.402,1.584s-0.656,0.969-1.164,1.369s-1.132,0.721-1.872,0.965c-0.74,0.244-1.582,0.367-2.526,0.367
			c-0.928,0-1.736-0.09-2.424-0.271c-0.688-0.18-1.26-0.42-1.716-0.719c-0.456-0.301-0.796-0.646-1.02-1.039
			c-0.224-0.391-0.336-0.799-0.336-1.223c0-0.576,0.174-1.059,0.522-1.447c0.348-0.387,0.826-0.697,1.434-0.93
			c-0.328-0.168-0.588-0.391-0.78-0.672c-0.192-0.279-0.288-0.648-0.288-1.104c0-0.184,0.034-0.375,0.102-0.57
			c0.068-0.195,0.168-0.391,0.3-0.582s0.298-0.373,0.498-0.545c0.2-0.174,0.436-0.326,0.708-0.463
			c-0.624-0.336-1.114-0.783-1.47-1.344s-0.534-1.217-0.534-1.969c0-0.607,0.122-1.158,0.366-1.65c0.244-0.49,0.584-0.912,1.02-1.26
			s0.952-0.613,1.548-0.797c0.596-0.184,1.246-0.277,1.95-0.277c0.528,0,1.024,0.055,1.488,0.162
			c0.464,0.109,0.887,0.268,1.272,0.475H303.019z M300.066,268.1c0-0.24-0.072-0.436-0.216-0.588
			c-0.144-0.15-0.341-0.27-0.589-0.354s-0.538-0.146-0.869-0.186c-0.332-0.041-0.684-0.07-1.056-0.09s-0.756-0.039-1.152-0.055
			s-0.782-0.047-1.158-0.096c-0.328,0.184-0.594,0.4-0.798,0.648s-0.306,0.535-0.306,0.863c0,0.217,0.054,0.418,0.162,0.605
			c0.108,0.189,0.28,0.352,0.516,0.486c0.236,0.137,0.542,0.242,0.918,0.318c0.376,0.076,0.836,0.113,1.38,0.113
			c0.552,0,1.028-0.041,1.428-0.125c0.4-0.084,0.73-0.201,0.99-0.348c0.26-0.148,0.45-0.324,0.57-0.529
			C300.006,268.563,300.066,268.34,300.066,268.1z M296.718,261.092c0.368,0,0.688-0.049,0.96-0.15
			c0.272-0.1,0.498-0.236,0.678-0.412c0.18-0.178,0.316-0.389,0.408-0.637c0.092-0.248,0.138-0.52,0.138-0.816
			c0-0.607-0.182-1.09-0.546-1.445c-0.364-0.355-0.91-0.535-1.638-0.535s-1.274,0.18-1.638,0.535
			c-0.364,0.355-0.546,0.838-0.546,1.445c0,0.289,0.046,0.557,0.138,0.805s0.228,0.461,0.408,0.641
			c0.18,0.182,0.408,0.32,0.684,0.42C296.041,261.043,296.358,261.092,296.718,261.092z"/>
		<path fill="#FFFFFF" d="M310.123,255.045c0.912,0,1.742,0.148,2.49,0.443c0.748,0.297,1.388,0.717,1.92,1.26
			c0.531,0.545,0.941,1.209,1.229,1.992c0.288,0.785,0.433,1.66,0.433,2.629c0,0.975-0.145,1.855-0.433,2.639
			c-0.288,0.785-0.698,1.453-1.229,2.004c-0.532,0.553-1.172,0.977-1.92,1.273c-0.748,0.295-1.578,0.443-2.49,0.443
			c-0.92,0-1.756-0.148-2.508-0.443c-0.752-0.297-1.395-0.721-1.926-1.273c-0.533-0.551-0.944-1.219-1.236-2.004
			c-0.293-0.783-0.438-1.664-0.438-2.639c0-0.969,0.145-1.844,0.438-2.629c0.292-0.783,0.703-1.447,1.236-1.992
			c0.531-0.543,1.174-0.963,1.926-1.26C308.367,255.193,309.203,255.045,310.123,255.045z M310.123,265.449
			c1.023,0,1.781-0.346,2.273-1.033s0.738-1.695,0.738-3.023s-0.246-2.34-0.738-3.037c-0.492-0.695-1.25-1.043-2.273-1.043
			c-1.04,0-1.811,0.35-2.311,1.051c-0.5,0.699-0.75,1.709-0.75,3.029s0.25,2.326,0.75,3.018S309.083,265.449,310.123,265.449z"/>
	</g>
</g>
<g>
	<g>
		<path fill="#FF2455" d="M374.52,33.365c0,1.219-0.15,2.32-0.45,3.299c-0.3,0.98-0.747,1.816-1.343,2.506
			c-0.595,0.689-1.338,1.221-2.227,1.59c-0.891,0.369-1.926,0.555-3.105,0.555c-0.54,0-1.07-0.033-1.59-0.098
			c-0.521-0.064-1.065-0.166-1.635-0.307c0.029-0.4,0.064-0.801,0.104-1.201c0.04-0.398,0.075-0.799,0.104-1.199
			c0.03-0.221,0.117-0.398,0.264-0.533c0.145-0.135,0.352-0.201,0.621-0.201c0.17,0,0.393,0.035,0.668,0.104
			c0.275,0.07,0.623,0.105,1.043,0.105c0.57,0,1.074-0.082,1.515-0.248c0.44-0.164,0.808-0.426,1.103-0.787
			c0.295-0.359,0.518-0.826,0.668-1.402c0.149-0.574,0.225-1.271,0.225-2.092v-14.07h4.035V33.365z"/>
		<path fill="#FF2455" d="M391.395,25.686v15.389h-2.266c-0.49,0-0.8-0.225-0.93-0.674l-0.255-1.23
			c-0.63,0.641-1.325,1.158-2.085,1.553s-1.655,0.592-2.686,0.592c-0.84,0-1.582-0.143-2.227-0.428
			c-0.646-0.285-1.188-0.688-1.628-1.207s-0.772-1.137-0.997-1.852c-0.226-0.715-0.338-1.504-0.338-2.363v-9.779h3.705v9.779
			c0,0.939,0.217,1.668,0.652,2.182c0.436,0.516,1.088,0.773,1.957,0.773c0.641,0,1.24-0.143,1.801-0.428
			c0.56-0.285,1.09-0.678,1.59-1.178V25.686H391.395z"/>
		<path fill="#FF2455" d="M398.805,18.785v22.289H395.1V18.785H398.805z"/>
		<path fill="#FF2455" d="M406.859,21.199c0,0.32-0.066,0.621-0.195,0.9c-0.131,0.279-0.303,0.525-0.518,0.734
			c-0.215,0.211-0.468,0.379-0.758,0.504s-0.6,0.188-0.93,0.188c-0.32,0-0.623-0.063-0.908-0.188s-0.532-0.293-0.742-0.504
			c-0.21-0.209-0.377-0.455-0.502-0.734s-0.188-0.58-0.188-0.9c0-0.33,0.063-0.639,0.188-0.93c0.125-0.289,0.292-0.539,0.502-0.75
			c0.21-0.209,0.457-0.377,0.742-0.502s0.588-0.188,0.908-0.188c0.33,0,0.64,0.063,0.93,0.188s0.543,0.293,0.758,0.502
			c0.215,0.211,0.387,0.461,0.518,0.75C406.793,20.561,406.859,20.869,406.859,21.199z M406.349,25.686v15.389h-3.72V25.686H406.349
			z"/>
	</g>
</g>
<g>
	<g>
		<circle fill="#337C98" cx="180.724" cy="224.384" r="43.163"/>
	</g>
	<g>
		<circle fill="#337C98" cx="388.059" cy="224.384" r="43.163"/>
	</g>
	<g>
		<g>
			
				<line fill="none" stroke="#337C98" stroke-width="10" stroke-linecap="round" stroke-linejoin="round" stroke-miterlimit="10" x1="323.472" y1="224.077" x2="234.701" y2="224.433"/>
			
				<polyline fill="none" stroke="#337C98" stroke-width="10" stroke-linecap="round" stroke-linejoin="round" stroke-miterlimit="10" points="
				317.235,235.467 329.311,224.055 317.146,212.738 			"/>
		</g>
	</g>
	<g>
		<circle fill="#337C98" cx="598.059" cy="224.384" r="43.163"/>
	</g>
	<g>
		<g>
			
				<line fill="none" stroke="#337C98" stroke-width="10" stroke-linecap="round" stroke-linejoin="round" stroke-miterlimit="10" x1="450.54" y1="224.077" x2="539.311" y2="224.433"/>
			
				<polyline fill="none" stroke="#337C98" stroke-width="10" stroke-linecap="round" stroke-linejoin="round" stroke-miterlimit="10" points="
				456.776,235.467 444.701,224.055 456.865,212.738 			"/>
		</g>
	</g>
</g>
<g>
	
		<line fill="none" stroke="#337C98" stroke-width="10" stroke-linecap="round" stroke-linejoin="round" stroke-miterlimit="10" x1="386.069" y1="134.874" x2="386.069" y2="65.104"/>
	
		<polyline fill="none" stroke="#337C98" stroke-width="10" stroke-linecap="round" stroke-linejoin="round" stroke-miterlimit="10" points="
		374.704,128.594 386.069,140.712 397.435,128.594 	"/>
</g>
<g>
	
		<line fill="none" stroke="#337C98" stroke-width="10" stroke-linecap="round" stroke-linejoin="round" stroke-miterlimit="10" x1="597.069" y1="134.874" x2="597.069" y2="65.104"/>
	
		<polyline fill="none" stroke="#337C98" stroke-width="10" stroke-linecap="round" stroke-linejoin="round" stroke-miterlimit="10" points="
		585.704,128.594 597.069,140.712 608.435,128.594 	"/>
</g>
<g>
	
		<line fill="none" stroke="#337C98" stroke-width="10" stroke-linecap="round" stroke-linejoin="round" stroke-miterlimit="10" x1="181.069" y1="134.874" x2="181.069" y2="65.104"/>
	
		<polyline fill="none" stroke="#337C98" stroke-width="10" stroke-linecap="round" stroke-linejoin="round" stroke-miterlimit="10" points="
		169.704,128.594 181.069,140.712 192.435,128.594 	"/>
</g>
<g>
	<g>
		<path fill="#FF2455" d="M510.667,41.074h-3.12c-0.35,0-0.635-0.088-0.855-0.262c-0.22-0.176-0.385-0.393-0.494-0.652l-1.62-4.426
			h-8.985l-1.619,4.426c-0.081,0.23-0.236,0.439-0.466,0.629c-0.229,0.191-0.515,0.285-0.854,0.285h-3.15l8.535-21.689h4.109
			L510.667,41.074z M503.542,32.885l-2.64-7.215c-0.131-0.32-0.266-0.699-0.405-1.141c-0.14-0.439-0.28-0.914-0.42-1.424
			c-0.13,0.51-0.265,0.986-0.405,1.432s-0.275,0.832-0.404,1.162l-2.625,7.186H503.542z"/>
		<path fill="#FF2455" d="M516.007,27.574c0.62-0.65,1.308-1.166,2.063-1.553c0.755-0.385,1.617-0.576,2.587-0.576
			c0.891,0,1.693,0.174,2.408,0.523c0.715,0.352,1.324,0.854,1.83,1.508c0.504,0.656,0.893,1.447,1.162,2.379
			c0.27,0.93,0.405,1.975,0.405,3.135c0,1.25-0.155,2.385-0.466,3.404c-0.31,1.02-0.752,1.893-1.327,2.617
			c-0.575,0.727-1.267,1.289-2.077,1.688c-0.811,0.4-1.71,0.6-2.7,0.6c-0.479,0-0.915-0.047-1.305-0.143
			c-0.39-0.094-0.75-0.227-1.08-0.396s-0.633-0.377-0.907-0.623c-0.275-0.244-0.538-0.518-0.788-0.816l-0.165,1.035
			c-0.06,0.26-0.162,0.443-0.307,0.555c-0.146,0.109-0.344,0.164-0.594,0.164h-2.444V18.785h3.705V27.574z M516.007,37.084
			c0.42,0.51,0.878,0.871,1.372,1.08c0.495,0.211,1.018,0.316,1.568,0.316c0.569,0,1.082-0.104,1.537-0.309s0.842-0.525,1.162-0.959
			c0.32-0.436,0.564-0.99,0.735-1.666c0.17-0.674,0.255-1.482,0.255-2.422c0-1.689-0.28-2.912-0.84-3.668
			c-0.561-0.754-1.365-1.133-2.415-1.133c-0.71,0-1.33,0.164-1.86,0.488c-0.529,0.324-1.035,0.783-1.515,1.373V37.084z"/>
		<path fill="#FF2455" d="M542.586,25.686v15.389h-2.264c-0.49,0-0.801-0.225-0.931-0.674l-0.255-1.23
			c-0.631,0.641-1.325,1.158-2.085,1.553c-0.761,0.395-1.655,0.592-2.685,0.592c-0.841,0-1.583-0.143-2.229-0.428
			c-0.645-0.285-1.188-0.688-1.627-1.207c-0.44-0.52-0.772-1.137-0.998-1.852c-0.225-0.715-0.337-1.504-0.337-2.363v-9.779h3.704
			v9.779c0,0.939,0.219,1.668,0.653,2.182c0.435,0.516,1.087,0.773,1.958,0.773c0.639,0,1.239-0.143,1.799-0.428
			c0.561-0.285,1.09-0.678,1.59-1.178V25.686H542.586z"/>
		<path fill="#FF2455" d="M549.097,33.844c0.06,0.791,0.2,1.473,0.42,2.049c0.22,0.574,0.51,1.049,0.87,1.424
			c0.359,0.375,0.787,0.656,1.282,0.84c0.495,0.186,1.042,0.279,1.643,0.279s1.118-0.07,1.552-0.211
			c0.436-0.141,0.815-0.295,1.141-0.465c0.324-0.17,0.609-0.324,0.855-0.465c0.244-0.141,0.482-0.211,0.712-0.211
			c0.31,0,0.54,0.115,0.69,0.346l1.064,1.35c-0.41,0.48-0.869,0.883-1.38,1.207c-0.51,0.326-1.042,0.586-1.597,0.781
			c-0.556,0.195-1.121,0.332-1.695,0.412c-0.576,0.08-1.133,0.119-1.673,0.119c-1.07,0-2.065-0.178-2.985-0.531
			c-0.92-0.355-1.72-0.881-2.399-1.576c-0.681-0.693-1.216-1.555-1.604-2.58c-0.391-1.023-0.586-2.211-0.586-3.563
			c0-1.049,0.17-2.037,0.51-2.961c0.34-0.926,0.828-1.73,1.463-2.416c0.635-0.684,1.41-1.227,2.325-1.627s1.947-0.6,3.097-0.6
			c0.971,0,1.865,0.154,2.686,0.465s1.525,0.762,2.115,1.357c0.59,0.594,1.053,1.324,1.387,2.189
			c0.336,0.865,0.504,1.854,0.504,2.963c0,0.561-0.061,0.938-0.181,1.133s-0.351,0.291-0.69,0.291H549.097z M556.162,31.609
			c0-0.48-0.068-0.932-0.203-1.357c-0.135-0.424-0.338-0.797-0.607-1.117s-0.613-0.572-1.027-0.758
			c-0.416-0.186-0.898-0.277-1.447-0.277c-1.07,0-1.913,0.305-2.527,0.916c-0.615,0.609-1.008,1.475-1.178,2.594H556.162z"/>
		<path fill="#FF2455" d="M566.017,18.785v22.289h-3.705V18.785H566.017z"/>
		<path fill="#FF2455" d="M576.531,25.445c1.14,0,2.178,0.184,3.112,0.555c0.935,0.369,1.735,0.895,2.399,1.574
			c0.666,0.68,1.178,1.51,1.538,2.49s0.54,2.076,0.54,3.285c0,1.221-0.18,2.32-0.54,3.301c-0.36,0.979-0.872,1.814-1.538,2.504
			c-0.664,0.689-1.465,1.221-2.399,1.59c-0.935,0.371-1.973,0.555-3.112,0.555c-1.15,0-2.195-0.184-3.135-0.555
			c-0.94-0.369-1.743-0.9-2.408-1.59s-1.18-1.525-1.545-2.504c-0.365-0.98-0.547-2.08-0.547-3.301c0-1.209,0.182-2.305,0.547-3.285
			s0.88-1.811,1.545-2.49s1.468-1.205,2.408-1.574C574.336,25.629,575.381,25.445,576.531,25.445z M576.531,38.449
			c1.279,0,2.228-0.43,2.842-1.289c0.615-0.861,0.923-2.121,0.923-3.781c0-1.658-0.308-2.924-0.923-3.795
			c-0.614-0.869-1.563-1.305-2.842-1.305c-1.301,0-2.263,0.438-2.888,1.313s-0.938,2.139-0.938,3.787
			c0,1.65,0.313,2.908,0.938,3.773S575.23,38.449,576.531,38.449z"/>
		<path fill="#FF2455" d="M605.227,30.199v8.775c-1.101,0.811-2.273,1.402-3.518,1.777c-1.245,0.375-2.578,0.563-3.998,0.563
			c-1.77,0-3.373-0.275-4.807-0.824c-1.436-0.551-2.66-1.314-3.676-2.295s-1.797-2.15-2.348-3.51
			c-0.55-1.361-0.824-2.846-0.824-4.455c0-1.631,0.264-3.125,0.795-4.486c0.529-1.359,1.282-2.529,2.258-3.51
			c0.975-0.98,2.156-1.74,3.547-2.279c1.39-0.541,2.949-0.811,4.68-0.811c0.88,0,1.703,0.07,2.468,0.211
			c0.765,0.139,1.476,0.332,2.13,0.576c0.654,0.246,1.252,0.543,1.793,0.893c0.539,0.352,1.035,0.736,1.484,1.156l-1.154,1.83
			c-0.181,0.289-0.416,0.467-0.705,0.531c-0.291,0.066-0.605-0.008-0.945-0.217c-0.33-0.189-0.66-0.381-0.99-0.57
			s-0.697-0.355-1.103-0.494c-0.405-0.141-0.86-0.256-1.364-0.346c-0.506-0.09-1.088-0.135-1.748-0.135
			c-1.07,0-2.037,0.18-2.902,0.539c-0.865,0.361-1.604,0.875-2.213,1.545s-1.08,1.477-1.41,2.416s-0.494,1.99-0.494,3.15
			c0,1.24,0.177,2.348,0.532,3.322c0.354,0.975,0.854,1.799,1.5,2.475s1.423,1.189,2.333,1.545c0.909,0.355,1.924,0.533,3.045,0.533
			c0.799,0,1.514-0.086,2.145-0.256c0.63-0.17,1.244-0.4,1.845-0.689v-3.93h-2.729c-0.261,0-0.463-0.072-0.607-0.219
			c-0.146-0.145-0.218-0.322-0.218-0.531v-2.281H605.227z"/>
		<path fill="#FF2455" d="M611.211,33.844c0.061,0.791,0.2,1.473,0.42,2.049c0.221,0.574,0.51,1.049,0.871,1.424
			c0.359,0.375,0.787,0.656,1.281,0.84c0.496,0.186,1.043,0.279,1.643,0.279c0.601,0,1.118-0.07,1.553-0.211
			c0.436-0.141,0.814-0.295,1.141-0.465c0.324-0.17,0.609-0.324,0.854-0.465s0.482-0.211,0.712-0.211
			c0.311,0,0.541,0.115,0.691,0.346l1.064,1.35c-0.41,0.48-0.87,0.883-1.381,1.207c-0.51,0.326-1.042,0.586-1.597,0.781
			c-0.556,0.195-1.12,0.332-1.695,0.412s-1.132,0.119-1.673,0.119c-1.07,0-2.064-0.178-2.984-0.531
			c-0.92-0.355-1.721-0.881-2.4-1.576c-0.68-0.693-1.215-1.555-1.604-2.58c-0.39-1.023-0.585-2.211-0.585-3.563
			c0-1.049,0.17-2.037,0.51-2.961c0.34-0.926,0.827-1.73,1.463-2.416c0.635-0.684,1.41-1.227,2.324-1.627
			c0.916-0.4,1.947-0.6,3.098-0.6c0.971,0,1.865,0.154,2.686,0.465c0.819,0.311,1.524,0.762,2.115,1.357
			c0.59,0.594,1.052,1.324,1.387,2.189s0.503,1.854,0.503,2.963c0,0.561-0.06,0.938-0.181,1.133
			c-0.119,0.195-0.35,0.291-0.689,0.291H611.211z M618.276,31.609c0-0.48-0.067-0.932-0.202-1.357
			c-0.135-0.424-0.338-0.797-0.607-1.117c-0.271-0.32-0.613-0.572-1.027-0.758c-0.416-0.186-0.898-0.277-1.448-0.277
			c-1.07,0-1.913,0.305-2.527,0.916c-0.615,0.609-1.008,1.475-1.178,2.594H618.276z"/>
		<path fill="#FF2455" d="M627.877,28.355c0.479-0.92,1.049-1.643,1.709-2.168s1.44-0.787,2.34-0.787
			c0.711,0,1.28,0.154,1.711,0.465l-0.24,2.775c-0.051,0.18-0.123,0.307-0.218,0.381c-0.095,0.076-0.223,0.113-0.382,0.113
			c-0.15,0-0.373-0.025-0.668-0.074c-0.295-0.051-0.583-0.076-0.863-0.076c-0.41,0-0.774,0.061-1.094,0.18
			c-0.32,0.121-0.607,0.293-0.863,0.518c-0.255,0.225-0.48,0.498-0.675,0.818s-0.378,0.686-0.548,1.094v9.48h-3.705V25.686h2.176
			c0.379,0,0.645,0.066,0.795,0.201s0.25,0.379,0.3,0.729L627.877,28.355z"/>
		<path fill="#FF2455" d="M649.445,25.686l-6.104,15.389h-3.36l-6.105-15.389h3.061c0.279,0,0.513,0.064,0.697,0.193
			c0.186,0.131,0.309,0.295,0.367,0.496l2.971,8.219c0.16,0.48,0.3,0.951,0.42,1.41c0.12,0.461,0.225,0.922,0.314,1.381
			c0.101-0.459,0.211-0.92,0.33-1.381c0.121-0.459,0.266-0.93,0.436-1.41l3.029-8.219c0.07-0.201,0.195-0.365,0.375-0.496
			c0.181-0.129,0.396-0.193,0.646-0.193H649.445z"/>
		<path fill="#FF2455" d="M650.676,27.83c1.771-1.621,3.9-2.43,6.391-2.43c0.899,0,1.705,0.146,2.414,0.441
			c0.711,0.295,1.311,0.705,1.801,1.23s0.862,1.152,1.117,1.883s0.383,1.529,0.383,2.4v9.719h-1.68
			c-0.351,0-0.621-0.053-0.811-0.156c-0.189-0.105-0.34-0.318-0.45-0.639l-0.329-1.109c-0.391,0.35-0.771,0.658-1.141,0.922
			c-0.37,0.266-0.756,0.488-1.155,0.668s-0.827,0.316-1.282,0.412s-0.957,0.143-1.508,0.143c-0.65,0-1.25-0.088-1.8-0.262
			c-0.55-0.176-1.024-0.438-1.425-0.787c-0.4-0.352-0.711-0.785-0.93-1.307c-0.221-0.52-0.33-1.125-0.33-1.814
			c0-0.391,0.064-0.777,0.195-1.162c0.129-0.385,0.342-0.752,0.637-1.104c0.295-0.35,0.678-0.68,1.147-0.988
			c0.47-0.311,1.048-0.58,1.732-0.811s1.482-0.418,2.393-0.563s1.95-0.232,3.12-0.264v-0.898c0-1.031-0.221-1.793-0.66-2.289
			c-0.439-0.494-1.074-0.742-1.904-0.742c-0.601,0-1.098,0.07-1.493,0.211s-0.742,0.297-1.042,0.473
			c-0.301,0.174-0.572,0.332-0.818,0.473c-0.244,0.139-0.518,0.209-0.816,0.209c-0.261,0-0.48-0.066-0.66-0.203
			c-0.181-0.135-0.326-0.291-0.436-0.471L650.676,27.83z M659.166,34.504c-1.07,0.051-1.971,0.143-2.7,0.277
			c-0.729,0.137-1.315,0.309-1.755,0.518c-0.439,0.211-0.755,0.455-0.945,0.736c-0.189,0.279-0.285,0.584-0.285,0.914
			c0,0.65,0.193,1.115,0.578,1.395c0.385,0.281,0.887,0.422,1.508,0.422c0.76,0,1.417-0.139,1.973-0.414
			c0.555-0.273,1.097-0.691,1.627-1.252V34.504z"/>
		<path fill="#FF2455" d="M675.65,28.686c-0.1,0.16-0.205,0.271-0.314,0.336c-0.11,0.066-0.25,0.098-0.42,0.098
			c-0.18,0-0.373-0.049-0.578-0.15c-0.205-0.1-0.442-0.211-0.713-0.336c-0.27-0.125-0.576-0.238-0.922-0.338
			c-0.345-0.1-0.752-0.15-1.223-0.15c-0.73,0-1.303,0.156-1.717,0.465c-0.416,0.311-0.623,0.715-0.623,1.215
			c0,0.33,0.107,0.607,0.322,0.832c0.215,0.227,0.5,0.424,0.855,0.594c0.354,0.17,0.758,0.322,1.207,0.457
			c0.45,0.135,0.908,0.283,1.373,0.443s0.922,0.342,1.372,0.547s0.853,0.465,1.208,0.779c0.354,0.316,0.64,0.693,0.854,1.133
			c0.215,0.441,0.323,0.971,0.323,1.59c0,0.74-0.133,1.424-0.398,2.049c-0.265,0.625-0.657,1.164-1.178,1.619
			c-0.52,0.455-1.162,0.811-1.927,1.064c-0.765,0.256-1.647,0.383-2.647,0.383c-0.53,0-1.048-0.047-1.553-0.143
			s-0.99-0.227-1.455-0.396s-0.895-0.371-1.29-0.602c-0.396-0.229-0.742-0.479-1.042-0.75l0.854-1.408
			c0.11-0.17,0.24-0.301,0.39-0.391c0.15-0.09,0.34-0.135,0.57-0.135s0.447,0.064,0.652,0.195c0.205,0.129,0.443,0.27,0.713,0.42
			c0.27,0.148,0.588,0.289,0.953,0.42c0.364,0.129,0.826,0.193,1.387,0.193c0.439,0,0.817-0.051,1.133-0.156
			c0.314-0.105,0.574-0.242,0.779-0.412s0.355-0.369,0.451-0.594c0.094-0.225,0.142-0.457,0.142-0.697
			c0-0.359-0.107-0.654-0.322-0.885c-0.216-0.23-0.5-0.43-0.854-0.6c-0.355-0.17-0.761-0.322-1.215-0.457
			c-0.456-0.137-0.921-0.283-1.396-0.443c-0.476-0.16-0.94-0.348-1.396-0.563s-0.859-0.488-1.215-0.818
			c-0.355-0.328-0.64-0.734-0.855-1.215c-0.215-0.479-0.322-1.059-0.322-1.738c0-0.631,0.125-1.23,0.375-1.801
			s0.617-1.068,1.104-1.492c0.484-0.426,1.09-0.766,1.814-1.02c0.725-0.256,1.563-0.383,2.513-0.383c1.06,0,2.024,0.174,2.895,0.523
			c0.87,0.352,1.595,0.811,2.175,1.381L675.65,28.686z"/>
		<path fill="#FF2455" d="M683.796,21.199c0,0.32-0.065,0.621-0.195,0.9s-0.302,0.525-0.518,0.734
			c-0.215,0.211-0.468,0.379-0.757,0.504c-0.291,0.125-0.601,0.188-0.931,0.188c-0.319,0-0.622-0.063-0.907-0.188
			s-0.533-0.293-0.742-0.504c-0.211-0.209-0.378-0.455-0.503-0.734s-0.188-0.58-0.188-0.9c0-0.33,0.063-0.639,0.188-0.93
			c0.125-0.289,0.292-0.539,0.503-0.75c0.209-0.209,0.457-0.377,0.742-0.502s0.588-0.188,0.907-0.188c0.33,0,0.64,0.063,0.931,0.188
			c0.289,0.125,0.542,0.293,0.757,0.502c0.216,0.211,0.388,0.461,0.518,0.75C683.73,20.561,683.796,20.869,683.796,21.199z
			 M683.285,25.686v15.389h-3.719V25.686H683.285z"/>
		<path fill="#FF2455" d="M693.875,25.445c1.141,0,2.178,0.184,3.113,0.555c0.935,0.369,1.734,0.895,2.399,1.574
			s1.178,1.51,1.538,2.49c0.359,0.98,0.539,2.076,0.539,3.285c0,1.221-0.18,2.32-0.539,3.301c-0.36,0.979-0.873,1.814-1.538,2.504
			s-1.465,1.221-2.399,1.59c-0.936,0.371-1.973,0.555-3.113,0.555c-1.15,0-2.195-0.184-3.135-0.555
			c-0.939-0.369-1.742-0.9-2.407-1.59s-1.181-1.525-1.545-2.504c-0.365-0.98-0.548-2.08-0.548-3.301
			c0-1.209,0.183-2.305,0.548-3.285c0.364-0.98,0.88-1.811,1.545-2.49s1.468-1.205,2.407-1.574
			C691.68,25.629,692.725,25.445,693.875,25.445z M693.875,38.449c1.28,0,2.229-0.43,2.843-1.289
			c0.615-0.861,0.923-2.121,0.923-3.781c0-1.658-0.308-2.924-0.923-3.795c-0.614-0.869-1.563-1.305-2.843-1.305
			c-1.3,0-2.262,0.438-2.887,1.313s-0.938,2.139-0.938,3.787c0,1.65,0.313,2.908,0.938,3.773S692.575,38.449,693.875,38.449z"/>
	</g>
</g>
<g>
	<g>
		<path fill="#FF2455" d="M161.111,22.594v6.422h8.13v3.225h-8.13v8.834h-4.05V19.385h13.68v3.209H161.111z"/>
		<path fill="#FF2455" d="M177.777,21.199c0,0.32-0.065,0.621-0.195,0.9s-0.302,0.525-0.518,0.734
			c-0.215,0.211-0.467,0.379-0.757,0.504s-0.6,0.188-0.93,0.188c-0.32,0-0.622-0.063-0.907-0.188s-0.533-0.293-0.743-0.504
			c-0.21-0.209-0.377-0.455-0.502-0.734s-0.188-0.58-0.188-0.9c0-0.33,0.063-0.639,0.188-0.93c0.125-0.289,0.292-0.539,0.502-0.75
			c0.21-0.209,0.458-0.377,0.743-0.502s0.587-0.188,0.907-0.188c0.33,0,0.64,0.063,0.93,0.188s0.542,0.293,0.757,0.502
			c0.215,0.211,0.388,0.461,0.518,0.75C177.711,20.561,177.777,20.869,177.777,21.199z M177.267,25.686v15.389h-3.72V25.686H177.267
			z"/>
		<path fill="#FF2455" d="M186.176,41.314c-1.34,0-2.368-0.377-3.083-1.133c-0.715-0.754-1.072-1.797-1.072-3.127v-8.596h-1.575
			c-0.2,0-0.37-0.064-0.51-0.193c-0.14-0.131-0.21-0.326-0.21-0.586v-1.471l2.475-0.404l0.78-4.199
			c0.05-0.201,0.145-0.355,0.285-0.465c0.14-0.111,0.32-0.166,0.54-0.166h1.92v4.846h4.11v2.639h-4.11v8.34
			c0,0.48,0.118,0.855,0.353,1.125c0.235,0.271,0.558,0.406,0.968,0.406c0.23,0,0.422-0.027,0.578-0.082
			c0.155-0.057,0.29-0.113,0.405-0.174c0.115-0.059,0.217-0.117,0.308-0.172c0.09-0.055,0.18-0.082,0.27-0.082
			c0.11,0,0.2,0.027,0.27,0.082c0.07,0.055,0.145,0.137,0.225,0.248l1.11,1.799c-0.54,0.451-1.16,0.791-1.86,1.02
			C187.651,41.199,186.926,41.314,186.176,41.314z"/>
		<path fill="#FF2455" d="M198.896,25.445c1.14,0,2.177,0.184,3.112,0.555c0.935,0.369,1.735,0.895,2.4,1.574s1.178,1.51,1.538,2.49
			s0.54,2.076,0.54,3.285c0,1.221-0.18,2.32-0.54,3.301c-0.36,0.979-0.873,1.814-1.538,2.504s-1.465,1.221-2.4,1.59
			c-0.935,0.371-1.973,0.555-3.112,0.555c-1.15,0-2.195-0.184-3.135-0.555c-0.94-0.369-1.743-0.9-2.407-1.59
			c-0.666-0.689-1.18-1.525-1.545-2.504c-0.365-0.98-0.548-2.08-0.548-3.301c0-1.209,0.183-2.305,0.548-3.285
			c0.365-0.98,0.879-1.811,1.545-2.49c0.665-0.68,1.467-1.205,2.407-1.574C196.701,25.629,197.746,25.445,198.896,25.445z
			 M198.896,38.449c1.28,0,2.228-0.43,2.842-1.289c0.615-0.861,0.922-2.121,0.922-3.781c0-1.658-0.307-2.924-0.922-3.795
			c-0.615-0.869-1.563-1.305-2.842-1.305c-1.3,0-2.263,0.438-2.888,1.313s-0.938,2.139-0.938,3.787c0,1.65,0.313,2.908,0.938,3.773
			S197.596,38.449,198.896,38.449z"/>
	</g>
</g>
<g>
	<g>
		<path fill="#FFFFFF" d="M462.723,260.996c-0.127,0.512-0.189,0.93-0.186,1.254s0.055,0.58,0.15,0.768
			c0.096,0.189,0.231,0.318,0.408,0.391c0.176,0.072,0.375,0.107,0.6,0.107c0.336,0,0.654-0.105,0.954-0.316
			c0.3-0.213,0.562-0.512,0.786-0.895c0.224-0.385,0.402-0.84,0.533-1.369c0.133-0.527,0.198-1.104,0.198-1.727
			c0-1.041-0.161-1.957-0.485-2.748c-0.324-0.793-0.779-1.455-1.362-1.986c-0.584-0.531-1.278-0.932-2.082-1.201
			c-0.804-0.268-1.687-0.4-2.646-0.4c-1.057,0-2.033,0.197-2.929,0.594s-1.674,0.938-2.334,1.625
			c-0.659,0.689-1.176,1.5-1.548,2.438c-0.372,0.936-0.559,1.943-0.559,3.023c0,1.313,0.205,2.465,0.612,3.461
			c0.408,0.996,0.968,1.828,1.681,2.496c0.711,0.668,1.549,1.17,2.514,1.506c0.964,0.336,2.006,0.504,3.126,0.504
			c0.616,0,1.192-0.033,1.728-0.102c0.536-0.068,1.028-0.16,1.477-0.275c0.447-0.117,0.855-0.248,1.224-0.396
			s0.696-0.307,0.984-0.475c0.208-0.119,0.392-0.154,0.552-0.107c0.16,0.049,0.275,0.168,0.348,0.359l0.408,1.068
			c-0.832,0.545-1.804,0.988-2.916,1.332c-1.111,0.344-2.38,0.516-3.804,0.516c-1.448,0-2.788-0.227-4.021-0.684
			c-1.231-0.455-2.297-1.109-3.197-1.961c-0.9-0.854-1.604-1.891-2.112-3.115c-0.509-1.223-0.763-2.6-0.763-4.127
			c0-0.855,0.11-1.688,0.33-2.496c0.221-0.809,0.535-1.566,0.942-2.273c0.408-0.709,0.9-1.359,1.476-1.951
			c0.576-0.592,1.217-1.1,1.92-1.523c0.705-0.424,1.467-0.754,2.287-0.99c0.819-0.236,1.678-0.354,2.574-0.354
			c1.135,0,2.226,0.189,3.27,0.57c1.044,0.379,1.968,0.924,2.771,1.631c0.805,0.709,1.446,1.572,1.926,2.592
			c0.48,1.021,0.721,2.17,0.721,3.451c0,0.855-0.126,1.658-0.378,2.406s-0.604,1.396-1.056,1.949
			c-0.453,0.553-0.984,0.986-1.597,1.303c-0.612,0.314-1.278,0.473-1.998,0.473c-0.552,0-1.04-0.127-1.464-0.383
			s-0.716-0.668-0.876-1.236c-0.472,0.576-0.972,0.988-1.5,1.236s-1.101,0.371-1.716,0.371c-0.504,0-0.941-0.088-1.314-0.264
			c-0.371-0.176-0.684-0.418-0.936-0.727c-0.252-0.307-0.439-0.672-0.564-1.092c-0.124-0.42-0.186-0.877-0.186-1.373
			c0-0.457,0.058-0.918,0.174-1.387c0.115-0.469,0.29-0.92,0.521-1.355c0.232-0.436,0.522-0.844,0.871-1.225
			c0.348-0.379,0.756-0.711,1.224-0.996c0.468-0.283,0.995-0.508,1.584-0.672c0.588-0.164,1.233-0.246,1.938-0.246
			c0.623,0,1.155,0.049,1.596,0.145c0.439,0.096,0.863,0.232,1.271,0.408L462.723,260.996z M461.319,257.924
			c-0.257-0.047-0.521-0.072-0.792-0.072c-0.496,0-0.96,0.109-1.393,0.324c-0.432,0.217-0.806,0.508-1.121,0.877
			c-0.316,0.367-0.566,0.789-0.75,1.266c-0.185,0.477-0.276,0.971-0.276,1.482s0.11,0.91,0.33,1.193
			c0.22,0.285,0.542,0.426,0.966,0.426c0.208,0,0.418-0.031,0.63-0.096s0.414-0.178,0.606-0.342
			c0.191-0.164,0.367-0.383,0.527-0.654s0.293-0.611,0.396-1.02L461.319,257.924z"/>
		<path fill="#FFFFFF" d="M473.451,256.748c0.248-0.248,0.51-0.479,0.785-0.689c0.276-0.213,0.568-0.393,0.877-0.541
			c0.308-0.146,0.637-0.264,0.99-0.348c0.352-0.084,0.735-0.125,1.151-0.125c0.672,0,1.269,0.113,1.788,0.342
			s0.954,0.547,1.302,0.959c0.349,0.412,0.612,0.904,0.792,1.477s0.27,1.201,0.27,1.891v7.836h-2.963v-7.836
			c0-0.752-0.173-1.334-0.517-1.746s-0.868-0.619-1.571-0.619c-0.513,0-0.992,0.117-1.44,0.35c-0.448,0.23-0.872,0.547-1.272,0.947
			v8.904h-2.964v-12.313h1.812c0.385,0,0.637,0.18,0.757,0.539L473.451,256.748z"/>
		<path fill="#FFFFFF" d="M487.695,251.648c0,0.256-0.053,0.496-0.156,0.721c-0.104,0.223-0.242,0.42-0.414,0.588
			s-0.374,0.301-0.605,0.4c-0.232,0.102-0.48,0.15-0.744,0.15c-0.256,0-0.498-0.049-0.727-0.15c-0.229-0.1-0.426-0.232-0.594-0.4
			s-0.303-0.365-0.402-0.588c-0.1-0.225-0.15-0.465-0.15-0.721c0-0.264,0.051-0.512,0.15-0.744s0.234-0.432,0.402-0.6
			s0.365-0.303,0.594-0.402s0.471-0.15,0.727-0.15c0.264,0,0.512,0.051,0.744,0.15c0.231,0.1,0.434,0.234,0.605,0.402
			s0.311,0.367,0.414,0.6S487.695,251.385,487.695,251.648z M487.287,255.236v12.313h-2.977v-12.313H487.287z"/>
		<path fill="#FFFFFF" d="M492.591,261.764c0.048,0.633,0.159,1.18,0.336,1.639c0.176,0.461,0.407,0.84,0.696,1.141
			c0.287,0.299,0.629,0.523,1.025,0.672s0.834,0.221,1.314,0.221s0.894-0.055,1.242-0.168c0.348-0.111,0.651-0.234,0.912-0.371
			c0.26-0.137,0.487-0.26,0.684-0.373c0.195-0.111,0.386-0.168,0.57-0.168c0.248,0,0.432,0.094,0.552,0.277l0.853,1.08
			c-0.328,0.383-0.697,0.705-1.104,0.965c-0.408,0.26-0.834,0.469-1.278,0.625c-0.443,0.156-0.896,0.266-1.355,0.33
			c-0.461,0.063-0.906,0.096-1.338,0.096c-0.856,0-1.652-0.143-2.389-0.426c-0.736-0.285-1.376-0.705-1.92-1.26
			c-0.544-0.557-0.973-1.244-1.284-2.064s-0.468-1.77-0.468-2.85c0-0.84,0.136-1.631,0.408-2.371c0.271-0.74,0.662-1.383,1.17-1.932
			c0.508-0.547,1.128-0.982,1.859-1.303c0.732-0.318,1.559-0.479,2.479-0.479c0.775,0,1.492,0.123,2.148,0.371
			c0.655,0.248,1.219,0.611,1.691,1.086c0.473,0.477,0.842,1.061,1.11,1.752c0.268,0.693,0.401,1.482,0.401,2.371
			c0,0.447-0.047,0.75-0.144,0.906c-0.097,0.154-0.28,0.232-0.552,0.232H492.591z M498.242,259.977c0-0.385-0.054-0.746-0.162-1.086
			c-0.107-0.34-0.27-0.639-0.485-0.895s-0.49-0.457-0.822-0.605s-0.718-0.223-1.157-0.223c-0.856,0-1.531,0.244-2.022,0.732
			c-0.492,0.488-0.806,1.18-0.942,2.076H498.242z"/>
		<path fill="#FFFFFF" d="M507.111,267.74c-1.072,0-1.895-0.303-2.467-0.906s-0.857-1.438-0.857-2.502v-6.875h-1.26
			c-0.16,0-0.297-0.053-0.408-0.156c-0.112-0.104-0.168-0.26-0.168-0.469v-1.176l1.98-0.324l0.623-3.359
			c0.04-0.16,0.116-0.285,0.229-0.373c0.111-0.088,0.256-0.131,0.432-0.131h1.536v3.875h3.288v2.113h-3.288v6.672
			c0,0.383,0.094,0.684,0.282,0.9c0.188,0.215,0.445,0.322,0.773,0.322c0.184,0,0.338-0.021,0.463-0.064
			c0.123-0.045,0.231-0.09,0.323-0.139c0.093-0.049,0.175-0.094,0.246-0.139c0.072-0.043,0.144-0.064,0.216-0.064
			c0.088,0,0.16,0.021,0.217,0.064c0.055,0.045,0.115,0.111,0.18,0.199l0.888,1.439c-0.433,0.359-0.929,0.633-1.487,0.816
			C508.291,267.648,507.711,267.74,507.111,267.74z"/>
		<path fill="#FFFFFF" d="M517.287,255.045c0.912,0,1.742,0.148,2.49,0.443c0.748,0.297,1.388,0.717,1.92,1.26
			c0.531,0.545,0.941,1.209,1.229,1.992c0.288,0.785,0.433,1.66,0.433,2.629c0,0.975-0.145,1.855-0.433,2.639
			c-0.288,0.785-0.698,1.453-1.229,2.004c-0.532,0.553-1.172,0.977-1.92,1.273c-0.748,0.295-1.578,0.443-2.49,0.443
			c-0.92,0-1.756-0.148-2.508-0.443c-0.752-0.297-1.395-0.721-1.926-1.273c-0.533-0.551-0.944-1.219-1.236-2.004
			c-0.293-0.783-0.438-1.664-0.438-2.639c0-0.969,0.145-1.844,0.438-2.629c0.292-0.783,0.703-1.447,1.236-1.992
			c0.531-0.543,1.174-0.963,1.926-1.26C515.531,255.193,516.367,255.045,517.287,255.045z M517.287,265.449
			c1.023,0,1.781-0.346,2.273-1.033s0.738-1.695,0.738-3.023s-0.246-2.34-0.738-3.037c-0.492-0.695-1.25-1.043-2.273-1.043
			c-1.04,0-1.811,0.35-2.311,1.051c-0.5,0.699-0.75,1.709-0.75,3.029s0.25,2.326,0.75,3.018S516.247,265.449,517.287,265.449z"/>
	</g>
</g>
</svg>
