<?xml version="1.0" encoding="utf-8"?>
<!-- Generator: Adobe Illustrator 16.0.0, SVG Export Plug-In . SVG Version: 6.00 Build 0)  -->
<!DOCTYPE svg PUBLIC "-//W3C//DTD SVG 1.1//EN" "http://www.w3.org/Graphics/SVG/1.1/DTD/svg11.dtd">
<svg version="1.1" id="Layer_1" xmlns="http://www.w3.org/2000/svg" xmlns:xlink="http://www.w3.org/1999/xlink" x="0px" y="0px"
	 width="440.584px" height="392.591px" viewBox="0 0 440.584 392.591" enable-background="new 0 0 440.584 392.591"
	 xml:space="preserve">
<circle fill="#72B5CF" cx="215.843" cy="189.988" r="120.669"/>
<g>
	<circle fill="#337C98" cx="167.657" cy="195.109" r="43.163"/>
	<g>
		<path fill="#FFFFFF" d="M141.174,185.314v3.244l-0.248,1.758c-0.06,0.33-0.158,0.584-0.293,0.76
			c-0.135,0.177-0.36,0.265-0.676,0.265c-0.278,0-0.492-0.088-0.642-0.265c-0.15-0.176-0.255-0.43-0.315-0.76l-0.248-1.758v-3.244
			H141.174z M145.319,185.314v3.244l-0.248,1.758c-0.061,0.33-0.158,0.584-0.293,0.76c-0.135,0.177-0.36,0.265-0.676,0.265
			c-0.278,0-0.492-0.088-0.642-0.265c-0.15-0.176-0.255-0.43-0.315-0.76l-0.248-1.758v-3.244H145.319z"/>
		<path fill="#FFFFFF" d="M150.647,191.285c0.451-0.421,0.946-0.763,1.487-1.025c0.541-0.263,1.175-0.395,1.904-0.395
			c0.631,0,1.19,0.107,1.679,0.321c0.488,0.214,0.896,0.515,1.222,0.901s0.574,0.849,0.743,1.386s0.253,1.128,0.253,1.774v7.355
			h-2.782v-7.355c0-0.706-0.162-1.253-0.484-1.64s-0.815-0.58-1.476-0.58c-0.481,0-0.931,0.109-1.352,0.327
			c-0.42,0.218-0.818,0.514-1.194,0.89v8.358h-2.782v-16.739h2.782V191.285z"/>
		<path fill="#FFFFFF" d="M165.686,189.865c0.856,0,1.635,0.14,2.338,0.417c0.702,0.278,1.303,0.673,1.802,1.183
			c0.499,0.511,0.884,1.135,1.155,1.87c0.27,0.736,0.405,1.559,0.405,2.467c0,0.917-0.135,1.743-0.405,2.479
			c-0.271,0.736-0.656,1.363-1.155,1.882c-0.5,0.518-1.101,0.916-1.802,1.193c-0.703,0.278-1.481,0.417-2.338,0.417
			c-0.863,0-1.648-0.139-2.354-0.417c-0.706-0.277-1.309-0.676-1.808-1.193c-0.5-0.519-0.886-1.146-1.16-1.882
			c-0.274-0.735-0.411-1.562-0.411-2.479c0-0.908,0.137-1.73,0.411-2.467c0.274-0.735,0.661-1.359,1.16-1.87
			c0.5-0.51,1.102-0.904,1.808-1.183C164.037,190.004,164.822,189.865,165.686,189.865z M165.686,199.631
			c0.961,0,1.673-0.322,2.135-0.969c0.462-0.646,0.693-1.592,0.693-2.839c0-1.246-0.231-2.196-0.693-2.85s-1.173-0.979-2.135-0.979
			c-0.976,0-1.699,0.328-2.168,0.985s-0.704,1.605-0.704,2.844c0,1.239,0.234,2.184,0.704,2.834
			C163.986,199.307,164.709,199.631,165.686,199.631z"/>
		<path fill="#FFFFFF" d="M176.331,184.864v16.739h-2.782v-16.739H176.331z"/>
		<path fill="#FFFFFF" d="M178.843,191.656c1.329-1.216,2.929-1.824,4.799-1.824c0.676,0,1.28,0.11,1.813,0.332
			s0.984,0.529,1.352,0.924c0.368,0.395,0.647,0.865,0.839,1.414c0.192,0.548,0.288,1.148,0.288,1.802v7.3h-1.262
			c-0.263,0-0.466-0.039-0.608-0.118s-0.255-0.238-0.338-0.479l-0.248-0.834c-0.293,0.263-0.578,0.494-0.856,0.692
			c-0.278,0.199-0.567,0.366-0.867,0.502c-0.301,0.135-0.622,0.238-0.963,0.31s-0.719,0.107-1.132,0.107
			c-0.488,0-0.938-0.066-1.352-0.197c-0.413-0.132-0.77-0.329-1.07-0.592s-0.533-0.59-0.698-0.979
			c-0.165-0.391-0.248-0.846-0.248-1.363c0-0.293,0.049-0.584,0.146-0.873s0.257-0.565,0.479-0.828
			c0.221-0.263,0.509-0.511,0.862-0.743c0.353-0.233,0.787-0.436,1.301-0.608c0.515-0.173,1.113-0.313,1.797-0.423
			c0.683-0.108,1.464-0.175,2.343-0.197v-0.676c0-0.773-0.166-1.346-0.496-1.718c-0.331-0.372-0.808-0.558-1.431-0.558
			c-0.451,0-0.824,0.053-1.121,0.158c-0.297,0.104-0.558,0.224-0.783,0.354c-0.226,0.132-0.43,0.25-0.614,0.354
			c-0.184,0.105-0.388,0.158-0.614,0.158c-0.195,0-0.36-0.051-0.496-0.152s-0.244-0.22-0.327-0.354L178.843,191.656z
			 M185.219,196.669c-0.804,0.037-1.479,0.106-2.028,0.208s-0.988,0.23-1.318,0.389c-0.331,0.157-0.567,0.342-0.71,0.552
			c-0.143,0.211-0.214,0.439-0.214,0.688c0,0.488,0.145,0.837,0.434,1.048c0.289,0.21,0.667,0.315,1.132,0.315
			c0.57,0,1.064-0.104,1.481-0.311c0.417-0.206,0.824-0.52,1.222-0.94V196.669z"/>
		<path fill="#FFFFFF" d="M192.417,185.314v3.244l-0.248,1.758c-0.06,0.33-0.158,0.584-0.293,0.76
			c-0.135,0.177-0.36,0.265-0.676,0.265c-0.278,0-0.492-0.088-0.642-0.265c-0.15-0.176-0.255-0.43-0.315-0.76l-0.248-1.758v-3.244
			H192.417z M196.563,185.314v3.244l-0.248,1.758c-0.061,0.33-0.158,0.584-0.293,0.76c-0.135,0.177-0.36,0.265-0.676,0.265
			c-0.278,0-0.492-0.088-0.642-0.265c-0.15-0.176-0.255-0.43-0.315-0.76l-0.248-1.758v-3.244H196.563z"/>
	</g>
</g>
<g>
	<g>
		<path fill="#FF2455" d="M60.013,335.245c-0.1,0.16-0.205,0.272-0.315,0.337c-0.11,0.065-0.25,0.098-0.42,0.098
			c-0.18,0-0.373-0.05-0.577-0.15c-0.205-0.1-0.443-0.212-0.713-0.337s-0.577-0.237-0.922-0.338c-0.345-0.1-0.752-0.149-1.223-0.149
			c-0.73,0-1.302,0.155-1.717,0.465s-0.623,0.715-0.623,1.215c0,0.33,0.107,0.607,0.323,0.832c0.215,0.226,0.5,0.423,0.855,0.593
			c0.354,0.17,0.757,0.322,1.208,0.458c0.45,0.135,0.907,0.282,1.372,0.442c0.465,0.16,0.923,0.343,1.373,0.547
			c0.45,0.205,0.853,0.466,1.208,0.78c0.355,0.315,0.64,0.692,0.855,1.133s0.323,0.97,0.323,1.59c0,0.74-0.133,1.423-0.397,2.048
			c-0.265,0.625-0.658,1.165-1.178,1.62s-1.163,0.81-1.927,1.064c-0.765,0.255-1.648,0.383-2.647,0.383
			c-0.53,0-1.048-0.048-1.553-0.143c-0.505-0.096-0.99-0.228-1.455-0.397c-0.465-0.17-0.895-0.37-1.29-0.601
			c-0.395-0.229-0.742-0.479-1.042-0.75l0.855-1.409c0.11-0.17,0.24-0.301,0.39-0.391s0.34-0.135,0.57-0.135
			s0.448,0.065,0.653,0.195c0.205,0.13,0.442,0.27,0.712,0.42c0.27,0.149,0.587,0.29,0.953,0.42c0.365,0.13,0.827,0.194,1.387,0.194
			c0.44,0,0.817-0.052,1.133-0.157c0.315-0.104,0.575-0.242,0.78-0.412s0.355-0.368,0.45-0.593c0.095-0.225,0.142-0.457,0.142-0.697
			c0-0.36-0.107-0.655-0.322-0.885c-0.215-0.23-0.5-0.431-0.855-0.601s-0.76-0.322-1.215-0.457c-0.456-0.136-0.92-0.282-1.395-0.442
			c-0.475-0.16-0.94-0.348-1.395-0.563c-0.455-0.215-0.86-0.488-1.215-0.818c-0.355-0.329-0.64-0.734-0.855-1.215
			c-0.215-0.479-0.322-1.06-0.322-1.739c0-0.631,0.125-1.23,0.375-1.801c0.25-0.569,0.617-1.067,1.103-1.492
			c0.485-0.425,1.09-0.765,1.815-1.02c0.725-0.256,1.563-0.383,2.513-0.383c1.06,0,2.025,0.175,2.895,0.524
			c0.87,0.351,1.595,0.811,2.175,1.381L60.013,335.245z"/>
		<path fill="#FF2455" d="M63.448,334.39c1.77-1.62,3.9-2.43,6.39-2.43c0.9,0,1.705,0.147,2.415,0.442s1.31,0.705,1.8,1.229
			c0.49,0.525,0.862,1.153,1.117,1.883c0.255,0.73,0.383,1.53,0.383,2.4v9.72h-1.68c-0.35,0-0.62-0.053-0.81-0.157
			c-0.19-0.105-0.34-0.317-0.45-0.638l-0.33-1.11c-0.39,0.351-0.771,0.658-1.14,0.923c-0.37,0.265-0.755,0.487-1.155,0.667
			c-0.4,0.181-0.827,0.317-1.282,0.413c-0.455,0.095-0.958,0.143-1.507,0.143c-0.65,0-1.25-0.088-1.8-0.263
			s-1.025-0.438-1.425-0.787c-0.4-0.351-0.71-0.785-0.93-1.306c-0.22-0.52-0.33-1.125-0.33-1.814c0-0.391,0.065-0.777,0.195-1.163
			c0.13-0.385,0.342-0.752,0.637-1.103c0.295-0.35,0.677-0.68,1.147-0.989c0.47-0.311,1.047-0.58,1.732-0.811
			c0.685-0.229,1.482-0.417,2.393-0.563c0.91-0.145,1.95-0.232,3.12-0.263v-0.899c0-1.03-0.22-1.793-0.66-2.288
			s-1.075-0.742-1.905-0.742c-0.6,0-1.098,0.07-1.493,0.21c-0.395,0.141-0.742,0.298-1.042,0.473
			c-0.3,0.175-0.572,0.332-0.817,0.473c-0.245,0.14-0.518,0.21-0.817,0.21c-0.26,0-0.48-0.067-0.66-0.203
			c-0.18-0.135-0.325-0.292-0.435-0.472L63.448,334.39z M71.938,341.064c-1.07,0.051-1.97,0.143-2.7,0.277
			c-0.73,0.136-1.315,0.308-1.755,0.518s-0.755,0.455-0.945,0.735s-0.285,0.585-0.285,0.915c0,0.65,0.192,1.115,0.578,1.395
			c0.385,0.28,0.887,0.421,1.507,0.421c0.76,0,1.417-0.138,1.973-0.413c0.555-0.274,1.097-0.692,1.627-1.252V341.064z"/>
		<path fill="#FF2455" d="M82.783,325.345v22.29h-3.705v-22.29H82.783z"/>
		<path fill="#FF2455" d="M99.747,332.245v15.39h-2.265c-0.49,0-0.8-0.225-0.93-0.675l-0.255-1.23
			c-0.63,0.641-1.325,1.158-2.085,1.553c-0.76,0.395-1.655,0.593-2.685,0.593c-0.84,0-1.583-0.143-2.228-0.428
			s-1.188-0.688-1.627-1.207c-0.44-0.521-0.772-1.138-0.998-1.853s-0.337-1.503-0.337-2.363v-9.779h3.705v9.779
			c0,0.94,0.218,1.668,0.653,2.183c0.435,0.516,1.087,0.772,1.958,0.772c0.64,0,1.24-0.143,1.8-0.427
			c0.56-0.285,1.09-0.678,1.59-1.178v-11.13H99.747z"/>
		<path fill="#FF2455" d="M116.772,325.345v22.29h-2.265c-0.49,0-0.8-0.225-0.93-0.675l-0.315-1.485
			c-0.62,0.71-1.333,1.285-2.138,1.726c-0.805,0.439-1.743,0.659-2.813,0.659c-0.84,0-1.61-0.175-2.31-0.524
			c-0.7-0.351-1.302-0.857-1.807-1.522c-0.505-0.665-0.895-1.487-1.17-2.468c-0.275-0.979-0.412-2.1-0.412-3.36
			c0-1.14,0.155-2.199,0.465-3.18c0.31-0.979,0.755-1.83,1.335-2.55s1.275-1.282,2.085-1.688s1.72-0.607,2.73-0.607
			c0.86,0,1.595,0.135,2.205,0.405c0.61,0.27,1.155,0.635,1.635,1.095v-8.115H116.772z M113.067,336.175
			c-0.42-0.51-0.878-0.87-1.373-1.08c-0.495-0.21-1.028-0.315-1.598-0.315c-0.56,0-1.065,0.105-1.515,0.315
			c-0.45,0.21-0.835,0.527-1.155,0.952c-0.32,0.426-0.565,0.966-0.735,1.62c-0.17,0.655-0.255,1.428-0.255,2.317
			c0,0.9,0.073,1.663,0.218,2.288c0.145,0.625,0.353,1.135,0.623,1.53c0.27,0.395,0.6,0.68,0.99,0.854s0.825,0.263,1.305,0.263
			c0.77,0,1.425-0.16,1.965-0.48c0.54-0.319,1.05-0.774,1.53-1.364V336.175z"/>
		<path fill="#FF2455" d="M127.242,332.005c1.14,0,2.177,0.185,3.112,0.555s1.735,0.896,2.4,1.575s1.178,1.51,1.538,2.49
			c0.36,0.979,0.54,2.075,0.54,3.285c0,1.22-0.18,2.319-0.54,3.3c-0.36,0.979-0.873,1.814-1.538,2.505
			c-0.665,0.689-1.465,1.22-2.4,1.59s-1.973,0.555-3.112,0.555c-1.15,0-2.195-0.185-3.135-0.555s-1.743-0.9-2.407-1.59
			c-0.666-0.69-1.18-1.525-1.545-2.505c-0.365-0.98-0.548-2.08-0.548-3.3c0-1.21,0.183-2.306,0.548-3.285
			c0.365-0.98,0.879-1.811,1.545-2.49c0.665-0.68,1.467-1.205,2.407-1.575S126.092,332.005,127.242,332.005z M127.242,345.01
			c1.28,0,2.228-0.43,2.842-1.29c0.615-0.86,0.922-2.12,0.922-3.78c0-1.659-0.307-2.925-0.922-3.795
			c-0.615-0.87-1.563-1.305-2.842-1.305c-1.3,0-2.263,0.438-2.888,1.313s-0.938,2.138-0.938,3.787c0,1.65,0.313,2.908,0.938,3.772
			C124.979,344.577,125.942,345.01,127.242,345.01z"/>
	</g>
</g>
<g>
	
		<line fill="none" stroke="#337C98" stroke-width="10" stroke-linecap="round" stroke-linejoin="round" stroke-miterlimit="10" x1="137.606" y1="249.091" x2="107.574" y2="312.066"/>
	
		<polyline fill="none" stroke="#337C98" stroke-width="10" stroke-linecap="round" stroke-linejoin="round" stroke-miterlimit="10" points="
		124.646,249.868 140.12,243.822 145.162,259.652 	"/>
</g>
</svg>
