<?xml version="1.0" encoding="utf-8"?>
<!-- Generator: Adobe Illustrator 16.0.0, SVG Export Plug-In . SVG Version: 6.00 Build 0)  -->
<!DOCTYPE svg PUBLIC "-//W3C//DTD SVG 1.1//EN" "http://www.w3.org/Graphics/SVG/1.1/DTD/svg11.dtd">
<svg version="1.1" id="Layer_1" xmlns="http://www.w3.org/2000/svg" xmlns:xlink="http://www.w3.org/1999/xlink" x="0px" y="0px"
	 width="440.584px" height="392.591px" viewBox="0 0 440.584 392.591" enable-background="new 0 0 440.584 392.591"
	 xml:space="preserve">
<circle fill="#72B5CF" cx="218.244" cy="199.263" r="173.764"/>
<g>
	<g>
		<path fill="#FF2455" d="M31.716,345.22c1.45,0,2.705,0.17,3.765,0.51c1.061,0.34,1.936,0.814,2.625,1.426
			c0.69,0.609,1.203,1.34,1.538,2.189s0.503,1.779,0.503,2.789c0,1.051-0.176,2.014-0.525,2.889s-0.875,1.627-1.575,2.258
			c-0.7,0.629-1.577,1.119-2.632,1.469c-1.056,0.352-2.288,0.525-3.698,0.525h-3.015v7.635h-4.035V345.22H31.716z M31.716,356.124
			c0.74,0,1.386-0.092,1.935-0.277c0.551-0.184,1.008-0.449,1.373-0.795c0.365-0.344,0.638-0.764,0.817-1.26
			c0.181-0.494,0.271-1.047,0.271-1.658c0-0.578-0.09-1.104-0.271-1.574c-0.18-0.471-0.45-0.869-0.81-1.199
			c-0.36-0.33-0.815-0.584-1.365-0.758c-0.551-0.176-1.2-0.264-1.95-0.264h-3.015v7.785H31.716z"/>
		<path fill="#FF2455" d="M44.796,359.679c0.06,0.791,0.2,1.473,0.42,2.049c0.22,0.574,0.51,1.049,0.87,1.424
			c0.359,0.375,0.787,0.656,1.282,0.84c0.495,0.186,1.042,0.279,1.643,0.279s1.118-0.07,1.552-0.211
			c0.436-0.141,0.815-0.295,1.141-0.465c0.324-0.17,0.609-0.324,0.855-0.465c0.244-0.141,0.482-0.211,0.712-0.211
			c0.31,0,0.54,0.115,0.69,0.346l1.064,1.35c-0.41,0.48-0.869,0.883-1.38,1.207c-0.51,0.326-1.042,0.586-1.597,0.781
			c-0.556,0.195-1.121,0.332-1.695,0.412c-0.576,0.08-1.133,0.119-1.673,0.119c-1.07,0-2.065-0.178-2.985-0.531
			c-0.92-0.355-1.72-0.881-2.399-1.576c-0.681-0.693-1.216-1.555-1.604-2.58c-0.391-1.023-0.586-2.211-0.586-3.563
			c0-1.049,0.17-2.037,0.51-2.961c0.34-0.926,0.828-1.73,1.463-2.416c0.635-0.684,1.41-1.227,2.325-1.627s1.947-0.6,3.097-0.6
			c0.971,0,1.865,0.154,2.686,0.465s1.525,0.762,2.115,1.357c0.59,0.594,1.053,1.324,1.387,2.189
			c0.336,0.865,0.504,1.854,0.504,2.963c0,0.561-0.061,0.938-0.181,1.133s-0.351,0.291-0.69,0.291H44.796z M51.861,357.444
			c0-0.48-0.068-0.932-0.203-1.357c-0.135-0.424-0.338-0.797-0.607-1.117s-0.613-0.572-1.027-0.758
			c-0.416-0.186-0.898-0.277-1.447-0.277c-1.07,0-1.913,0.305-2.527,0.916c-0.615,0.609-1.008,1.475-1.178,2.594H51.861z"/>
		<path fill="#FF2455" d="M61.476,353.62c0.63-0.711,1.345-1.285,2.146-1.725c0.8-0.441,1.74-0.66,2.82-0.66
			c0.84,0,1.606,0.174,2.302,0.523c0.694,0.352,1.295,0.859,1.8,1.523c0.505,0.666,0.895,1.484,1.17,2.459
			c0.275,0.977,0.413,2.094,0.413,3.354c0,1.15-0.155,2.215-0.466,3.195c-0.31,0.98-0.752,1.83-1.327,2.549
			c-0.575,0.721-1.271,1.283-2.085,1.688c-0.814,0.406-1.728,0.607-2.737,0.607c-0.86,0-1.595-0.131-2.205-0.396
			s-1.155-0.633-1.635-1.104v6.301h-3.705v-20.414h2.265c0.48,0,0.795,0.225,0.945,0.674L61.476,353.62z M61.671,362.919
			c0.42,0.51,0.878,0.871,1.372,1.08c0.495,0.211,1.033,0.316,1.613,0.316c0.56,0,1.064-0.105,1.515-0.316
			c0.45-0.209,0.833-0.529,1.147-0.959s0.557-0.973,0.728-1.627c0.17-0.656,0.255-1.428,0.255-2.318c0-0.9-0.072-1.662-0.218-2.287
			s-0.353-1.133-0.622-1.523c-0.27-0.389-0.598-0.674-0.982-0.855c-0.385-0.18-0.822-0.27-1.313-0.27
			c-0.771,0-1.426,0.164-1.965,0.488c-0.541,0.324-1.051,0.783-1.53,1.373V362.919z"/>
		<path fill="#FF2455" d="M79.355,347.034c0,0.32-0.065,0.621-0.195,0.9s-0.303,0.525-0.518,0.734
			c-0.215,0.211-0.467,0.379-0.758,0.504c-0.289,0.125-0.6,0.188-0.93,0.188c-0.32,0-0.622-0.063-0.907-0.188
			s-0.532-0.293-0.743-0.504c-0.209-0.209-0.377-0.455-0.502-0.734s-0.188-0.58-0.188-0.9c0-0.33,0.063-0.639,0.188-0.93
			c0.125-0.289,0.293-0.539,0.502-0.75c0.211-0.209,0.458-0.377,0.743-0.502s0.587-0.188,0.907-0.188c0.33,0,0.641,0.063,0.93,0.188
			c0.291,0.125,0.543,0.293,0.758,0.502c0.215,0.211,0.388,0.461,0.518,0.75C79.29,346.396,79.355,346.704,79.355,347.034z
			 M78.846,351.521v15.389h-3.721v-15.389H78.846z"/>
		<path fill="#FF2455" d="M87.756,367.149c-1.341,0-2.368-0.377-3.083-1.133c-0.715-0.754-1.072-1.797-1.072-3.127v-8.596h-1.575
			c-0.2,0-0.37-0.064-0.51-0.193c-0.141-0.131-0.211-0.326-0.211-0.586v-1.471l2.476-0.404l0.78-4.199
			c0.05-0.201,0.145-0.355,0.285-0.465c0.14-0.111,0.32-0.166,0.539-0.166h1.92v4.846h4.111v2.639h-4.111v8.34
			c0,0.48,0.118,0.855,0.354,1.125c0.234,0.271,0.557,0.406,0.967,0.406c0.23,0,0.423-0.027,0.578-0.082
			c0.154-0.057,0.289-0.113,0.404-0.174c0.115-0.059,0.218-0.117,0.309-0.172c0.09-0.055,0.18-0.082,0.27-0.082
			c0.109,0,0.199,0.027,0.27,0.082s0.145,0.137,0.225,0.248l1.111,1.799c-0.541,0.451-1.16,0.791-1.861,1.02
			C89.23,367.034,88.506,367.149,87.756,367.149z"/>
		<path fill="#FF2455" d="M93.426,353.665c1.77-1.621,3.899-2.43,6.389-2.43c0.9,0,1.705,0.146,2.416,0.441
			c0.709,0.295,1.31,0.705,1.8,1.23c0.489,0.525,0.862,1.152,1.117,1.883s0.383,1.529,0.383,2.4v9.719h-1.681
			c-0.35,0-0.619-0.053-0.81-0.156c-0.19-0.105-0.34-0.318-0.45-0.639l-0.33-1.109c-0.39,0.35-0.77,0.658-1.14,0.922
			c-0.37,0.266-0.755,0.488-1.155,0.668s-0.827,0.316-1.282,0.412s-0.958,0.143-1.507,0.143c-0.65,0-1.251-0.088-1.801-0.262
			c-0.55-0.176-1.025-0.438-1.425-0.787c-0.4-0.352-0.71-0.785-0.931-1.307c-0.22-0.52-0.33-1.125-0.33-1.814
			c0-0.391,0.065-0.777,0.195-1.162c0.131-0.385,0.343-0.752,0.638-1.104c0.295-0.35,0.677-0.68,1.147-0.988
			c0.471-0.311,1.047-0.58,1.732-0.811s1.482-0.418,2.393-0.563s1.95-0.232,3.12-0.264v-0.898c0-1.031-0.22-1.793-0.66-2.289
			c-0.44-0.494-1.075-0.742-1.905-0.742c-0.6,0-1.098,0.07-1.492,0.211s-0.742,0.297-1.043,0.473
			c-0.299,0.174-0.572,0.332-0.816,0.473c-0.246,0.139-0.518,0.209-0.818,0.209c-0.26,0-0.479-0.066-0.66-0.203
			c-0.18-0.135-0.324-0.291-0.435-0.471L93.426,353.665z M101.915,360.339c-1.07,0.051-1.97,0.143-2.7,0.277
			c-0.73,0.137-1.314,0.309-1.755,0.518c-0.44,0.211-0.755,0.455-0.944,0.736c-0.19,0.279-0.285,0.584-0.285,0.914
			c0,0.65,0.191,1.115,0.577,1.395c0.385,0.281,0.888,0.422,1.507,0.422c0.76,0,1.418-0.139,1.973-0.414
			c0.556-0.273,1.098-0.691,1.628-1.252V360.339z"/>
	</g>
</g>
<g>
	
		<line fill="none" stroke="#337C98" stroke-width="10" stroke-linecap="round" stroke-linejoin="round" stroke-miterlimit="10" x1="86.146" y1="255.964" x2="66.768" y2="322.988"/>
	
		<polyline fill="none" stroke="#337C98" stroke-width="10" stroke-linecap="round" stroke-linejoin="round" stroke-miterlimit="10" points="
		73.485,258.841 87.77,250.354 95.32,265.153 	"/>
</g>
<g>
	<circle fill="#337C98" cx="108.742" cy="197.384" r="43.163"/>
</g>
<g>
	<circle fill="#337C98" cx="316.078" cy="211.714" r="43.163"/>
	<g>
		<path fill="#FFFFFF" d="M310.423,213.889c0.128-0.158,0.248-0.312,0.36-0.462c0.113-0.15,0.222-0.301,0.327-0.451
			c-0.376,0.241-0.788,0.423-1.239,0.547s-0.924,0.186-1.42,0.186c-0.563,0-1.115-0.098-1.655-0.293
			c-0.541-0.195-1.021-0.489-1.442-0.884c-0.42-0.395-0.76-0.883-1.02-1.465c-0.259-0.582-0.389-1.264-0.389-2.044
			c0-0.729,0.136-1.412,0.406-2.051c0.27-0.638,0.649-1.197,1.137-1.679c0.488-0.48,1.074-0.859,1.758-1.138
			c0.684-0.277,1.438-0.416,2.265-0.416c0.833,0,1.583,0.131,2.247,0.394c0.664,0.264,1.231,0.631,1.701,1.104
			c0.469,0.473,0.83,1.04,1.081,1.701c0.252,0.66,0.378,1.385,0.378,2.174c0,0.503-0.043,0.979-0.13,1.431
			c-0.087,0.45-0.208,0.884-0.366,1.301s-0.35,0.824-0.574,1.223c-0.226,0.397-0.477,0.792-0.755,1.183l-3.729,5.316
			c-0.128,0.181-0.319,0.333-0.575,0.457c-0.255,0.124-0.544,0.186-0.867,0.186h-2.557L310.423,213.889z M306.729,208.808
			c0,0.909,0.234,1.602,0.703,2.079c0.47,0.477,1.137,0.715,2,0.715c0.451,0,0.852-0.071,1.205-0.214s0.65-0.338,0.891-0.586
			s0.422-0.541,0.546-0.879s0.187-0.702,0.187-1.092c0-0.443-0.068-0.84-0.203-1.188c-0.135-0.35-0.327-0.645-0.574-0.885
			c-0.248-0.24-0.543-0.424-0.885-0.552s-0.715-0.191-1.121-0.191c-0.42,0-0.8,0.069-1.138,0.208
			c-0.338,0.14-0.627,0.332-0.867,0.58c-0.241,0.248-0.425,0.543-0.552,0.885C306.792,208.029,306.729,208.402,306.729,208.808z"/>
		<path fill="#FFFFFF" d="M328.582,212.063c0,1.42-0.152,2.653-0.457,3.7c-0.304,1.048-0.725,1.914-1.262,2.597
			c-0.537,0.684-1.172,1.192-1.903,1.526c-0.732,0.334-1.522,0.502-2.371,0.502s-1.636-0.168-2.36-0.502s-1.354-0.843-1.887-1.526
			c-0.533-0.683-0.95-1.549-1.25-2.597c-0.301-1.047-0.451-2.28-0.451-3.7c0-1.427,0.15-2.662,0.451-3.706
			c0.3-1.044,0.717-1.907,1.25-2.591s1.162-1.192,1.887-1.526s1.512-0.501,2.36-0.501s1.639,0.167,2.371,0.501
			c0.731,0.334,1.366,0.843,1.903,1.526s0.958,1.547,1.262,2.591C328.43,209.401,328.582,210.637,328.582,212.063z M325.709,212.063
			c0-1.179-0.086-2.155-0.26-2.929c-0.172-0.773-0.402-1.39-0.691-1.848c-0.29-0.458-0.622-0.779-0.998-0.963
			c-0.375-0.184-0.766-0.276-1.171-0.276c-0.398,0-0.783,0.093-1.155,0.276c-0.371,0.184-0.699,0.505-0.985,0.963
			c-0.285,0.458-0.513,1.074-0.681,1.848c-0.17,0.773-0.254,1.75-0.254,2.929s0.084,2.155,0.254,2.929
			c0.168,0.773,0.396,1.39,0.681,1.848c0.286,0.458,0.614,0.779,0.985,0.963c0.372,0.185,0.757,0.276,1.155,0.276
			c0.405,0,0.796-0.092,1.171-0.276c0.376-0.184,0.708-0.505,0.998-0.963c0.289-0.458,0.52-1.074,0.691-1.848
			C325.623,214.219,325.709,213.242,325.709,212.063z"/>
	</g>
</g>
<g>
	<circle fill="#337C98" cx="298.078" cy="118.311" r="43.163"/>
</g>
<g>
	<g>
		<path fill="#FFFFFF" d="M173.327,238.968c-0.12,0.48-0.179,0.873-0.175,1.176c0.004,0.305,0.051,0.545,0.141,0.721
			c0.09,0.178,0.218,0.299,0.383,0.367c0.166,0.068,0.354,0.102,0.563,0.102c0.315,0,0.614-0.1,0.896-0.299s0.527-0.479,0.738-0.84
			c0.21-0.359,0.377-0.787,0.501-1.283s0.187-1.037,0.187-1.623c0-0.977-0.152-1.836-0.457-2.578
			c-0.305-0.744-0.73-1.365-1.278-1.865s-1.2-0.875-1.954-1.127c-0.756-0.252-1.583-0.377-2.484-0.377
			c-0.991,0-1.908,0.186-2.748,0.559c-0.842,0.371-1.572,0.879-2.191,1.525s-1.104,1.408-1.453,2.287s-0.523,1.824-0.523,2.838
			c0,1.232,0.191,2.314,0.574,3.25s0.908,1.717,1.576,2.344c0.669,0.627,1.455,1.098,2.361,1.414
			c0.904,0.314,1.883,0.473,2.934,0.473c0.578,0,1.119-0.031,1.623-0.096c0.502-0.064,0.965-0.15,1.385-0.26
			s0.804-0.232,1.148-0.371c0.346-0.139,0.654-0.287,0.924-0.445c0.195-0.113,0.369-0.146,0.519-0.102
			c0.15,0.045,0.259,0.158,0.327,0.338l0.383,1.004c-0.781,0.51-1.693,0.926-2.737,1.25c-1.044,0.322-2.234,0.484-3.571,0.484
			c-1.359,0-2.617-0.215-3.773-0.643s-2.157-1.043-3.002-1.842c-0.846-0.801-1.506-1.773-1.982-2.924
			c-0.478-1.148-0.716-2.439-0.716-3.875c0-0.803,0.104-1.584,0.31-2.342c0.207-0.76,0.502-1.471,0.885-2.135
			c0.383-0.666,0.845-1.275,1.385-1.832c0.541-0.555,1.143-1.031,1.803-1.43c0.661-0.398,1.377-0.707,2.146-0.93
			c0.77-0.221,1.574-0.332,2.416-0.332c1.066,0,2.09,0.178,3.07,0.535c0.979,0.357,1.847,0.867,2.602,1.531
			c0.755,0.666,1.357,1.477,1.809,2.434c0.45,0.957,0.676,2.037,0.676,3.238c0,0.805-0.119,1.557-0.355,2.26
			c-0.236,0.701-0.566,1.313-0.991,1.83s-0.924,0.926-1.498,1.223c-0.575,0.297-1.2,0.445-1.876,0.445
			c-0.518,0-0.977-0.121-1.374-0.361s-0.673-0.627-0.822-1.16c-0.443,0.541-0.913,0.928-1.408,1.16s-1.032,0.35-1.61,0.35
			c-0.474,0-0.885-0.084-1.234-0.248c-0.349-0.166-0.642-0.393-0.879-0.682c-0.236-0.289-0.412-0.631-0.529-1.025
			c-0.116-0.395-0.174-0.824-0.174-1.289c0-0.428,0.055-0.863,0.163-1.301c0.108-0.439,0.272-0.865,0.49-1.273
			c0.218-0.41,0.489-0.793,0.816-1.148c0.327-0.357,0.71-0.67,1.149-0.936c0.439-0.268,0.935-0.477,1.486-0.631
			c0.553-0.154,1.158-0.23,1.819-0.23c0.586,0,1.085,0.045,1.499,0.135c0.412,0.09,0.811,0.217,1.193,0.383L173.327,238.968z
			 M172.009,236.083c-0.24-0.045-0.488-0.066-0.743-0.066c-0.466,0-0.901,0.1-1.307,0.303c-0.406,0.203-0.757,0.477-1.054,0.822
			c-0.296,0.346-0.531,0.742-0.704,1.189c-0.172,0.447-0.259,0.91-0.259,1.391s0.103,0.855,0.31,1.121s0.509,0.4,0.907,0.4
			c0.194,0,0.392-0.031,0.591-0.09c0.199-0.061,0.389-0.168,0.569-0.322s0.345-0.357,0.495-0.613s0.274-0.574,0.372-0.957
			L172.009,236.083z"/>
		<path fill="#FFFFFF" d="M182.936,239.688c0.045,0.594,0.15,1.105,0.315,1.537s0.383,0.789,0.653,1.07s0.592,0.492,0.963,0.631
			c0.372,0.139,0.783,0.209,1.234,0.209c0.449,0,0.838-0.053,1.165-0.158s0.612-0.221,0.856-0.35
			c0.244-0.127,0.458-0.244,0.643-0.35c0.184-0.104,0.361-0.156,0.535-0.156c0.232,0,0.404,0.086,0.518,0.258l0.8,1.014
			c-0.308,0.361-0.653,0.664-1.036,0.908s-0.783,0.439-1.2,0.586c-0.417,0.145-0.841,0.248-1.272,0.309s-0.851,0.09-1.256,0.09
			c-0.805,0-1.551-0.133-2.242-0.398c-0.691-0.268-1.291-0.662-1.803-1.184c-0.51-0.521-0.912-1.168-1.205-1.938
			s-0.439-1.662-0.439-2.676c0-0.789,0.128-1.529,0.383-2.225c0.256-0.695,0.621-1.299,1.099-1.814
			c0.478-0.514,1.06-0.922,1.746-1.221c0.688-0.301,1.462-0.451,2.326-0.451c0.729,0,1.401,0.117,2.017,0.35s1.145,0.572,1.588,1.02
			s0.791,0.994,1.043,1.645c0.251,0.648,0.377,1.391,0.377,2.225c0,0.42-0.045,0.703-0.135,0.85
			c-0.091,0.146-0.264,0.221-0.519,0.221H182.936z M188.241,238.009c0-0.359-0.051-0.699-0.151-1.02
			c-0.102-0.318-0.254-0.598-0.457-0.838s-0.46-0.43-0.771-0.568c-0.312-0.141-0.674-0.209-1.087-0.209
			c-0.804,0-1.437,0.229-1.898,0.688c-0.462,0.457-0.757,1.107-0.884,1.947H188.241z"/>
		<path fill="#FFFFFF" d="M195.428,234.979c0.232-0.232,0.479-0.449,0.738-0.648s0.533-0.367,0.822-0.506s0.599-0.248,0.93-0.326
			c0.33-0.08,0.69-0.119,1.081-0.119c0.631,0,1.19,0.107,1.679,0.32c0.488,0.215,0.896,0.516,1.223,0.902
			c0.326,0.387,0.574,0.848,0.742,1.385c0.17,0.537,0.254,1.129,0.254,1.775v7.355h-2.782v-7.355c0-0.707-0.161-1.254-0.484-1.641
			s-0.815-0.58-1.476-0.58c-0.48,0-0.932,0.109-1.352,0.328c-0.421,0.217-0.818,0.514-1.194,0.889v8.359h-2.782V233.56h1.701
			c0.359,0,0.597,0.17,0.709,0.508L195.428,234.979z"/>
		<path fill="#FFFFFF" d="M207.673,239.688c0.045,0.594,0.149,1.105,0.315,1.537c0.165,0.432,0.383,0.789,0.653,1.07
			s0.591,0.492,0.963,0.631s0.783,0.209,1.233,0.209c0.451,0,0.84-0.053,1.166-0.158s0.612-0.221,0.856-0.35
			c0.243-0.127,0.458-0.244,0.642-0.35c0.184-0.104,0.363-0.156,0.535-0.156c0.232,0,0.406,0.086,0.519,0.258l0.8,1.014
			c-0.309,0.361-0.653,0.664-1.037,0.908c-0.383,0.244-0.782,0.439-1.199,0.586c-0.416,0.145-0.841,0.248-1.273,0.309
			c-0.432,0.061-0.85,0.09-1.256,0.09c-0.803,0-1.551-0.133-2.241-0.398c-0.69-0.268-1.292-0.662-1.802-1.184
			c-0.512-0.521-0.913-1.168-1.206-1.938c-0.292-0.77-0.438-1.662-0.438-2.676c0-0.789,0.127-1.529,0.383-2.225
			c0.255-0.695,0.621-1.299,1.098-1.814c0.477-0.514,1.059-0.922,1.746-1.221c0.688-0.301,1.463-0.451,2.326-0.451
			c0.729,0,1.4,0.117,2.017,0.35s1.146,0.572,1.589,1.02c0.442,0.447,0.789,0.994,1.041,1.645c0.252,0.648,0.378,1.391,0.378,2.225
			c0,0.42-0.046,0.703-0.136,0.85s-0.263,0.221-0.518,0.221H207.673z M212.979,238.009c0-0.359-0.051-0.699-0.152-1.02
			c-0.102-0.318-0.253-0.598-0.456-0.838c-0.202-0.24-0.46-0.43-0.771-0.568c-0.312-0.141-0.675-0.209-1.087-0.209
			c-0.804,0-1.437,0.229-1.898,0.688c-0.462,0.457-0.756,1.107-0.885,1.947H212.979z"/>
		<path fill="#FFFFFF" d="M220.188,235.565c0.361-0.691,0.789-1.234,1.285-1.629c0.495-0.393,1.081-0.59,1.757-0.59
			c0.533,0,0.961,0.115,1.284,0.348l-0.18,2.084c-0.038,0.137-0.093,0.232-0.164,0.289c-0.071,0.055-0.167,0.084-0.287,0.084
			c-0.113,0-0.279-0.02-0.502-0.057c-0.221-0.037-0.438-0.057-0.646-0.057c-0.309,0-0.582,0.045-0.822,0.135
			c-0.241,0.09-0.457,0.221-0.648,0.389c-0.191,0.17-0.36,0.375-0.507,0.615s-0.284,0.514-0.411,0.822v7.119h-2.782V233.56h1.634
			c0.285,0,0.484,0.051,0.596,0.152c0.113,0.102,0.188,0.283,0.227,0.547L220.188,235.565z"/>
		<path fill="#FFFFFF" d="M235.98,233.954v1.037c0,0.33-0.199,0.533-0.597,0.607l-1.036,0.191c0.158,0.398,0.236,0.834,0.236,1.307
			c0,0.57-0.115,1.088-0.344,1.549c-0.229,0.463-0.546,0.855-0.951,1.178c-0.406,0.322-0.885,0.572-1.437,0.75
			c-0.552,0.176-1.147,0.264-1.786,0.264c-0.225,0-0.443-0.012-0.652-0.033c-0.211-0.023-0.418-0.053-0.62-0.09
			c-0.36,0.217-0.54,0.461-0.54,0.732c0,0.232,0.106,0.402,0.32,0.512s0.498,0.186,0.851,0.23s0.755,0.074,1.205,0.084
			c0.45,0.012,0.913,0.037,1.386,0.074s0.936,0.104,1.386,0.197s0.853,0.242,1.205,0.445c0.353,0.201,0.637,0.479,0.851,0.828
			c0.214,0.348,0.321,0.797,0.321,1.346c0,0.51-0.126,1.006-0.378,1.486s-0.615,0.908-1.092,1.285
			c-0.478,0.375-1.063,0.678-1.758,0.906c-0.695,0.229-1.485,0.344-2.371,0.344c-0.871,0-1.63-0.084-2.275-0.254
			c-0.646-0.168-1.184-0.395-1.611-0.676s-0.747-0.607-0.957-0.975c-0.211-0.367-0.316-0.75-0.316-1.148
			c0-0.541,0.164-0.994,0.49-1.357c0.327-0.365,0.775-0.656,1.347-0.873c-0.308-0.158-0.552-0.367-0.732-0.631
			s-0.271-0.609-0.271-1.037c0-0.172,0.032-0.35,0.096-0.535c0.064-0.184,0.158-0.365,0.281-0.545
			c0.125-0.182,0.28-0.352,0.469-0.514c0.188-0.16,0.408-0.305,0.664-0.434c-0.586-0.314-1.046-0.736-1.38-1.262
			c-0.335-0.525-0.501-1.141-0.501-1.848c0-0.57,0.114-1.086,0.344-1.549c0.229-0.461,0.547-0.855,0.957-1.182
			c0.409-0.328,0.894-0.576,1.453-0.75c0.56-0.172,1.17-0.26,1.83-0.26c0.496,0,0.961,0.051,1.397,0.152
			c0.435,0.102,0.833,0.25,1.194,0.445H235.98z M233.21,245.636c0-0.225-0.067-0.41-0.203-0.553s-0.319-0.252-0.552-0.332
			c-0.232-0.078-0.506-0.137-0.816-0.174c-0.313-0.037-0.643-0.066-0.992-0.084c-0.349-0.02-0.709-0.037-1.081-0.051
			c-0.372-0.016-0.733-0.045-1.087-0.09c-0.309,0.172-0.558,0.375-0.749,0.607s-0.287,0.504-0.287,0.811
			c0,0.203,0.05,0.393,0.151,0.57c0.102,0.176,0.264,0.328,0.484,0.455c0.223,0.127,0.51,0.227,0.862,0.299
			c0.353,0.07,0.784,0.107,1.296,0.107c0.518,0,0.965-0.039,1.34-0.119c0.375-0.078,0.686-0.188,0.93-0.326s0.422-0.305,0.535-0.496
			C233.153,246.069,233.21,245.86,233.21,245.636z M230.066,239.058c0.346,0,0.646-0.047,0.902-0.141
			c0.254-0.094,0.467-0.225,0.636-0.389c0.169-0.166,0.296-0.365,0.383-0.598s0.13-0.488,0.13-0.766c0-0.57-0.171-1.023-0.513-1.357
			s-0.854-0.502-1.538-0.502s-1.195,0.168-1.537,0.502s-0.513,0.787-0.513,1.357c0,0.27,0.043,0.521,0.13,0.754
			c0.086,0.232,0.214,0.434,0.383,0.604c0.169,0.168,0.383,0.301,0.643,0.395C229.43,239.011,229.729,239.058,230.066,239.058z"/>
		<path fill="#FFFFFF" d="M241.006,230.192c0,0.24-0.049,0.465-0.146,0.676c-0.098,0.209-0.228,0.395-0.389,0.551
			c-0.162,0.158-0.352,0.285-0.569,0.379s-0.45,0.141-0.698,0.141c-0.24,0-0.468-0.047-0.682-0.141s-0.4-0.221-0.558-0.379
			c-0.157-0.156-0.284-0.342-0.378-0.551c-0.094-0.211-0.141-0.436-0.141-0.676c0-0.248,0.047-0.48,0.141-0.699
			c0.094-0.217,0.221-0.406,0.378-0.563c0.157-0.158,0.344-0.283,0.558-0.377s0.441-0.143,0.682-0.143
			c0.248,0,0.48,0.049,0.698,0.143s0.407,0.219,0.569,0.377c0.161,0.156,0.291,0.346,0.389,0.563
			C240.957,229.712,241.006,229.944,241.006,230.192z M240.623,233.56v11.559h-2.795V233.56H240.623z"/>
		<path fill="#FFFFFF" d="M243.19,235.171c1.329-1.217,2.929-1.824,4.799-1.824c0.676,0,1.28,0.109,1.813,0.332
			c0.533,0.221,0.984,0.529,1.352,0.924c0.368,0.395,0.648,0.865,0.84,1.414c0.191,0.547,0.287,1.148,0.287,1.801v7.301h-1.262
			c-0.264,0-0.466-0.039-0.608-0.119c-0.143-0.078-0.255-0.238-0.338-0.479l-0.248-0.834c-0.293,0.264-0.578,0.494-0.856,0.693
			c-0.277,0.199-0.566,0.365-0.867,0.502c-0.301,0.135-0.621,0.238-0.963,0.309c-0.342,0.072-0.719,0.107-1.133,0.107
			c-0.487,0-0.938-0.066-1.352-0.197c-0.412-0.131-0.77-0.328-1.07-0.592c-0.3-0.262-0.533-0.59-0.697-0.979
			c-0.166-0.391-0.248-0.846-0.248-1.363c0-0.293,0.049-0.584,0.146-0.873s0.257-0.566,0.479-0.828
			c0.221-0.264,0.509-0.512,0.861-0.744c0.354-0.232,0.787-0.436,1.301-0.607c0.516-0.174,1.113-0.314,1.797-0.424
			c0.684-0.107,1.465-0.174,2.344-0.197v-0.676c0-0.773-0.166-1.346-0.496-1.717c-0.33-0.373-0.807-0.559-1.43-0.559
			c-0.451,0-0.824,0.053-1.121,0.158s-0.559,0.225-0.783,0.355c-0.226,0.131-0.43,0.25-0.614,0.354
			c-0.185,0.105-0.388,0.158-0.614,0.158c-0.195,0-0.359-0.051-0.495-0.152s-0.244-0.219-0.327-0.354L243.19,235.171z
			 M249.566,240.185c-0.804,0.037-1.479,0.105-2.027,0.207c-0.549,0.102-0.988,0.23-1.318,0.389s-0.567,0.342-0.71,0.553
			s-0.214,0.439-0.214,0.688c0,0.488,0.145,0.836,0.434,1.047s0.666,0.316,1.133,0.316c0.57,0,1.064-0.104,1.48-0.311
			c0.417-0.207,0.824-0.52,1.223-0.941V240.185z"/>
	</g>
</g>
<g>
	<g>
		<path fill="#FF2455" d="M346.293,41.075h-4.051V19.384h4.051V41.075z"/>
		<path fill="#FF2455" d="M353.822,28.354c0.48-0.92,1.051-1.643,1.711-2.168c0.659-0.523,1.439-0.787,2.34-0.787
			c0.709,0,1.279,0.156,1.709,0.465l-0.239,2.775c-0.05,0.18-0.122,0.307-0.218,0.383c-0.096,0.074-0.223,0.111-0.383,0.111
			c-0.149,0-0.372-0.023-0.667-0.074c-0.296-0.049-0.583-0.074-0.862-0.074c-0.41,0-0.775,0.059-1.096,0.18
			c-0.32,0.119-0.607,0.293-0.862,0.518s-0.479,0.498-0.675,0.816c-0.195,0.32-0.377,0.686-0.547,1.096v9.48h-3.705V25.685h2.174
			c0.381,0,0.646,0.068,0.795,0.203c0.15,0.135,0.25,0.377,0.301,0.727L353.822,28.354z"/>
		<path fill="#FF2455" d="M374.777,25.685v15.391h-2.266c-0.49,0-0.8-0.225-0.93-0.676l-0.255-1.23
			c-0.63,0.641-1.325,1.158-2.085,1.553s-1.655,0.594-2.686,0.594c-0.84,0-1.582-0.143-2.227-0.428
			c-0.646-0.285-1.188-0.688-1.628-1.207c-0.44-0.521-0.772-1.139-0.997-1.854c-0.226-0.715-0.338-1.502-0.338-2.363v-9.779h3.705
			v9.779c0,0.941,0.217,1.668,0.652,2.184s1.088,0.771,1.957,0.771c0.641,0,1.24-0.143,1.801-0.426
			c0.56-0.285,1.09-0.678,1.59-1.178V25.685H374.777z"/>
		<path fill="#FF2455" d="M392.417,25.685l-8.386,19.621c-0.109,0.26-0.252,0.457-0.427,0.592s-0.442,0.203-0.803,0.203h-2.76
			l2.88-6.182l-6.225-14.234h3.255c0.29,0,0.517,0.07,0.683,0.211c0.164,0.139,0.287,0.299,0.367,0.479l3.27,7.98
			c0.11,0.27,0.203,0.541,0.277,0.811c0.076,0.27,0.148,0.545,0.219,0.824c0.09-0.279,0.18-0.557,0.27-0.832s0.189-0.547,0.3-0.818
			l3.09-7.965c0.08-0.199,0.212-0.363,0.397-0.494s0.393-0.195,0.623-0.195H392.417z"/>
		<path fill="#FF2455" d="M393.558,27.829c1.771-1.619,3.899-2.43,6.39-2.43c0.9,0,1.705,0.148,2.415,0.443s1.31,0.705,1.8,1.229
			c0.49,0.525,0.863,1.154,1.117,1.883c0.256,0.73,0.383,1.531,0.383,2.4v9.721h-1.68c-0.35,0-0.62-0.053-0.811-0.158
			c-0.189-0.105-0.34-0.316-0.449-0.637l-0.33-1.111c-0.391,0.352-0.771,0.658-1.141,0.924c-0.369,0.264-0.755,0.486-1.154,0.666
			c-0.4,0.182-0.828,0.318-1.283,0.414c-0.455,0.094-0.957,0.143-1.507,0.143c-0.65,0-1.251-0.088-1.8-0.264
			c-0.551-0.174-1.025-0.438-1.426-0.787s-0.71-0.785-0.93-1.305c-0.221-0.52-0.33-1.125-0.33-1.814
			c0-0.391,0.064-0.777,0.195-1.164c0.13-0.385,0.342-0.752,0.637-1.102s0.678-0.68,1.148-0.99c0.47-0.311,1.047-0.58,1.732-0.811
			c0.685-0.229,1.482-0.416,2.393-0.563c0.91-0.145,1.949-0.232,3.119-0.262v-0.9c0-1.029-0.22-1.793-0.66-2.287
			c-0.439-0.496-1.074-0.742-1.904-0.742c-0.6,0-1.098,0.07-1.492,0.209c-0.396,0.141-0.742,0.299-1.043,0.473
			c-0.3,0.176-0.572,0.332-0.817,0.473s-0.518,0.211-0.817,0.211c-0.26,0-0.48-0.068-0.66-0.203s-0.325-0.293-0.436-0.473
			L393.558,27.829z M402.047,34.505c-1.07,0.051-1.97,0.143-2.699,0.277c-0.73,0.135-1.315,0.307-1.756,0.518
			c-0.439,0.209-0.754,0.455-0.944,0.734c-0.19,0.281-0.285,0.586-0.285,0.916c0,0.65,0.192,1.115,0.577,1.395
			s0.888,0.42,1.508,0.42c0.76,0,1.418-0.137,1.973-0.412s1.098-0.693,1.627-1.252V34.505z"/>
	</g>
</g>
<g>
	
		<line fill="none" stroke="#337C98" stroke-width="10" stroke-linecap="round" stroke-linejoin="round" stroke-miterlimit="10" x1="86.146" y1="255.964" x2="66.768" y2="322.988"/>
	
		<polyline fill="none" stroke="#337C98" stroke-width="10" stroke-linecap="round" stroke-linejoin="round" stroke-miterlimit="10" points="
		73.485,258.841 87.77,250.354 95.32,265.153 	"/>
</g>
<g>
	
		<line fill="none" stroke="#337C98" stroke-width="10" stroke-linecap="round" stroke-linejoin="round" stroke-miterlimit="10" x1="358.266" y1="100.495" x2="391.604" y2="57.034"/>
	
		<polyline fill="none" stroke="#337C98" stroke-width="10" stroke-linecap="round" stroke-linejoin="round" stroke-miterlimit="10" points="
		371.105,102.429 354.71,105.128 353.07,88.596 	"/>
</g>
<g>
	<circle fill="#337C98" cx="224.582" cy="322.987" r="43.163"/>
	<g>
		<path fill="#FFFFFF" d="M216.641,329.397v2.084h-9.012v-2.084h3.301v-9.496c0-0.376,0.011-0.763,0.033-1.16l-2.343,1.96
			c-0.136,0.105-0.269,0.171-0.399,0.197c-0.133,0.026-0.256,0.028-0.373,0.006c-0.115-0.023-0.219-0.063-0.309-0.119
			c-0.091-0.056-0.158-0.118-0.203-0.186l-0.879-1.205l4.968-4.225h2.286v14.228H216.641z"/>
		<path fill="#FFFFFF" d="M230.553,323.337c0,1.42-0.152,2.653-0.457,3.7c-0.304,1.048-0.725,1.914-1.262,2.597
			c-0.537,0.684-1.172,1.192-1.903,1.526c-0.732,0.334-1.522,0.502-2.371,0.502s-1.636-0.168-2.36-0.502s-1.354-0.843-1.887-1.526
			c-0.533-0.683-0.95-1.549-1.25-2.597c-0.301-1.047-0.451-2.28-0.451-3.7c0-1.427,0.15-2.662,0.451-3.706
			c0.3-1.044,0.717-1.907,1.25-2.591s1.162-1.192,1.887-1.526s1.512-0.501,2.36-0.501s1.639,0.167,2.371,0.501
			c0.731,0.334,1.366,0.843,1.903,1.526s0.958,1.547,1.262,2.591C230.4,320.675,230.553,321.91,230.553,323.337z M227.68,323.337
			c0-1.179-0.086-2.155-0.26-2.929c-0.172-0.773-0.402-1.39-0.691-1.848c-0.29-0.458-0.622-0.779-0.998-0.963
			c-0.375-0.184-0.766-0.276-1.171-0.276c-0.398,0-0.783,0.093-1.155,0.276c-0.371,0.184-0.699,0.505-0.985,0.963
			c-0.285,0.458-0.513,1.074-0.681,1.848c-0.17,0.773-0.254,1.75-0.254,2.929s0.084,2.155,0.254,2.929
			c0.168,0.773,0.396,1.39,0.681,1.848c0.286,0.458,0.614,0.779,0.985,0.963c0.372,0.185,0.757,0.276,1.155,0.276
			c0.405,0,0.796-0.092,1.171-0.276c0.376-0.184,0.708-0.505,0.998-0.963c0.289-0.458,0.52-1.074,0.691-1.848
			C227.594,325.492,227.68,324.516,227.68,323.337z"/>
		<path fill="#FFFFFF" d="M243.619,323.337c0,1.42-0.152,2.653-0.456,3.7c-0.304,1.048-0.726,1.914-1.262,2.597
			c-0.537,0.684-1.172,1.192-1.903,1.526c-0.732,0.334-1.523,0.502-2.371,0.502c-0.85,0-1.637-0.168-2.361-0.502
			s-1.354-0.843-1.887-1.526c-0.533-0.683-0.949-1.549-1.25-2.597c-0.301-1.047-0.45-2.28-0.45-3.7c0-1.427,0.149-2.662,0.45-3.706
			s0.717-1.907,1.25-2.591s1.162-1.192,1.887-1.526s1.512-0.501,2.361-0.501c0.848,0,1.639,0.167,2.371,0.501
			c0.731,0.334,1.366,0.843,1.903,1.526c0.536,0.684,0.958,1.547,1.262,2.591S243.619,321.91,243.619,323.337z M240.746,323.337
			c0-1.179-0.086-2.155-0.259-2.929s-0.403-1.39-0.692-1.848s-0.621-0.779-0.997-0.963s-0.767-0.276-1.171-0.276
			c-0.398,0-0.783,0.093-1.155,0.276s-0.7,0.505-0.985,0.963s-0.513,1.074-0.682,1.848c-0.17,0.773-0.254,1.75-0.254,2.929
			s0.084,2.155,0.254,2.929c0.169,0.773,0.396,1.39,0.682,1.848s0.613,0.779,0.985,0.963c0.372,0.185,0.757,0.276,1.155,0.276
			c0.404,0,0.795-0.092,1.171-0.276c0.376-0.184,0.708-0.505,0.997-0.963s0.52-1.074,0.692-1.848S240.746,324.516,240.746,323.337z"
			/>
	</g>
</g>
<g>
	<g>
		
			<line fill="none" stroke="#337C98" stroke-width="10" stroke-linecap="round" stroke-linejoin="round" stroke-miterlimit="10" x1="251.49" y1="207.077" x2="162.72" y2="207.433"/>
		
			<polyline fill="none" stroke="#337C98" stroke-width="10" stroke-linecap="round" stroke-linejoin="round" stroke-miterlimit="10" points="
			245.254,218.467 257.329,207.055 245.165,195.738 		"/>
	</g>
	<g>
		
			<line fill="none" stroke="#337C98" stroke-width="10" stroke-linecap="round" stroke-linejoin="round" stroke-miterlimit="10" x1="246.082" y1="150.977" x2="159.833" y2="171.982"/>
		
			<polyline fill="none" stroke="#337C98" stroke-width="10" stroke-linecap="round" stroke-linejoin="round" stroke-miterlimit="10" points="
			237.29,141.421 251.754,149.595 242.67,163.505 		"/>
	</g>
</g>
<g>
	<g>
		<path fill="#FFFFFF" d="M159.23,118.968c-0.121,0.48-0.179,0.873-0.175,1.176c0.004,0.305,0.051,0.545,0.141,0.721
			c0.091,0.178,0.218,0.299,0.384,0.367c0.164,0.068,0.352,0.102,0.563,0.102c0.315,0,0.614-0.1,0.896-0.299
			c0.282-0.199,0.528-0.479,0.737-0.84c0.211-0.359,0.378-0.787,0.502-1.283s0.186-1.037,0.186-1.623
			c0-0.977-0.152-1.836-0.456-2.578c-0.304-0.744-0.73-1.365-1.278-1.865c-0.549-0.5-1.199-0.875-1.955-1.127
			c-0.754-0.252-1.582-0.377-2.483-0.377c-0.991,0-1.907,0.186-2.749,0.559c-0.841,0.371-1.57,0.879-2.19,1.525
			s-1.104,1.408-1.453,2.287s-0.524,1.824-0.524,2.838c0,1.232,0.191,2.314,0.575,3.25c0.383,0.936,0.908,1.717,1.577,2.344
			c0.668,0.627,1.455,1.098,2.359,1.414c0.905,0.314,1.883,0.473,2.936,0.473c0.578,0,1.118-0.031,1.621-0.096
			c0.504-0.064,0.965-0.15,1.386-0.26s0.804-0.232,1.149-0.371s0.653-0.287,0.924-0.445c0.195-0.113,0.367-0.146,0.518-0.102
			s0.26,0.158,0.326,0.338l0.384,1.004c-0.781,0.51-1.694,0.926-2.737,1.25c-1.044,0.322-2.234,0.484-3.57,0.484
			c-1.359,0-2.618-0.215-3.774-0.643c-1.157-0.428-2.157-1.043-3.002-1.842c-0.845-0.801-1.506-1.773-1.983-2.924
			c-0.477-1.148-0.715-2.439-0.715-3.875c0-0.803,0.104-1.584,0.311-2.342c0.206-0.76,0.5-1.471,0.884-2.135
			c0.383-0.666,0.845-1.275,1.386-1.832c0.541-0.555,1.141-1.031,1.803-1.43c0.66-0.398,1.375-0.707,2.146-0.93
			c0.77-0.221,1.575-0.332,2.416-0.332c1.066,0,2.09,0.178,3.069,0.535c0.98,0.357,1.848,0.867,2.603,1.531
			c0.755,0.666,1.357,1.477,1.808,2.434c0.451,0.957,0.676,2.037,0.676,3.238c0,0.805-0.117,1.557-0.354,2.26
			c-0.236,0.701-0.567,1.313-0.991,1.83s-0.924,0.926-1.498,1.223s-1.199,0.445-1.875,0.445c-0.52,0-0.977-0.121-1.375-0.361
			s-0.672-0.627-0.822-1.16c-0.443,0.541-0.912,0.928-1.408,1.16s-1.033,0.35-1.611,0.35c-0.473,0-0.884-0.084-1.232-0.248
			c-0.35-0.166-0.643-0.393-0.879-0.682s-0.414-0.631-0.529-1.025c-0.117-0.395-0.175-0.824-0.175-1.289
			c0-0.428,0.054-0.863,0.163-1.301c0.109-0.439,0.271-0.865,0.49-1.273c0.218-0.41,0.49-0.793,0.816-1.148
			c0.326-0.357,0.71-0.67,1.148-0.936c0.439-0.268,0.936-0.477,1.488-0.631c0.551-0.154,1.158-0.23,1.818-0.23
			c0.586,0,1.086,0.045,1.498,0.135c0.414,0.09,0.812,0.217,1.194,0.383L159.23,118.968z M157.912,116.083
			c-0.24-0.045-0.488-0.066-0.743-0.066c-0.466,0-0.901,0.1-1.307,0.303s-0.757,0.477-1.054,0.822s-0.531,0.742-0.703,1.189
			c-0.174,0.447-0.26,0.91-0.26,1.391s0.104,0.855,0.31,1.121s0.509,0.4,0.907,0.4c0.195,0,0.393-0.031,0.592-0.09
			c0.198-0.061,0.389-0.168,0.568-0.322s0.346-0.357,0.496-0.613c0.149-0.256,0.273-0.574,0.371-0.957L157.912,116.083z"/>
		<path fill="#FFFFFF" d="M174.979,116.005c-0.083,0.105-0.164,0.188-0.242,0.248c-0.079,0.059-0.193,0.09-0.344,0.09
			c-0.143,0-0.281-0.043-0.417-0.131c-0.136-0.086-0.297-0.184-0.484-0.291c-0.188-0.109-0.411-0.207-0.671-0.293
			c-0.258-0.088-0.58-0.131-0.963-0.131c-0.488,0-0.916,0.088-1.283,0.266c-0.369,0.176-0.675,0.43-0.918,0.76
			c-0.244,0.33-0.428,0.73-0.547,1.199c-0.121,0.471-0.181,1.002-0.181,1.594c0,0.617,0.065,1.164,0.197,1.646
			c0.132,0.48,0.321,0.883,0.569,1.211c0.248,0.326,0.548,0.574,0.9,0.742c0.354,0.17,0.752,0.254,1.194,0.254
			c0.443,0,0.802-0.055,1.076-0.164c0.274-0.107,0.505-0.229,0.692-0.359s0.352-0.252,0.49-0.361
			c0.139-0.107,0.295-0.162,0.467-0.162c0.227,0,0.395,0.086,0.508,0.258l0.8,1.014c-0.308,0.361-0.643,0.664-1.003,0.908
			s-0.734,0.439-1.121,0.586c-0.387,0.145-0.785,0.248-1.193,0.309c-0.41,0.061-0.816,0.09-1.223,0.09
			c-0.713,0-1.385-0.133-2.016-0.398c-0.631-0.268-1.184-0.656-1.656-1.166c-0.474-0.512-0.848-1.137-1.121-1.877
			c-0.274-0.738-0.411-1.582-0.411-2.529c0-0.848,0.122-1.635,0.366-2.359s0.603-1.352,1.076-1.881
			c0.473-0.529,1.059-0.945,1.757-1.244c0.698-0.301,1.502-0.451,2.411-0.451c0.863,0,1.619,0.139,2.27,0.416
			c0.649,0.279,1.233,0.676,1.752,1.195L174.979,116.005z"/>
		<path fill="#FFFFFF" d="M180.824,110.192c0,0.24-0.049,0.465-0.146,0.676c-0.098,0.209-0.227,0.395-0.389,0.551
			c-0.161,0.158-0.351,0.285-0.568,0.379s-0.451,0.141-0.698,0.141c-0.241,0-0.468-0.047-0.682-0.141s-0.399-0.221-0.558-0.379
			c-0.158-0.156-0.283-0.342-0.377-0.551c-0.094-0.211-0.141-0.436-0.141-0.676c0-0.248,0.047-0.48,0.141-0.699
			c0.094-0.217,0.219-0.406,0.377-0.563c0.158-0.158,0.344-0.283,0.558-0.377s0.44-0.143,0.682-0.143
			c0.247,0,0.48,0.049,0.698,0.143s0.407,0.219,0.568,0.377c0.162,0.156,0.291,0.346,0.389,0.563
			C180.775,109.712,180.824,109.944,180.824,110.192z M180.441,113.56v11.559h-2.793V113.56H180.441z"/>
		<path fill="#FFFFFF" d="M193.238,113.56v11.559h-1.701c-0.368,0-0.602-0.17-0.698-0.508l-0.191-0.924
			c-0.474,0.48-0.995,0.869-1.565,1.166c-0.571,0.297-1.244,0.445-2.018,0.445c-0.631,0-1.188-0.107-1.672-0.32
			c-0.484-0.215-0.893-0.518-1.223-0.908s-0.58-0.854-0.749-1.391s-0.253-1.129-0.253-1.773v-7.346h2.781v7.346
			c0,0.705,0.164,1.252,0.49,1.639c0.327,0.387,0.816,0.58,1.471,0.58c0.48,0,0.931-0.107,1.352-0.32
			c0.42-0.215,0.818-0.51,1.193-0.885v-8.359H193.238z"/>
		<path fill="#FFFFFF" d="M206.023,108.378v16.74h-1.701c-0.367,0-0.601-0.17-0.698-0.508l-0.236-1.115
			c-0.466,0.533-1.001,0.965-1.605,1.295c-0.604,0.332-1.309,0.496-2.112,0.496c-0.631,0-1.209-0.131-1.734-0.395
			c-0.525-0.262-0.979-0.643-1.357-1.143s-0.672-1.117-0.879-1.854s-0.31-1.576-0.31-2.523c0-0.855,0.116-1.652,0.349-2.387
			c0.233-0.736,0.567-1.375,1.003-1.916s0.958-0.963,1.565-1.268c0.609-0.303,1.292-0.455,2.051-0.455
			c0.646,0,1.197,0.102,1.656,0.303c0.457,0.203,0.867,0.479,1.228,0.822v-6.094H206.023z M203.241,116.511
			c-0.315-0.383-0.659-0.652-1.03-0.811c-0.372-0.158-0.771-0.236-1.2-0.236c-0.421,0-0.8,0.078-1.138,0.236
			s-0.627,0.396-0.867,0.715c-0.24,0.32-0.425,0.725-0.553,1.217c-0.127,0.492-0.191,1.072-0.191,1.74
			c0,0.676,0.055,1.25,0.164,1.719c0.108,0.469,0.264,0.852,0.467,1.148s0.451,0.512,0.744,0.643s0.619,0.197,0.979,0.197
			c0.579,0,1.07-0.121,1.476-0.361c0.406-0.24,0.789-0.582,1.149-1.025V116.511z"/>
		<path fill="#FFFFFF" d="M208.502,115.171c1.329-1.217,2.929-1.824,4.799-1.824c0.676,0,1.28,0.109,1.813,0.332
			c0.533,0.221,0.983,0.529,1.353,0.924c0.367,0.395,0.646,0.865,0.838,1.414c0.192,0.547,0.288,1.148,0.288,1.801v7.301h-1.262
			c-0.263,0-0.466-0.039-0.608-0.119c-0.143-0.078-0.256-0.238-0.338-0.479l-0.248-0.834c-0.293,0.264-0.578,0.494-0.855,0.693
			c-0.278,0.199-0.568,0.365-0.867,0.502c-0.301,0.135-0.622,0.238-0.964,0.309c-0.342,0.072-0.72,0.107-1.132,0.107
			c-0.488,0-0.939-0.066-1.352-0.197c-0.414-0.131-0.771-0.328-1.07-0.592c-0.301-0.262-0.533-0.59-0.699-0.979
			c-0.164-0.391-0.248-0.846-0.248-1.363c0-0.293,0.049-0.584,0.146-0.873s0.258-0.566,0.479-0.828
			c0.222-0.264,0.509-0.512,0.862-0.744c0.352-0.232,0.786-0.436,1.301-0.607c0.514-0.174,1.113-0.314,1.797-0.424
			c0.683-0.107,1.464-0.174,2.343-0.197v-0.676c0-0.773-0.165-1.346-0.495-1.717c-0.331-0.373-0.809-0.559-1.432-0.559
			c-0.45,0-0.824,0.053-1.121,0.158s-0.557,0.225-0.782,0.355s-0.431,0.25-0.614,0.354c-0.184,0.105-0.389,0.158-0.613,0.158
			c-0.195,0-0.361-0.051-0.496-0.152s-0.244-0.219-0.326-0.354L208.502,115.171z M214.878,120.185
			c-0.804,0.037-1.479,0.105-2.028,0.207c-0.548,0.102-0.987,0.23-1.317,0.389c-0.331,0.158-0.567,0.342-0.71,0.553
			s-0.214,0.439-0.214,0.688c0,0.488,0.145,0.836,0.434,1.047s0.667,0.316,1.132,0.316c0.57,0,1.064-0.104,1.482-0.311
			c0.416-0.207,0.823-0.52,1.222-0.941V120.185z"/>
		<path fill="#FFFFFF" d="M230.242,108.378v16.74h-1.7c-0.368,0-0.601-0.17-0.698-0.508l-0.236-1.115
			c-0.467,0.533-1.002,0.965-1.605,1.295c-0.605,0.332-1.309,0.496-2.112,0.496c-0.631,0-1.21-0.131-1.735-0.395
			c-0.525-0.262-0.979-0.643-1.357-1.143s-0.672-1.117-0.879-1.854c-0.206-0.736-0.309-1.576-0.309-2.523
			c0-0.855,0.115-1.652,0.349-2.387c0.233-0.736,0.567-1.375,1.003-1.916s0.957-0.963,1.565-1.268
			c0.608-0.303,1.292-0.455,2.05-0.455c0.646,0,1.198,0.102,1.656,0.303c0.458,0.203,0.867,0.479,1.229,0.822v-6.094H230.242z
			 M227.461,116.511c-0.316-0.383-0.66-0.652-1.031-0.811s-0.771-0.236-1.199-0.236c-0.422,0-0.801,0.078-1.139,0.236
			s-0.627,0.396-0.867,0.715c-0.24,0.32-0.424,0.725-0.552,1.217s-0.191,1.072-0.191,1.74c0,0.676,0.054,1.25,0.163,1.719
			s0.265,0.852,0.468,1.148c0.202,0.297,0.45,0.512,0.743,0.643s0.619,0.197,0.98,0.197c0.578,0,1.07-0.121,1.476-0.361
			s0.788-0.582,1.149-1.025V116.511z"/>
	</g>
</g>
</svg>
